<?xml version="1.0" encoding="utf-8"?>
<!-- Generator: Adobe Illustrator 28.1.0, SVG Export Plug-In . SVG Version: 6.00 Build 0)  -->
<svg version="1.1" id="Layer_1" xmlns="http://www.w3.org/2000/svg" xmlns:xlink="http://www.w3.org/1999/xlink" x="0px" y="0px"
	 viewBox="0 0 384 384" style="enable-background:new 0 0 384 384;" xml:space="preserve">
<path fill="#c0b561" d="M265.32,308.78c0,2.44-0.07,4.52,0.02,6.6c0.12,3.03-1.37,4.64-4.25,5.16c-0.98,0.18-1.97,0.58-2.94,0.52
	c-7.99-0.49-10,5.36-11.83,11.24c-0.3,0.97,0.12,2.41,0.68,3.36c1.45,2.47,3.12,4.8,4.76,7.16c1.67,2.4,1.63,4.52-0.55,6.66
	c-4.99,4.89-9.92,9.84-14.83,14.81c-2,2.03-4.06,2.18-6.35,0.59c-0.72-0.5-1.55-0.87-2.16-1.47c-4.58-4.49-9.36-4.94-14.99-1.64
	c-2.25,1.32-3.81,2.39-4,5.1c-0.11,1.6-0.64,3.17-0.96,4.76c-1.36,6.69-1.35,6.69-8.3,6.69c-5.86,0-11.73-0.1-17.59,0.04
	c-3.37,0.08-5.14-1.38-5.62-4.62c-0.13-0.86-0.41-1.72-0.43-2.58c-0.12-6.13-3.15-9.55-9.12-11.2c-2.68-0.74-4.48-0.82-6.8,0.78
	c-10.81,7.46-8.64,7.18-17.52-1.57c-3.29-3.24-6.5-6.56-9.81-9.78c-2.04-1.99-2.22-4.04-0.61-6.34c0.64-0.92,1.12-2,1.91-2.77
	c4.38-4.32,4.19-8.81,1.39-14.03c-1.38-2.57-2.62-4.3-5.61-4.45c-1.11-0.06-2.21-0.37-3.31-0.6c-7.71-1.61-7.71-1.61-7.81-9.67
	c-0.01-0.74-0.07-1.48-0.13-2.76c-1.48,0-2.92,0-4.37,0c-34.31,0-68.63,0-102.94,0c-5.66,0-6.45-0.79-6.45-6.47
	c0-64.25,0.03-128.5-0.08-192.74c-0.01-3.61,1.22-5.67,4.24-7.49c13.68-8.22,27.2-16.69,40.87-24.92c2.22-1.34,3.27-2.8,2.91-5.35
	c-0.14-0.98-0.03-1.99-0.02-2.99c0.04-4.48,1.07-5.56,5.45-5.6c3.23-0.03,6.46-0.01,10.21-0.01c0-2.55-0.02-4.87,0-7.19
	c0.04-4.27,1.09-5.45,5.21-5.46c16.72-0.04,33.44,0.01,50.16-0.03c3.43-0.01,5.1,1.55,5.07,4.97c-0.02,2.46,0,4.92,0,7.53
	c2.88,0,5.31,0,7.82,0c0.25-2.36,0.91-4.44-1.92-5.81c-0.98-0.47-1.63-2.48-1.69-3.81c-0.21-4.48-0.09-8.98-0.07-13.47
	c0.02-3.03,1.47-4.6,4.62-4.56c3.97,0.06,7.95,0.01,12.49,0.01c0-2.93,0.06-5.62-0.01-8.31c-0.1-3.5,1.63-4.97,5.02-4.96
	c8.7,0.04,17.41,0.01,26.56,0.01c0-4.04,0.03-7.74-0.01-11.44c-0.04-3.39,1.52-5.09,4.98-5.04c3.62,0.06,7.24,0.05,10.86,0
	c3.49-0.04,4.96,1.75,4.92,5.11c-0.04,3.6-0.01,7.21-0.01,11.37c4.02,0,7.84,0,11.65,0c4.99,0,9.98,0.03,14.97-0.01
	c3.43-0.03,5.06,1.57,4.95,5.03c-0.08,2.59-0.02,5.19-0.02,8.23c4.16,0,7.99-0.03,11.81,0.01c4.18,0.04,5.24,1.11,5.29,5.37
	c0.04,3.62-0.02,7.24,0.02,10.85c0.03,2.69-0.03,5.08-3.02,6.63c-0.9,0.47-0.75,2.97-1.14,4.78c3.04,0,5.48,0,8.28,0
	c0-2.67,0-5.13,0-7.6c0-3.19,1.49-4.87,4.77-4.87c16.97,0.01,33.94,0.01,50.91,0c3.21,0,4.86,1.5,4.77,4.81
	c-0.07,2.47-0.01,4.94-0.01,7.86c3.76,0,7.22,0.05,10.67-0.01c3.43-0.07,5.42,1.53,4.92,4.95c-0.79,5.44,1.48,8.35,6.2,11.05
	c12.87,7.36,25.31,15.47,38.02,23.13c2.8,1.69,3.84,3.7,3.83,6.96c-0.08,64.37-0.06,128.74-0.06,193.12c0,5.61-0.79,6.38-6.55,6.38
	c-34.19,0-68.38,0-102.57,0C268.63,308.78,267.16,308.78,265.32,308.78z M247.36,70.82c-0.09,0.95-0.21,1.56-0.21,2.17
	c-0.01,60.37-0.03,120.74,0.07,181.11c0,1.5,0.95,3.31,2.02,4.46c4.78,5.15,5.24,5.45,0.82,10.9c-4.01,4.94-4.44,9.37-1.28,14.74
	c1.22,2.07,2.04,3.71,4.77,3.87c2.46,0.14,4.88,0.95,7.33,1.39c3.04,0.54,4.61,2.18,4.44,5.39c-0.11,2.06-0.02,4.14-0.02,6.18
	c19.77,0,39.02,0,58.21,0c0-76.9,0-153.53,0-230.21C298.07,70.82,272.9,70.82,247.36,70.82z M118.7,301.16
	c0-2.23,0.11-4.1-0.02-5.94c-0.26-3.54,1.41-5.31,4.82-5.83c2.71-0.41,5.42-0.89,8.06-1.6c1.05-0.28,2.27-1.05,2.8-1.95
	c3.26-5.63,5.26-11.32-0.71-16.6c-0.27-0.24-0.42-0.61-0.63-0.92c-2.83-4.24-2.88-5.23,0.8-8.59c2.31-2.11,3.15-4.34,3.15-7.48
	c-0.09-58.87-0.07-117.75-0.07-176.62c0-1.56,0-3.12,0-4.7c-25.85,0-51.11,0-76.43,0c0,76.85,0,153.49,0,230.25
	C79.85,301.16,99.02,301.16,118.7,301.16z M238.34,248.62c0.32-0.24,0.64-0.47,0.96-0.71c0-63.23,0-126.46,0-189.68
	c-31.73,0-63.12,0-94.7,0c0,63.35,0,126.49,0,190.98c5.29-8.4,9.81-3.99,14.39-0.69c0.3,0.22,0.66,0.38,0.93,0.63
	c2.17,2.02,4.26,1.72,7.08,0.88c5.73-1.7,8.93-4.8,8.93-10.91c0-0.98,0.34-1.96,0.51-2.94c0.5-3.04,2.14-4.54,5.36-4.49
	c6.86,0.1,13.72,0.08,20.58,0.01c3.03-0.03,4.62,1.4,5.16,4.27c0.52,2.82,0.91,5.68,1.72,8.41c0.36,1.22,1.37,2.63,2.47,3.17
	c8.56,4.19,8.59,4.13,16.55-1.18c0.52-0.35,1.04-0.69,1.54-1.06c2.37-1.75,4.61-1.76,6.61,0.55
	C237.15,246.7,237.71,247.7,238.34,248.62z M371.57,301.14c0.07-0.84,0.15-1.32,0.15-1.81c0.01-62.63,0.02-125.27-0.09-187.9
	c0-1.35-1.22-3.21-2.42-3.96c-11.71-7.37-23.53-14.57-35.33-21.79c-0.7-0.43-1.48-0.72-2.37-1.15c0,72.37,0,144.41,0,216.62
	C344.89,301.14,358.07,301.14,371.57,301.14z M12.29,301c13.77,0,27.04,0,40.12,0c0-72.29,0-144.28,0-216.7
	c-12.63,7.75-24.8,15.31-37.08,22.67c-2.35,1.41-3.1,2.94-3.1,5.63c0.08,61.51,0.06,123.01,0.06,184.52
	C12.29,298.34,12.29,299.57,12.29,301z M139.91,344.95c4.08,4.2,7.96,8.18,11.97,12.3c2.35-1.56,4.92-3.09,7.29-4.89
	c2.24-1.7,4.38-1.95,6.93-0.75c3.15,1.49,6.34,2.99,9.66,4.01c3.96,1.22,5.75,3.61,6.41,7.68c1.23,7.56,1.44,7.52,9.1,7.52
	c9.12,0,9.26,0.03,10.96-8.99c0.56-2.97,1.94-4.6,4.67-5.61c3.85-1.43,7.65-3.02,11.39-4.72c2.31-1.05,4.23-0.84,6.26,0.64
	c2.58,1.88,5.31,3.56,7.5,5.01c4.28-4.13,8.22-7.92,12.31-11.86c-1.36-2.04-2.57-4.24-4.15-6.13c-2.53-3.03-3.04-5.99-1.05-9.56
	c1.45-2.59,2.61-5.41,3.45-8.26c1.17-3.94,3.5-5.76,7.61-6.44c7.65-1.27,7.61-1.53,7.61-9.43c0-8.95,0.02-9.09-8.89-10.69
	c-2.95-0.53-4.67-1.79-5.69-4.55c-1.38-3.74-2.9-7.43-4.58-11.04c-1.18-2.53-1.11-4.66,0.61-6.93c1.87-2.45,3.46-5.12,5.34-7.94
	c-2.17-2.07-4.25-3.87-6.1-5.87c-1.92-2.08-3.62-4.37-5.92-7.2c-7.48,9.99-15.36,8.11-23.47,3.48c-0.32-0.18-0.66-0.39-1.02-0.47
	c-3.95-0.87-5.54-3.47-6.21-7.35c-1.34-7.74-1.51-7.71-9.32-7.71c-8.96,0-9.11-0.03-10.75,8.78c-0.58,3.1-1.97,4.86-4.84,5.91
	c-3.97,1.46-7.78,3.39-11.8,4.69c-1.53,0.49-3.7,0.26-5.15-0.48c-2.96-1.52-5.62-3.6-7.92-5.13c-4.21,4.16-8.15,8.07-12.23,12.11
	c1.49,2.22,3.03,4.79,4.84,7.16c1.72,2.26,1.83,4.41,0.62,6.94c-1.5,3.14-3.02,6.33-4,9.65c-1.19,4.05-3.71,5.71-7.71,6.36
	c-7.48,1.22-7.45,1.39-7.45,8.77c0,9.4-0.03,9.53,9.06,11.27c2.99,0.57,4.58,2.02,5.59,4.71c1.35,3.61,2.74,7.24,4.44,10.69
	c1.41,2.86,1.03,5.15-0.85,7.58C142.68,340.49,141.23,342.96,139.91,344.95z M140.54,50.22c34.48,0,68.66,0,102.83,0
	c0-2.53,0-4.72,0-7.02c-34.38,0-68.55,0-102.83,0C140.54,45.64,140.54,47.74,140.54,50.22z M157.72,35.09c23.05,0,45.79,0,68.57,0
	c0-1.87,0-3.46,0-5.26c-22.91,0-45.66,0-68.57,0C157.72,31.62,157.72,33.21,157.72,35.09z M262.91,62.98c15.24,0,30.14,0,45.05,0
	c0-1.68,0-3.12,0-4.75c-15.07,0-29.94,0-45.05,0C262.91,59.85,262.91,61.29,262.91,62.98z M121.18,58.27c-15.29,0-30.17,0-45.13,0
	c0,1.69,0,3.13,0,4.64c15.15,0,30.12,0,45.13,0C121.18,61.26,121.18,59.92,121.18,58.27z M189.33,21.91c1.87,0,3.53,0,5.29,0
	c0-2.98,0-5.75,0-8.47c-1.93,0-3.58,0-5.29,0C189.33,16.41,189.33,19.08,189.33,21.91z M308.45,219.19c2.58,0.03,4.59-0.93,4.6-3.7
	c0.01-2.77-2.02-3.77-4.57-3.78c-4.23-0.02-8.45-0.01-12.68-0.01c-3.18,0-4.85,1.52-4.83,4.78c0.02,4.22,0,8.45,0,12.67
	c0,2.56,1,4.57,3.75,4.6c2.78,0.04,3.77-1.92,3.74-4.52c-0.04-3.19-0.01-6.39-0.01-10.06C302.05,219.18,305.25,219.15,308.45,219.19
	z M308.4,145.61c2.63,0.06,4.58-0.95,4.63-3.67c0.05-2.72-1.89-3.84-4.5-3.83c-4.23,0.01-8.46,0.03-12.69-0.01
	c-3.23-0.03-4.86,1.51-4.87,4.74c-0.01,4.23,0,8.46,0,12.69c0,2.55,0.94,4.57,3.73,4.61c2.77,0.03,3.81-1.86,3.77-4.5
	c-0.05-3.2-0.01-6.41-0.01-10.04C302.19,145.59,305.3,145.53,308.4,145.61z M275.06,182.39c2.52,0.02,4.59-0.66,4.67-3.59
	c0.07-2.88-1.86-3.87-4.42-3.89c-4.36-0.03-8.73-0.04-13.09,0.01c-2.84,0.03-4.39,1.45-4.38,4.4c0.02,4.36,0.04,8.73-0.01,13.09
	c-0.03,2.64,1.01,4.57,3.75,4.54c2.74-0.03,3.76-2.04,3.74-4.62c-0.01-3.11,0-6.22,0-9.95
	C268.88,182.38,271.97,182.36,275.06,182.39z M308.71,108.85c2.46,0,4.26-1.14,4.32-3.63c0.06-2.7-1.76-3.88-4.42-3.86
	c-4.35,0.04-8.7,0.04-13.04,0c-3.12-0.03-4.56,1.59-4.59,4.58c-0.03,4.35-0.04,8.69,0.01,13.04c0.03,2.59,1.17,4.43,3.98,4.31
	c2.62-0.11,3.51-1.93,3.49-4.37c-0.04-3.2-0.01-6.41-0.01-10.07C302.26,108.85,305.49,108.85,308.71,108.85z M308.74,182.38
	c2.49,0.02,4.24-1.11,4.3-3.62c0.06-2.51-1.66-3.8-4.12-3.83c-4.6-0.06-9.2-0.08-13.8,0.01c-2.69,0.05-4.1,1.64-4.14,4.29
	c-0.06,4.47-0.04,8.95-0.01,13.42c0.02,2.43,1.14,4.27,3.66,4.31c2.74,0.04,3.85-1.81,3.81-4.46c-0.04-3.2-0.01-6.41-0.01-10.12
	C302.3,182.38,305.52,182.36,308.74,182.38z M275.31,145.6c2.63,0.02,4.47-0.96,4.41-3.84c-0.05-2.67-1.88-3.62-4.29-3.64
	c-4.37-0.03-8.74-0.03-13.1-0.01c-3.07,0.01-4.55,1.56-4.51,4.66c0.05,4.24,0.06,8.48-0.01,12.73c-0.04,2.62,0.87,4.59,3.66,4.63
	c2.78,0.04,3.83-1.92,3.84-4.51c0-3.21,0-6.42,0-10.03C268.89,145.59,272.1,145.57,275.31,145.6z M308.99,255.86
	c1.51-0.24,3.62-2.02,3.92-3.44c0.52-2.42-1.44-3.79-3.93-3.81c-4.61-0.05-9.23-0.05-13.84,0c-2.73,0.03-4.12,1.58-4.15,4.26
	c-0.05,4.49-0.06,8.98,0,13.46c0.03,2.41,1.14,4.2,3.75,4.21c2.62,0.01,3.7-1.7,3.7-4.18c0-3.22,0-6.44,0-10.34
	C302.31,256.02,305.72,256.38,308.99,255.86z M275.62,108.83c2.45-0.04,4.14-1.15,4.1-3.8c-0.04-2.66-1.75-3.66-4.21-3.66
	c-4.36,0-8.72,0.03-13.09-0.01c-3.08-0.03-4.62,1.39-4.6,4.51c0.03,4.36,0.03,8.72,0,13.08c-0.02,2.46,0.91,4.25,3.54,4.33
	c2.84,0.08,3.91-1.79,3.93-4.38c0.03-3.21,0.01-6.42,0.01-10.06C269.16,108.84,272.39,108.89,275.62,108.83z M275.67,219.16
	c2.27-0.02,3.93-0.95,4.06-3.43c0.14-2.66-1.51-3.91-3.94-3.97c-4.61-0.11-9.22-0.11-13.83-0.01c-2.88,0.07-4.19,1.73-4.14,4.62
	c0.07,4.11,0.07,8.23,0,12.34c-0.05,2.66,0.59,5.01,3.63,5.04c3.24,0.03,3.94-2.43,3.89-5.23c-0.05-2.96-0.01-5.93-0.01-9.36
	C269.01,219.16,272.34,219.19,275.67,219.16z M275.05,256.03c2.48-0.01,4.58-0.69,4.67-3.62c0.09-2.93-1.9-3.81-4.43-3.83
	c-4.36-0.03-8.71-0.03-13.07,0c-3.09,0.02-4.47,1.62-4.41,4.71c0.08,4.23,0.05,8.46,0.01,12.7c-0.02,2.58,0.86,4.56,3.71,4.54
	c2.82-0.02,3.77-2.01,3.78-4.56c0.02-3.1,0-6.19,0-9.94C268.87,256.04,271.96,256.05,275.05,256.03z M88.63,219.18
	c2.47,0.01,4.24-1.1,4.29-3.63c0.05-2.54-1.72-3.77-4.15-3.81c-4.6-0.07-9.2-0.08-13.79,0.01c-2.68,0.06-4.1,1.64-4.13,4.29
	c-0.06,4.47-0.05,8.95,0,13.42c0.02,2.41,1.13,4.25,3.67,4.3c2.78,0.05,3.82-1.85,3.79-4.47c-0.03-3.2-0.01-6.4-0.01-10.12
	C82,219.17,85.32,219.17,88.63,219.18z M88.47,182.39c2.64,0.02,4.5-1.11,4.43-3.85c-0.06-2.52-1.91-3.61-4.34-3.62
	c-4.35-0.02-8.7-0.01-13.05-0.01c-3.03,0-4.64,1.51-4.67,4.55c-0.04,4.35-0.03,8.7,0,13.05c0.02,2.58,1.16,4.54,3.89,4.45
	c2.75-0.09,3.65-2.11,3.59-4.7c-0.07-3.09-0.02-6.18-0.02-9.89C82.06,182.38,85.27,182.36,88.47,182.39z M88.39,108.85
	c2.63,0.01,4.54-1.11,4.51-3.84c-0.03-2.5-1.78-3.66-4.29-3.65c-4.49,0.03-8.99,0.01-13.48,0.01c-2.76,0-4.2,1.52-4.26,4.15
	c-0.1,4.61-0.11,9.23,0.01,13.85c0.06,2.45,1.39,4.07,4.01,3.91c2.42-0.15,3.42-1.76,3.42-4.08c0-3.23,0-6.47,0-10.35
	C81.96,108.85,85.18,108.84,88.39,108.85z M88.41,145.6c2.65,0.04,4.51-1.08,4.49-3.8c-0.02-2.49-1.81-3.68-4.27-3.69
	c-4.48-0.02-8.96-0.03-13.43,0.01c-2.68,0.02-4.25,1.45-4.32,4.1c-0.12,4.6-0.09,9.2-0.02,13.8c0.04,2.44,1.28,4.18,3.83,4.11
	c2.53-0.06,3.65-1.77,3.62-4.27c-0.03-3.22-0.01-6.44-0.01-10.28C81.99,145.59,85.2,145.55,88.41,145.6z M121.82,182.38
	c2.44,0,4.22-0.95,4.28-3.6c0.06-2.63-1.67-3.8-4.09-3.84c-4.48-0.08-8.97-0.06-13.46-0.02c-2.86,0.03-4.37,1.47-4.37,4.4
	c0.01,4.36,0.03,8.72-0.01,13.08c-0.02,2.61,0.95,4.58,3.74,4.56c2.78-0.03,3.73-2.09,3.75-4.63c0.01-3.1,0-6.21,0-9.96
	C115.39,182.38,118.61,182.37,121.82,182.38z M88.82,256.01c2.47-0.05,4.46-1.4,3.97-3.81c-0.29-1.4-2.43-3.29-3.89-3.44
	c-4.57-0.45-9.21-0.21-13.82-0.16c-2.71,0.03-4.18,1.52-4.22,4.19c-0.07,4.49-0.06,8.98,0,13.46c0.03,2.39,1.07,4.25,3.69,4.28
	c2.87,0.04,3.8-1.89,3.78-4.48c-0.02-3.1-0.01-6.2-0.01-10.04C82.14,256.02,85.48,256.07,88.82,256.01z M121.7,219.18
	c2.38,0,4.29-0.8,4.4-3.48c0.12-2.88-1.81-3.92-4.35-3.96c-4.36-0.07-8.72-0.04-13.08-0.01c-3.06,0.02-4.54,1.58-4.5,4.67
	c0.05,4.11,0.05,8.22-0.01,12.33c-0.04,2.63,0.55,5.02,3.62,5.04c3.27,0.02,3.9-2.5,3.88-5.24c-0.02-2.96,0-5.92,0-9.34
	C115.28,219.18,118.49,219.18,121.7,219.18z M121.76,145.59c2.45,0.02,4.25-0.92,4.33-3.55c0.08-2.84-1.81-3.9-4.39-3.92
	c-4.24-0.03-8.48,0.02-12.72-0.02c-3.24-0.03-4.85,1.43-4.81,4.74c0.05,4.24,0.04,8.48,0,12.72c-0.03,2.6,0.9,4.59,3.71,4.58
	c2.8,0,3.76-2.05,3.77-4.6c0.02-3.11,0-6.22,0-9.95C115.33,145.59,118.55,145.57,121.76,145.59z M121.26,108.86
	c2.67,0.02,4.85-0.76,4.82-3.85c-0.03-2.87-2.06-3.67-4.61-3.65c-4.23,0.04-8.47,0.05-12.7,0c-3.11-0.04-4.6,1.42-4.59,4.52
	c0.02,4.23,0.03,8.47-0.01,12.7c-0.02,2.51,0.64,4.63,3.55,4.71c3.1,0.08,3.92-2.12,3.94-4.77c0.02-3.08,0-6.17,0-9.66
	C115.1,108.85,118.18,108.83,121.26,108.86z M121.67,256.02c2.54-0.03,4.5-0.97,4.44-3.86c-0.06-2.68-1.95-3.56-4.32-3.58
	c-4.35-0.04-8.71-0.02-13.07-0.01c-3.05,0-4.58,1.46-4.54,4.58c0.05,4.23,0.03,8.46,0,12.69c-0.02,2.52,0.68,4.64,3.56,4.69
	c3.08,0.06,3.9-2.16,3.92-4.8c0.02-3.08,0.01-6.16,0.01-9.7C115.46,256.03,118.56,256.07,121.67,256.02z M224.34,167.65
	c0,15.84,0.01,31.69-0.01,47.53c0,4.71-1.03,5.79-5.64,5.8c-17.97,0.03-35.94,0.03-53.91,0c-4.39-0.01-5.6-1.22-5.61-5.54
	c-0.02-31.94-0.02-63.88,0-95.81c0-4.13,1.26-5.39,5.35-5.4c18.09-0.03,36.19-0.03,54.28,0c4.45,0.01,5.52,1.08,5.52,5.52
	C224.35,135.71,224.34,151.68,224.34,167.65z M187.9,188.39c0-5.82,0-11.24,0-16.85c-7.12,0-14.02,0-21.08,0c0,5.7,0,11.14,0,16.85
	C173.84,188.39,180.74,188.39,187.9,188.39z M216.62,171.49c-7.01,0-13.8,0-20.77,0c0,5.74,0,11.26,0,16.97c7.02,0,13.81,0,20.77,0
	C216.62,182.72,216.62,177.19,216.62,171.49z M187.8,138.85c0-5.95,0-11.45,0-16.93c-7.13,0-13.93,0-20.89,0c0,5.74,0,11.25,0,16.93
	C173.98,138.85,180.79,138.85,187.8,138.85z M166.98,196.34c0,5.92,0,11.42,0,16.81c7.21,0,14.08,0,20.9,0c0-5.78,0-11.2,0-16.81
	C180.83,196.34,174.03,196.34,166.98,196.34z M166.89,146.71c0,5.8,0,11.23,0,16.77c7.13,0,14.03,0,21,0c0-5.72,0-11.14,0-16.77
	C180.84,146.71,174.04,146.71,166.89,146.71z M195.88,196.32c0,5.82,0,11.33,0,16.96c7.04,0,13.81,0,20.71,0c0-5.76,0-11.28,0-16.96
	C209.65,196.32,202.97,196.32,195.88,196.32z M216.66,121.93c-7.11,0-13.89,0-20.78,0c0,5.75,0,11.26,0,16.86
	c7.04,0,13.82,0,20.78,0C216.66,133.14,216.66,127.71,216.66,121.93z M216.67,146.78c-7.25,0-14.02,0-20.74,0c0,5.8,0,11.31,0,16.73
	c7.09,0,13.85,0,20.74,0C216.67,157.81,216.67,152.4,216.67,146.78z M192.19,66.93c9.11,0,18.22-0.02,27.33,0.01
	c4.12,0.01,5.27,1.18,5.32,5.37c0.04,3.87,0.01,7.74,0.01,11.6c0,3.17-1.41,4.84-4.76,4.83c-18.72-0.04-37.44-0.04-56.16,0
	c-3.34,0.01-4.76-1.64-4.76-4.83c0.01-3.87-0.04-7.74,0.01-11.6c0.05-4.2,1.18-5.36,5.31-5.37
	C173.72,66.91,182.96,66.93,192.19,66.93z M166.75,80.92c17.03,0,33.72,0,50.4,0c0-2.26,0-4.2,0-6.2c-16.91,0-33.61,0-50.4,0
	C166.75,76.88,166.75,78.73,166.75,80.92z M339.32,112.72c-0.12,1.5,0.69,3.79,1.87,4.56c5.53,3.56,11.32,6.71,17.01,10.02
	c2.24,1.3,4.44,1.4,5.77-1.07c1.29-2.4,0.12-4.21-2.16-5.51c-5.51-3.12-10.97-6.34-16.47-9.49c-0.74-0.42-1.57-0.69-3-1.31
	C341.36,110.77,339.4,111.67,339.32,112.72z M364.06,147.84c0.08-1.51-0.78-3.81-1.99-4.52c-5.45-3.22-11.17-5.99-16.78-8.94
	c-2.4-1.26-4.66-1.45-6.01,1.32c-1.29,2.65,0.39,4.19,2.56,5.32c5.4,2.82,10.8,5.63,16.22,8.42c0.76,0.39,1.6,0.65,3.04,1.22
	C362.06,149.82,364.01,148.88,364.06,147.84z M339.22,160.33c-0.1,1.44,1.03,3.76,2.28,4.36c5.7,2.76,11.61,5.08,17.47,7.48
	c2.26,0.92,4.32,0.47,5.21-1.99c0.88-2.41-0.31-4.06-2.58-5.01c-4.7-1.97-9.39-3.95-14.09-5.92c-1.49-0.62-2.99-1.2-5.19-2.07
	C341.31,158.13,339.3,159.16,339.22,160.33z M339.16,183.67c-0.02,1.45,1.23,3.71,2.51,4.26c5.71,2.44,11.57,4.6,17.52,6.38
	c1.37,0.41,4.04-0.61,4.81-1.81c1.31-2.03,0.15-4.09-2.25-4.99c-4.89-1.84-9.81-3.61-14.71-5.41c-1.39-0.51-2.79-1.02-4.88-1.77
	C341.15,181.38,339.18,182.51,339.16,183.67z M339.13,206.24c0.08,1.46,1.41,3.57,2.74,4.14c5.47,2.33,11.14,4.21,16.75,6.18
	c2.33,0.82,4.61,0.74,5.57-1.98c0.93-2.65-0.59-4.22-3-5.09c-5.49-1.97-10.97-3.96-16.46-5.91c-0.69-0.25-1.44-0.34-2.95-0.7
	C340.95,203.85,339.06,205.1,339.13,206.24z M339.13,229.53c-0.11,1.31,1.14,3.58,2.31,3.99c5.96,2.12,12.07,3.84,18.17,5.54
	c2.14,0.6,4.04-0.14,4.66-2.53c0.61-2.31-0.47-3.91-2.67-4.61c-4.26-1.35-8.55-2.61-12.84-3.88c-2.02-0.6-4.05-1.14-6.81-1.92
	C341.05,227.14,339.24,228.27,339.13,229.53z M339.18,253.06c-0.03,1.43,1.28,3.83,2.48,4.17c6.09,1.72,12.29,3.09,18.54,4.1
	c1.21,0.2,3.45-1.51,3.93-2.81c0.37-1.01-0.98-3.73-2.03-4.02c-6.34-1.75-12.81-3.02-20-4.62
	C341.17,250.81,339.2,251.92,339.18,253.06z M40.35,110.45c-6.57,3.76-13.19,7.43-19.58,11.48c-0.84,0.54-1.02,3.35-0.41,4.55
	c0.48,0.93,3.09,1.8,4.02,1.3c6.58-3.48,13.03-7.22,19.35-11.14c0.86-0.54,1.32-2.73,1-3.89c-0.31-1.14-1.85-1.94-2.49-2.55
	C41.08,110.34,40.65,110.28,40.35,110.45z M24.7,150.03c6.29-3.26,12.64-6.41,18.76-9.97c0.96-0.56,1.66-3.5,1.06-4.35
	c-0.81-1.15-3.42-2.29-4.49-1.79c-6.42,2.98-12.69,6.3-18.83,9.84c-0.96,0.55-1.51,2.86-1.26,4.16c0.21,1.09,1.87,1.91,2.6,2.58
	C23.74,150.25,24.27,150.25,24.7,150.03z M43.67,163.95c0.84-0.41,1.4-3.06,0.91-4.13c-0.51-1.09-2.81-2.42-3.74-2.07
	c-6.73,2.53-13.38,5.34-19.88,8.41c-0.85,0.4-1.27,2.94-0.93,4.23c0.29,1.08,1.99,1.78,3.12,2.7
	C30.33,169.95,37.09,167.14,43.67,163.95z M20.89,188.46c-0.8,0.35-1.33,3.12-0.81,4.2c0.52,1.08,2.8,2.31,3.82,1.98
	c6.5-2.1,12.92-4.48,19.23-7.13c1.01-0.42,1.92-2.72,1.71-3.96c-0.2-1.22-1.87-2.2-3-3.39C34.48,183.02,27.6,185.54,20.89,188.46z
	 M43.73,209.44c0.79-0.34,1.34-3.07,0.83-4.13c-0.52-1.07-2.76-2.3-3.78-1.98c-6.5,2.03-12.93,4.33-19.24,6.9
	c-0.99,0.4-1.88,2.71-1.68,3.95c0.19,1.21,1.84,2.19,2.97,3.4C30.15,214.79,37.02,212.31,43.73,209.44z M43.26,233.14
	c0.93-0.34,1.93-2.98,1.51-3.94c-0.54-1.23-2.74-2.83-3.8-2.57c-6.5,1.6-12.93,3.53-19.24,5.76c-1.03,0.37-1.97,2.81-1.82,4.18
	c0.12,1.14,1.9,2.1,2.92,3.12C30.06,237.43,36.74,235.48,43.26,233.14z M22.05,254.45c-1.1,0.31-2.31,2.96-2.11,4.33
	c0.15,1.07,2.58,2.75,3.73,2.56c6.24-1.03,12.46-2.37,18.55-4.06c1.24-0.35,2.72-2.72,2.64-4.08c-0.07-1.26-2.08-2.41-2.95-3.32
	C34.62,251.49,28.26,252.7,22.05,254.45z M192.02,344.42c-21.67,0.01-39.6-18-39.42-39.57c0.19-21.64,17.83-39.21,39.39-39.22
	c21.67-0.02,39.59,17.98,39.42,39.58C231.23,326.84,213.58,344.41,192.02,344.42z M223.92,304.87
	c-0.16-17.58-14.64-31.92-32.07-31.76c-17.57,0.16-31.93,14.66-31.76,32.07c0.17,17.57,14.65,31.91,32.07,31.76
	C209.74,336.78,224.08,322.3,223.92,304.87z"/>
</svg>
