<?xml version="1.0" encoding="utf-8"?>
<!-- Generator: Adobe Illustrator 28.1.0, SVG Export Plug-In . SVG Version: 6.00 Build 0)  -->
<svg version="1.1" id="Layer_1" xmlns="http://www.w3.org/2000/svg" xmlns:xlink="http://www.w3.org/1999/xlink" x="0px" y="0px"
	 viewBox="0 0 384 384" style="enable-background:new 0 0 384 384;" xml:space="preserve">
<path fill="#c0b561" d="M0.39,189.04c1.65-3.19,4.25-4.31,7.75-3.78c11.7,1.79,23.42,3.44,35.1,5.33c3.64,0.59,5.61,3.62,4.92,6.71
	c-0.71,3.17-3.57,4.86-7.24,4.23c-8.43-1.45-16.85-2.92-25.99-4.51c3.99,9.12,7.47,17.51,11.34,25.7c1.8,3.81,1.92,7.1,0.07,10.96
	c-3.71,7.75-6.97,15.71-10.41,23.58c-0.48,1.11-0.93,2.24-1.45,3.51c13.37,2.34,26.44,4.63,40.01,7c0-5.05,0-10.12,0-15.2
	c0-4.87,0.09-9.73-0.03-14.59c-0.08-3.12,1.01-5.41,3.45-7.43c8.53-7.07,18.04-12.38,29.52-16.54c-6.27-1.94-11.51-3.58-16.76-5.2
	c-1.55-0.48-3.14-0.82-4.65-1.38c-3.28-1.21-4.85-4.13-3.89-7.04c0.99-2.99,3.87-4.57,7.21-3.62c5.75,1.62,11.49,3.32,17.16,5.21
	c6.61,2.21,13.12,4.73,19.72,6.97c3.47,1.18,4.93,3.45,4.91,7.02c-0.06,8.98,0.05,17.96-0.06,26.94c-0.03,2.34,0.48,3.41,3.05,4
	c52.04,12.04,104.03,12,156.05-0.12c2.16-0.5,2.81-1.31,2.79-3.45c-0.1-8.98,0.06-17.96-0.09-26.94c-0.06-3.92,1.46-6.19,5.17-7.59
	c30.78-11.68,62.44-19.73,95.18-23.37c1.24-0.14,2.49-0.23,3.73-0.26c5.27-0.14,7.91,3.48,5.84,8.32
	c-4.46,10.42-8.99,20.81-13.71,31.11c-1.22,2.65-1.11,4.77,0.07,7.37c4.45,9.74,8.68,19.58,12.97,29.4
	c2.83,6.48,1.28,9.31-5.63,10.23c-3.95,0.52-7.91,1.03-11.89,1.34c-3.78,0.29-6.09-1.49-6.47-4.65c-0.41-3.38,1.46-5.68,5.31-6.39
	c1.92-0.35,3.88-0.54,6.28-0.87c-3.82-8.71-7.14-17.15-11.19-25.22c-2.65-5.29-2.7-9.83,0-15.12c3.78-7.41,6.79-15.21,10.37-23.37
	c-24.73,3.02-48.33,8.64-70.88,16.27c7.47,4.23,15.09,8.6,22.77,12.88c6.66,3.71,9.52,8.94,8.79,16.85
	c-0.73,8.01-0.16,16.14-0.16,24.68c2.74-0.53,5.01-0.98,7.29-1.4c3.68-0.69,6.55,0.94,7.23,4.09c0.69,3.15-1.15,5.77-4.86,6.75
	c-2.29,0.6-4.6,1.15-6.93,1.55c-2.09,0.37-2.82,1.39-2.79,3.55c0.12,8.86-0.07,17.72,0.09,26.57c0.08,4.19-1.5,6.59-5.53,8.13
	c-44.51,16.97-90.45,25.96-138.17,25.1c-43.7-0.79-85.76-9.88-126.51-25.44c-3.39-1.29-4.78-3.62-4.75-7.17
	c0.07-9.85,0.03-19.69,0.03-30.13c-7.45-1.52-14.81-3.22-22.24-4.47c-8.35-1.41-16.76-2.54-25.17-3.5
	c-3.02-0.34-5.15-1.52-6.68-4.02c0-1.25,0-2.5,0-3.74c3.2-6.99,6.44-13.97,9.58-20.98c2.13-4.77,5.74-9.61,5.73-14.41
	c-0.02-4.94-3.54-9.91-5.7-14.78c-3.12-7.02-6.39-13.96-9.6-20.94C0.39,191.53,0.39,190.28,0.39,189.04z M65.74,295.07
	c0,3.78-0.2,6.91,0.11,9.99c0.11,1.12,1.24,2.69,2.28,3.08c32.86,12.35,66.77,19.97,101.82,22.36c24.11,1.65,48.11,0.55,72-3.01
	c25.35-3.77,49.98-10.31,73.95-19.32c0.88-0.33,2.08-1.32,2.13-2.07c0.23-3.53,0.1-7.09,0.1-11.01c-1.79,0.59-2.93,1-4.11,1.34
	c-15.55,4.46-31.08,8.98-46.67,13.31c-3.56,0.99-6.5-0.99-7.14-4.17c-0.61-3.02,1.17-5.59,4.61-6.6c0.84-0.25,1.7-0.39,2.54-0.64
	c16.1-4.78,32.21-9.54,48.29-14.4c0.92-0.28,2.3-1.23,2.33-1.93c0.22-4.01,0.11-8.04,0.11-12.32c-1.16,0.36-1.64,0.48-2.1,0.65
	c-23.98,8.61-48.54,14.96-73.77,18.62c-3.77,0.55-6.44-1.13-7.04-4.41c-0.6-3.29,1.25-5.8,5.03-6.53c4.16-0.8,8.35-1.4,12.52-2.15
	c21.39-3.84,42.22-9.71,62.58-17.26c1.04-0.39,2.61-1.3,2.66-2.06c0.27-4,0.12-8.03,0.12-12.4
	c-84.45,30.64-168.25,30.65-252.01,0.09c-1.62,13.06-1.62,13.06,9.99,17.1c0.35,0.12,0.72,0.22,1.07,0.34
	c21.59,7.51,43.72,12.8,66.31,16.29c4.03,0.62,5.9,3.25,5.25,6.71c-0.6,3.19-3.32,4.81-7.14,4.25c-24.48-3.6-48.35-9.63-71.66-17.9
	c-1.24-0.44-2.5-0.82-4.18-1.36c0,3.65,0.2,6.77-0.06,9.84c-0.23,2.76,0.85,4.01,3.4,4.75c16.37,4.75,32.7,9.63,49.06,14.41
	c4.22,1.23,6.34,3.75,5.56,7c-0.81,3.38-3.73,4.99-7.97,3.91c-10.61-2.71-21.21-5.49-31.75-8.49
	C78.03,299.4,72.22,297.23,65.74,295.07z M99.64,222.12c-9.86,2.64-19.14,6.09-28.06,12.39c9.75,3.08,18.72,5.92,28.06,8.88
	C99.64,235.98,99.64,229.21,99.64,222.12z M312.3,234.41c-8.92-6.15-18.17-9.72-27.95-12.25c0,7.09,0,13.87,0,21.01
	c3.18-0.91,6.06-1.65,8.88-2.55C299.38,238.67,305.5,236.63,312.3,234.41z M0.39,108.19c2.06-5.76,6.41-8.49,12.21-9.64
	c5.61-1.12,11.21-2.4,16.7-4.02c1.91-0.56,3.96-2.02,5.07-3.66c3.7-5.46,6.95-11.23,10.47-16.82c5.35-8.5,15.27-8.51,20.68-0.02
	c3.35,5.25,6.64,10.55,9.76,15.94c1.09,1.88,2.25,2.05,4.23,1.76c5.13-0.75,8.66-3.06,11.19-7.86c3.65-6.93,8.06-13.47,12.22-20.12
	c6.08-9.71,17.59-9.73,23.73,0c4.52,7.17,9,14.37,13.26,21.69c1.41,2.42,2.84,2.41,5.41,2.18c8.67-0.79,13.9-5.28,17.8-12.93
	c4.35-8.52,9.86-16.45,14.94-24.59c7.06-11.32,20.63-11.37,27.71-0.07c6.61,10.56,13,21.27,19.69,31.78c1,1.57,2.93,2.97,4.72,3.53
	c3.9,1.21,8.58,3.42,11.81,2.2c2.99-1.13,4.56-6.14,6.68-9.5c3.05-4.85,5.94-9.81,9.05-14.62c5.97-9.27,17.43-9.21,23.31,0.13
	c4.98,7.91,9.8,15.92,14.71,23.87c1.25,2.03,8.99,5.35,11.14,4.58c0.79-0.28,1.41-1.3,1.92-2.11c3.17-5.07,6.27-10.19,9.43-15.27
	c5.7-9.17,15.61-9.24,21.27-0.15c3.36,5.39,6.79,10.75,9.93,16.27c1.37,2.42,3.19,3.47,5.79,4.04c6.08,1.32,12.13,2.83,18.16,4.37
	c10.34,2.65,13.37,11.86,6.6,20c-4.07,4.89-8.38,9.59-12.27,14.61c-1.23,1.58-2.09,3.94-2.04,5.91c0.15,6.1,0.78,12.19,1.31,18.28
	c1.05,11.94-6.95,17.82-17.99,13.22c-5.63-2.35-11.33-4.54-16.9-7.02c-2.24-1-4.12-1.07-6.32,0c-3.01,1.47-6.16,2.62-9.38,3.97
	c0.18,2.15,0.43,4.12,0.51,6.1c0.42,10.28-8.83,17.07-18.41,13.35c-8.82-3.43-17.48-7.25-26.3-10.67c-1.63-0.63-3.86-0.65-5.52-0.08
	c-4.35,1.48-8.49,3.59-12.81,5.15c-2.23,0.81-2.73,1.98-2.4,4.18c0.39,2.58,0.52,5.22,0.54,7.83c0.1,11.19-10.37,18.83-20.81,14.89
	c-9.78-3.7-19.39-7.85-29.03-11.91c-3.59-1.51-4.83-4.44-3.53-7.49c1.32-3.08,4.23-4.22,7.8-2.78c8.32,3.35,16.59,6.81,24.88,10.22
	c1.03,0.43,2.07,0.87,3.14,1.19c4.4,1.31,6.57-0.26,6.29-4.82c-0.53-8.59-1.25-17.16-1.9-25.74c-0.4-5.35-1.11-10.69-1.07-16.04
	c0.02-2.37,0.96-5.19,2.45-7.01c8.46-10.31,17.23-20.38,25.88-30.54c3.88-4.56,2.93-7.55-2.9-8.98c-13.06-3.2-26.17-6.22-39.18-9.64
	c-2.26-0.59-4.75-2.39-6.01-4.35c-7.2-11.22-14.04-22.67-21.05-34.02c-3.44-5.58-6.49-5.61-9.88-0.12c-7,11.35-13.84,22.8-21.07,34
	c-1.32,2.04-3.93,3.89-6.3,4.51c-12.4,3.28-24.91,6.14-37.37,9.14c-0.97,0.23-1.95,0.44-2.89,0.77c-4.37,1.55-5.19,4.38-2.19,7.94
	c6.75,8.01,13.18,16.34,20.47,23.83c6.63,6.81,9.8,13.78,8.12,23.61c-1.78,10.4-1.86,21.1-2.58,31.67
	c-0.39,5.76,2.17,7.54,7.54,5.34c8.64-3.55,17.25-7.16,25.89-10.71c4.16-1.71,7.18-0.82,8.58,2.39c1.46,3.34-0.08,6.18-4.44,8
	c-8.85,3.69-17.69,7.41-26.58,10.99c-12.01,4.83-22.81-2.88-22.26-15.81c0.02-0.5,0.06-1,0.09-1.49c0.42-8.17,0.19-7.72-6.97-11.41
	c-7.12-3.67-13.47-3.85-20.56,0.05c-5.64,3.1-11.9,5.08-17.9,7.5c-10.92,4.4-20.69-2.88-19.17-14.55c0.48-3.7-0.86-4.91-3.94-6.53
	c-5.85-3.1-11.04-3.03-16.77,0.14c-4.11,2.27-8.68,3.75-13.08,5.48c-9.25,3.63-17.39-2.44-16.66-12.39
	c0.49-6.72,1.17-13.42,1.47-20.14c0.07-1.64-0.61-3.65-1.63-4.95c-3.62-4.61-7.64-8.89-11.28-13.48c-1.98-2.5-3.48-5.38-5.2-8.09
	C0.39,111.19,0.39,109.69,0.39,108.19z M250.41,171.3c5.09-2.09,9.85-3.88,14.46-5.99c3.08-1.41,5.88-1.33,8.96-0.01
	c9.04,3.86,18.15,7.57,27.25,11.3c3.79,1.55,4.83,0.8,4.53-3.19c-0.76-9.94-1.45-19.89-2.4-29.81c-0.3-3.13,0.49-5.51,2.51-7.84
	c6.39-7.33,12.65-14.77,18.96-22.17c3.25-3.8,2.93-4.87-1.9-6.05c-9.19-2.24-18.35-4.62-27.6-6.58c-3.78-0.8-6.13-2.7-8.03-5.92
	c-4.94-8.36-10.1-16.6-15.2-24.87c-1.09-1.77-2.55-3.94-4.41-1.11c-4.67,7.13-9.01,14.46-13.71,22.09
	c4.48,1.07,8.33,1.98,12.18,2.92c13.65,3.35,17.85,16.21,8.76,26.97c-7.96,9.43-16.02,18.77-23.96,28.22
	c-0.89,1.06-1.83,2.57-1.77,3.83C249.3,159.03,249.9,164.96,250.41,171.3z M133.52,171.14c0.51-6.09,1.13-11.79,1.39-17.5
	c0.06-1.4-0.72-3.11-1.65-4.23c-8.16-9.75-16.46-19.37-24.65-29.1c-1.26-1.5-2.46-3.2-3.18-5c-3.45-8.66,1.19-17.75,10.54-20.6
	c4.59-1.4,9.29-2.43,14.27-3.71c-4.44-7.21-8.57-14.01-12.79-20.76c-2.18-3.48-3.24-3.42-5.48,0.21
	c-5.24,8.47-10.52,16.93-15.62,25.48c-1.6,2.68-3.68,4.12-6.68,4.81c-9.71,2.21-19.38,4.56-29.05,6.95
	c-3.95,0.98-4.29,2.15-1.67,5.25c6.53,7.7,13.2,15.28,19.56,23.11c1.36,1.68,2.46,4.24,2.36,6.33c-0.52,10.2-1.47,20.38-2.32,30.56
	c-0.37,4.41,0.62,5.19,4.82,3.47c9.21-3.77,18.35-7.74,27.66-11.24c2.19-0.83,5.15-0.75,7.42-0.02
	C123.53,166.75,128.36,169.03,133.52,171.14z M318.89,95.04c2.91,0.73,5.21,1.28,7.49,1.89c11.87,3.15,15.32,13.88,7.44,23.18
	c-5.8,6.84-11.65,13.64-17.43,20.51c-0.76,0.91-1.71,2.09-1.69,3.14c0.07,4.06,0.49,8.12,0.78,12.09c0.54,0.06,0.67,0.12,0.78,0.08
	c0.7-0.24,1.48-0.37,2.09-0.76c7.28-4.63,14.49-4.16,21.68,0.18c0.42,0.25,0.91,0.4,1.37,0.59c4.69,1.91,9.38,3.82,14.56,5.92
	c-0.63-8.43-1.03-16.25-1.88-24.03c-0.39-3.54,0.48-6.2,2.81-8.82c5.27-5.94,10.32-12.07,15.78-18.51
	c-8.62-2.1-16.76-3.9-24.77-6.14c-2.05-0.57-4.25-2.18-5.44-3.95c-4.18-6.19-7.94-12.66-11.88-19c-0.48-0.77-1.11-1.44-1.85-2.4
	C325.37,84.48,322.27,89.54,318.89,95.04z M11.44,110.45c5.39,6.33,10.27,12.31,15.44,18.02c2.74,3.03,3.63,6.14,3.15,10.2
	c-0.89,7.48-1.23,15.02-1.83,23.05c1.7-0.62,2.86-1,3.98-1.46c6.22-2.55,12.48-5,18.61-7.74c3.11-1.39,5.93-1.38,8.95,0.02
	c2.77,1.29,5.64,2.37,8.87,3.7c0.26-3.35,0.27-6.23,0.77-9.02c0.59-3.27-0.53-5.62-2.66-8.02c-5.79-6.52-11.43-13.19-17.01-19.9
	c-7.18-8.65-3.48-19.63,7.41-22.3c2.58-0.63,5.15-1.3,8.13-2.05c-3.47-5.63-6.62-10.73-10.05-16.3
	c-4.31,7.02-8.46,13.38-12.18,19.97c-2.08,3.69-4.88,5.61-8.96,6.46C26.66,106.63,19.33,108.56,11.44,110.45z"/>
</svg>
