<?xml version="1.0" encoding="utf-8"?>
<!-- Generator: Adobe Illustrator 28.1.0, SVG Export Plug-In . SVG Version: 6.00 Build 0)  -->
<svg version="1.1" id="Layer_1" xmlns="http://www.w3.org/2000/svg" xmlns:xlink="http://www.w3.org/1999/xlink" x="0px" y="0px"
	 viewBox="0 0 384 384" style="enable-background:new 0 0 384 384;" xml:space="preserve">
<path fill="#c0b561" d="M189.95,383.63c-7.13-3.99-14.21-8.06-21.39-11.96c-17.72-9.65-35.85-18.6-51.75-31.29
	c-43.61-34.82-70.16-79.66-78.77-134.82c-1.72-11.04-2.24-22.33-2.44-33.52c-0.38-20.7-0.11-41.41-0.1-62.12
	c0-1.25-0.04-2.51,0.15-3.73c0.43-2.85,2.28-4.45,5.04-4.66c2.8-0.21,4.86,1.19,5.6,3.95c0.41,1.53,0.41,3.2,0.41,4.81
	c0.09,24.2-0.72,48.44,0.41,72.59c2.63,56.18,25.55,103.05,67.17,140.84c16.98,15.42,36.99,26.11,57.07,36.7
	c6.28,3.31,12.48,6.78,18.8,10.02c1.03,0.53,2.76,0.77,3.67,0.26c20.18-11.37,41.36-21.34,60.18-34.63
	c45.43-32.09,72.28-76.55,81.11-131.54c1.73-10.78,2.32-21.83,2.43-32.77c0.31-31.18,0.11-62.37,0.11-93.55
	c0-7.11-1.33-8.16-8.59-8.46c-7.94-0.33-16.15-0.02-23.75-1.96c-25.27-6.44-40.68-22.98-46.43-48.41c-1.57-6.96-2.34-7.77-9.4-7.77
	c-38.3,0-76.59,0-114.89,0c-6.62,0-7.81,0.97-9.04,7.3c-5.73,29.65-30.45,50.35-60.81,50.89c-3.99,0.07-7.99-0.05-11.97,0.05
	c-4.02,0.1-5.84,1.98-6.06,6.01c-0.12,2.11,0.4,4.54-0.49,6.25c-0.94,1.81-3.15,3.96-4.91,4.06c-1.77,0.09-4.62-1.76-5.34-3.46
	c-2.79-6.63,0.05-16.63,6.13-20.51c3.17-2.03,7.3-3.04,11.11-3.46c6.79-0.76,13.81,0.05,20.49-1.16
	c21.15-3.83,36.26-19.14,40.68-40.27c0.2-0.98,0.43-1.95,0.64-2.92c1.84-8.56,8.24-13.94,16.97-13.95
	c40.04-0.04,80.08-0.04,120.13,0c8.95,0.01,15.51,5.3,17.16,14.13c2.17,11.61,6.84,21.85,15.52,30.01
	c10.1,9.5,22.23,13.96,36.03,14.04c3.87,0.02,7.74-0.08,11.6,0.04c9.17,0.27,16.03,6.92,16.34,16.12c0.25,7.1,0.1,14.22,0.09,21.33
	c-0.03,27.82,0.56,55.65-0.25,83.45c-1.7,58.09-24.07,107.27-65.75,147.7c-17.65,17.12-38.45,29.58-60.13,40.77
	c-8.52,4.4-16.92,9.05-25.36,13.61c-1.05,0.57-1.98,1.35-2.97,2.04C192.95,383.63,191.45,383.63,189.95,383.63z M290.22,167.86
	c7.79-7.85,7.8-17.62,0.06-25.47c-5.17-5.24-10.25-10.58-15.68-15.54c-2.32-2.12-5.34-4.59-8.18-4.77
	c-5.3-0.35-8.24-3.47-11.42-6.75c-0.61-0.63-1.28-1.2-1.85-1.86c-2.39-2.77-5.18-3.55-8.7-2.21c-4.19,1.59-8.46,2.99-12.74,4.29
	c-1.19,0.36-2.66,0.33-3.88,0.02c-6.15-1.55-10.54-5.02-12.5-11.34c-0.73-2.35-2.22-4.45-3.27-6.71c-1.37-2.95-3.64-4.22-6.85-4.2
	c-8.61,0.05-17.22,0.07-25.82-0.01c-3.37-0.03-5.69,1.28-7.15,4.35c-1.93,4.05-3.97,8.04-6,12.04c-1.84,3.61-10.23,6.99-14.09,5.71
	c-4.25-1.42-8.53-2.75-12.75-4.28c-2.93-1.06-5.32-0.52-7.49,1.67c-6.32,6.38-12.68,12.72-19.04,19.06c-2.06,2.06-2.6,4.36-1.6,7.16
	c1.6,4.45,3.1,8.95,4.46,13.48c0.36,1.2,0.33,2.65,0.03,3.88c-1.53,6.17-5.05,10.52-11.35,12.5c-2.35,0.74-4.45,2.22-6.71,3.26
	c-2.95,1.37-4.22,3.64-4.2,6.85c0.05,8.61,0.07,17.22-0.01,25.82c-0.03,3.37,1.3,5.69,4.37,7.14c3.83,1.81,7.6,3.73,11.39,5.62
	c4.27,2.13,7.71,10.34,6.23,14.82c-1.41,4.26-2.75,8.54-4.25,12.76c-0.95,2.68-0.41,4.9,1.52,6.84
	c6.43,6.45,12.88,12.88,19.31,19.33c2.06,2.06,4.37,2.59,7.17,1.59c4.22-1.51,8.51-2.83,12.76-4.25c4.08-1.36,12.41,1.99,14.34,5.81
	c1.97,3.89,3.97,7.77,5.83,11.71c1.43,3.03,3.63,4.54,7.05,4.51c8.73-0.07,17.46-0.04,26.2-0.02c3.06,0.01,5.22-1.25,6.57-4.04
	c2.01-4.15,4.11-8.25,6.2-12.36c1.7-3.35,10.21-6.96,13.75-5.82c4.5,1.46,9.01,2.92,13.46,4.51c2.68,0.96,4.91,0.39,6.85-1.54
	c6.46-6.42,12.89-12.87,19.32-19.31c2.06-2.06,2.57-4.39,1.56-7.18c-1.39-3.86-2.44-7.86-3.95-11.68c-1.08-2.74-0.7-5.02,0.21-7.79
	c1.62-4.91,4.52-7.97,9.32-9.68c2.68-0.96,5.11-2.58,7.71-3.77c3.24-1.48,4.55-3.92,4.51-7.44c-0.1-7.86-0.12-15.72,0.01-23.58
	c0.06-3.81-0.29-7.25-5.51-9.52C287.47,169.96,289.01,169.07,290.22,167.86z M217,158.73c-13.16-9-27.29-10.67-42.33-4.26
	c-3.59,1.53-7.47,2.34-11.07,3.85c-2.93,1.23-6.05,2.53-8.35,4.62c-5.81,5.28-11.26,10.96-16.74,16.59
	c-6.92,7.11-6.92,16.99-0.09,24.14c1.89,1.98,3.8,3.97,5.85,5.79c2.41,2.13,5.7,2,7.77-0.09c2.14-2.15,2.25-5.28,0.08-7.76
	c-1.64-1.87-3.53-3.53-5.24-5.34c-3.02-3.2-3.11-6.05-0.09-9.15c5.23-5.36,10.52-10.65,15.88-15.88c3.12-3.05,5.99-3.01,9.13,0.08
	c6.05,5.95,12.01,11.98,18.01,17.98c5.88,5.88,7.35,5.9,13.12,0.12c17.73-17.73,35.46-35.46,53.19-53.19c5-5,7.14-5.01,12.11-0.06
	c4.59,4.58,9.19,9.15,13.75,13.77c3.77,3.82,3.81,6.48,0.09,10.2c-23.54,23.57-47.07,47.14-70.66,70.65
	c-8.71,8.68-20.89,8.71-29.78,0.2c-3.51-3.36-6.86-6.9-10.35-10.29c-3.02-2.95-6.07-3.16-8.56-0.73c-2.47,2.42-2.3,5.59,0.59,8.57
	c3.3,3.4,6.67,6.74,10.05,10.06c13.53,13.27,32.65,13.34,46.13-0.03c18.6-18.45,37.06-37.04,55.62-55.52
	c0.97-0.97,2.35-1.53,3.54-2.28c0.33,1.36,0.93,2.71,0.96,4.07c0.11,5.11,0.19,10.24-0.06,15.34c-0.06,1.28-1.1,2.98-2.2,3.64
	c-3.3,1.98-6.85,3.55-10.3,5.28c-0.78,0.39-1.59,0.73-2.32,1.2c-3.36,2.18-8.89,18.16-7.63,22.01c1.24,3.79,2.7,7.51,3.68,11.36
	c0.32,1.25-0.11,3.22-0.96,4.15c-3.79,4.13-7.78,8.1-11.9,11.91c-0.86,0.79-2.68,1.16-3.85,0.88c-3.14-0.75-6.16-1.97-9.23-3
	c-0.94-0.32-1.88-0.67-2.83-0.96c-4.58-1.39-20.1,5.09-22.28,9.33c-1.82,3.54-3.68,7.08-5.32,10.71c-0.88,1.94-1.95,2.85-4.21,2.78
	c-5.36-0.17-10.74,0.11-16.09-0.17c-1.36-0.07-2.65-1.53-3.95-2.38c-0.18-0.12-0.24-0.43-0.35-0.65
	c-7.04-13.89-7.02-13.96-21.71-19.53c-1.69-0.64-3.95-0.46-5.76,0.02c-3.96,1.05-7.77,2.7-11.73,3.75
	c-1.26,0.33-3.25-0.02-4.17-0.86c-4.14-3.78-8.1-7.78-11.91-11.89c-0.81-0.87-0.76-2.54-1.06-3.86c-0.05-0.2,0.12-0.48,0.25-0.69
	c5.83-10.14,3.94-19.96-1.36-29.55c-0.85-1.53-2.27-2.99-3.79-3.86c-3.66-2.12-7.63-3.71-11.25-5.87c-1.19-0.71-2.37-2.5-2.44-3.86
	c-0.28-5.35-0.27-10.73-0.01-16.08c0.07-1.38,1.48-2.69,2.28-4.02c0.05-0.09,0.21-0.12,0.33-0.16
	c11.22-3.09,16.93-11.28,19.93-21.83c0.51-1.8,0.52-3.97,0.05-5.78c-1.04-3.97-2.46-7.84-3.87-11.69c-0.68-1.86-0.51-3.16,1.02-4.61
	c3.99-3.76,7.7-7.83,11.74-11.53c0.94-0.86,2.88-1.27,4.15-0.97c3.26,0.77,6.39,2.05,9.58,3.12c1.06,0.36,2.11,0.77,3.2,1.04
	c4.14,1.03,19.56-5.96,21.49-9.75c1.81-3.55,3.65-7.09,5.31-10.71c0.82-1.79,1.81-2.67,3.93-2.62c5.48,0.15,10.98-0.09,16.46,0.16
	c1.26,0.06,2.96,1.14,3.61,2.25c2.03,3.42,3.64,7.08,5.44,10.64c0.45,0.89,0.77,2.16,1.51,2.52c5.32,2.62,10.63,5.33,16.17,7.4
	c1.82,0.68,4.36-0.21,6.48-0.75c2.88-0.75,5.77-1.64,8.48-2.87c3.49-1.58,5.9-0.82,7.45,2.29
	C238.71,137.04,227.88,147.86,217,158.73z M208.69,166.83c-4.32,4.29-8.45,8.38-12.37,12.27c-4.68-4.69-9.75-9.77-15.14-15.17
	C190.96,160.53,200.11,161.27,208.69,166.83z M143.49,23.61c-5.33,0-6.6,0.92-8.15,5.8C125.61,60.2,98.8,80.6,66.53,81.78
	c-6.46,0.24-7.77,1.58-7.77,8.11c-0.01,27.57-0.21,55.13,0.1,82.7c0.11,10.19,0.69,20.48,2.33,30.52
	c8.46,51.88,34.03,93.6,76.98,123.8c16.02,11.26,33.94,19.84,51.17,29.34c1.72,0.95,4.96,0.39,6.93-0.59
	c8.58-4.28,16.91-9.04,25.4-13.51c14.85-7.8,28.83-16.88,41.27-28.19c35.29-32.09,55.88-71.88,61.47-119.23
	c1.21-10.24,1-20.66,1.04-31c0.01-1.79-1.68-4.33-3.28-5.15c-1.44-0.73-4.4-0.2-5.67,0.93c-1.33,1.17-1.91,3.69-2.01,5.66
	c-0.45,8.34-0.12,16.74-0.96,25.03c-5.18,51.03-28.21,92.3-68.48,123.98c-15.69,12.34-33.84,20.52-51.19,30.05
	c-1,0.55-2.92,0.22-4.06-0.38c-10.46-5.53-21.09-10.81-31.2-16.93c-55.04-33.33-85.07-82.17-88.27-146.49
	c-1.4-28.12-0.29-56.37-0.39-84.56c-0.01-2.37,0.72-3.12,3.11-3.43c34.15-4.33,57.82-22.53,71.07-54.23
	c1.09-2.62,2.25-3.47,5.06-3.46c28.69,0.11,57.38,0.11,86.07,0c2.84-0.01,3.94,0.91,5.02,3.51c13.03,31.29,36.41,49.41,69.99,54.06
	c3.41,0.47,4.26,1.45,4.21,4.72c-0.17,12.97-0.11,25.94-0.05,38.92c0.02,4.7,2.58,7.25,6.46,6.74c3.19-0.42,4.72-2.55,4.73-6.89
	c0.03-15.47,0.02-30.93,0.01-46.4c-0.01-5.93-1.5-7.42-7.5-7.63c-32.52-1.15-59.28-21.47-69.11-52.47c-1.48-4.67-2.86-5.69-7.86-5.7
	c-16.22-0.01-32.43,0-48.65,0C176.17,23.61,159.83,23.61,143.49,23.61z"/>
</svg>
