<?xml version="1.0" encoding="utf-8"?>
<!-- Generator: Adobe Illustrator 26.0.3, SVG Export Plug-In . SVG Version: 6.00 Build 0)  -->
<svg version="1.1" id="Layer_1" xmlns="http://www.w3.org/2000/svg" xmlns:xlink="http://www.w3.org/1999/xlink" x="0px" y="0px"
	 viewBox="0 0 115 80" enable-background="new 0 0 115 80" xml:space="preserve">
<path fill="#0082F1" d="M98.2,28.6c-0.1-0.2-0.2-0.4-0.4-0.6c-0.2-0.2-0.4-0.3-0.6-0.4c-0.2-0.1-0.5-0.1-0.7,0
	c-2.5,0.6-4.7,1.3-7.2,1.8c-0.3,0.1-0.7,0.1-1,0.3c-0.2,0-0.4,0.1-0.5,0.2c-0.2,0.1-0.3,0.2-0.4,0.4c-0.1,0.2-0.2,0.3-0.2,0.5
	c0,0.2,0,0.4,0,0.5c0.1,0.4,0.3,0.7,0.6,0.8s0.7,0.2,1,0.2c1.1-0.3,2.1-0.5,3.2-0.8L83,41.2l-4.4-10.1c-0.1-0.2-0.3-0.4-0.5-0.5
	c-0.2-0.1-0.5-0.2-0.7-0.2c-0.2,0-0.5,0.1-0.7,0.2c-0.2,0.1-0.4,0.3-0.5,0.5c-4.1,6.3-8.4,12.5-12.6,18.8h-4.4
	c-1.9-3.8-3.8-7.5-5.8-11.1c-0.1-0.2-0.3-0.3-0.5-0.5c-0.2-0.1-0.4-0.2-0.6-0.2c-0.2,0-0.4,0-0.7,0.1c-0.2,0.1-0.4,0.2-0.6,0.3
	c-5.2,6-10.5,12.1-15.7,18.1H27c-2.2-2.1-4.5-4.3-6.6-6.4c-0.1-0.1-0.3-0.2-0.5-0.3c-0.2-0.1-0.4-0.1-0.5-0.1c-0.2,0-0.4,0-0.5,0.1
	c-0.2,0.1-0.3,0.2-0.5,0.3c-3.5,3-6.9,6.1-10.2,9.1c-1.9,1.4,0.1,3.4,1.4,2.1c3.1-2.7,6.2-5.5,9.2-8.2c1.9,1.9,3.8,3.9,5.9,5.6
	c0.9,0.8,1.9,0.6,3,0.6H34c0.9,0.2,1.9,0,2.7-0.6c0.7-0.7,1.4-1.5,2-2.3l8.2-9.4c1.4-1.8,2.9-3.4,4.4-5.1c1.7,3.4,3.4,6.7,5.2,10
	c0.1,0.2,0.3,0.4,0.6,0.5c0.2,0.1,0.5,0.2,0.7,0.2c2.1,0.1,4.1,0.1,6.2,0c1.3-0.1,2-1.7,2.6-2.7c3-4.6,6-9,9-13.6l1.2-1.8l4.2,9.8
	c0.1,0.2,0.3,0.3,0.5,0.5c0.2,0.1,0.4,0.2,0.6,0.2s0.4,0,0.7-0.1c0.2-0.1,0.4-0.2,0.6-0.3L94,33.7c-0.1,0.5-0.3,0.9-0.4,1.4
	c-0.1,0.3-0.2,0.7-0.3,1c-0.1,0.4,0,0.7,0.2,1.1c0.2,0.3,0.5,0.6,0.8,0.7c0.4,0.1,0.7,0,1.1-0.2c0.3-0.2,0.6-0.5,0.7-0.8
	c0.6-2.1,1.3-4.3,1.9-6.5c0.1-0.3,0.2-0.7,0.3-1C98.3,29.1,98.3,28.8,98.2,28.6z"/>
<g>
	<path fill="#000911" d="M91.6,7.5H10.4c-5.9,0-10.6,4.8-10.6,10.6v51.1c0,5.9,4.8,10.6,10.6,10.6h81.2c5.9,0,10.6-4.8,10.6-10.6
		V18.1C102.2,12.2,97.5,7.5,91.6,7.5z M99.2,69.2c0,4.2-3.4,7.6-7.6,7.6H10.4c-4.2,0-7.6-3.4-7.6-7.6V21.1H83c0.4,0,0.7-0.2,0.9-0.5
		c0.2-0.3,0.4-0.6,0.4-1s-0.1-0.7-0.4-1c-0.2-0.3-0.6-0.4-0.9-0.5H2.8v-0.2c0-4.2,3.4-7.6,7.6-7.6h81.2c4.2,0,7.6,3.4,7.6,7.6V69.2z
		"/>
	<path fill="#000911" d="M95.4,66.6H6.5c-0.4,0-0.7,0.2-0.9,0.5c-0.2,0.3-0.4,0.6-0.4,1c0,0.4,0.1,0.7,0.4,1
		c0.2,0.3,0.6,0.4,0.9,0.5h88.9c0.4,0,0.7-0.2,0.9-0.5c0.2-0.3,0.4-0.6,0.4-1c0-0.4-0.1-0.7-0.4-1C96.1,66.8,95.7,66.6,95.4,66.6z"
		/>
	<path fill="#000911" d="M27.8,46.2c0.7,0.3,1.5,0.5,2.4,0.6v2.6h2.1v-2.7c1.4-0.2,2.8-0.8,3.9-1.7c0.5-0.5,0.9-1.1,1.1-1.7
		s0.4-1.3,0.3-2c0-0.7-0.1-1.5-0.4-2.1c-0.3-0.6-0.7-1.1-1.2-1.6c-0.5-0.5-1.1-0.9-1.7-1.3c-0.6-0.3-1.6-0.7-2.6-1.1
		c-0.8-0.4-1.5-0.8-2.2-1.3c-0.2-0.2-0.4-0.4-0.5-0.7C29,32.8,29,32.5,29,32.2c0-0.3,0-0.6,0.1-0.9c0.1-0.3,0.3-0.6,0.5-0.8
		c0.2-0.2,0.5-0.4,0.8-0.5S31,30,31.3,30c0.3,0,0.6,0.1,0.9,0.2c0.3,0.1,0.5,0.4,0.7,0.6c0.5,0.7,0.8,1.6,0.8,2.5h3.9
		c0.1-1.5-0.4-3-1.3-4.3c-0.9-1.1-2.3-1.8-3.7-2v-2.9h-2.1V27c-1.4,0.1-2.8,0.7-3.9,1.7c-0.5,0.5-0.9,1.1-1.1,1.7
		c-0.2,0.6-0.4,1.3-0.3,2c0,0.8,0.1,1.6,0.4,2.3c0.2,0.7,0.6,1.3,1.1,1.7c0.6,0.5,1.2,0.9,1.9,1.3c0.8,0.4,1.7,0.8,2.6,1.1
		c0.7,0.2,1.4,0.6,2,1.1c0.2,0.2,0.4,0.5,0.5,0.8c0.1,0.3,0.1,0.6,0.1,0.9c0,0.3,0,0.6-0.2,0.8c-0.1,0.3-0.3,0.5-0.6,0.6
		c-0.5,0.4-1.2,0.6-1.8,0.6c-0.4,0-0.8-0.1-1.2-0.2c-0.4-0.1-0.7-0.4-1-0.6c-0.5-0.7-0.7-1.6-0.7-2.4h-3.9c-0.1,1.6,0.4,3.2,1.4,4.4
		C26.4,45.4,27.1,45.9,27.8,46.2z"/>
	<path fill="#000911" d="M17.8,47.2c0.2,0.2,0.4,0.3,0.6,0.4c0.2,0.1,0.4,0.1,0.7,0.1c0.5,0,0.9-0.2,1.2-0.5
		c0.3-0.3,0.5-0.8,0.5-1.2v-3.4c0-0.4-0.2-0.8-0.5-1.1c-0.3-0.3-0.7-0.5-1.2-0.5s-0.9,0.2-1.2,0.5c-0.3,0.3-0.5,0.7-0.5,1.1v3.4
		c0,0.2,0,0.5,0.1,0.7C17.5,46.8,17.6,47,17.8,47.2z"/>
	<path fill="#000911" d="M51.9,34.1c0.9,0,1.7-0.7,1.6-1.5V28c0-0.4-0.2-0.8-0.5-1.1c-0.3-0.3-0.7-0.5-1.1-0.5s-0.8,0.2-1.1,0.5
		c-0.3,0.3-0.5,0.7-0.5,1.1v4.5c0,0.4,0.2,0.8,0.5,1.1C51,33.9,51.4,34.1,51.9,34.1z"/>
	<path fill="#000911" d="M75.8,56.1c0.2,0.2,0.3,0.3,0.6,0.4c0.2,0.1,0.4,0.1,0.7,0.1h9.2c0.2,0,0.5,0,0.7-0.1
		c0.2-0.1,0.4-0.2,0.6-0.4c0.2-0.2,0.3-0.4,0.4-0.6c0.1-0.2,0.1-0.4,0.1-0.7c0-0.5-0.2-0.9-0.5-1.2c-0.3-0.3-0.8-0.5-1.2-0.5H77
		c-0.2,0-0.4,0-0.7,0.1c-0.2,0.1-0.4,0.2-0.6,0.4s-0.3,0.3-0.4,0.6c-0.1,0.2-0.1,0.4-0.1,0.7s0,0.4,0.1,0.7
		C75.5,55.8,75.6,56,75.8,56.1z"/>
	<path fill="#000911" d="M75.7,62.2c0.2,0.2,0.4,0.3,0.6,0.4c0.2,0.1,0.5,0.1,0.7,0.1h9.2c0.2,0,0.5,0,0.7-0.1
		c0.2-0.1,0.4-0.2,0.6-0.4c0.2-0.2,0.3-0.4,0.4-0.6s0.1-0.4,0.1-0.7c0-0.5-0.2-0.9-0.5-1.2c-0.3-0.3-0.8-0.5-1.2-0.5H77
		c-0.2,0-0.5,0-0.7,0.1c-0.2,0.1-0.4,0.2-0.6,0.4c-0.2,0.2-0.3,0.4-0.4,0.6c-0.1,0.2-0.1,0.5-0.1,0.7s0,0.5,0.1,0.7
		C75.4,61.8,75.5,62,75.7,62.2z"/>
	<path fill="#000911" d="M44.5,13.1h-9.2c-0.5,0-0.9,0.2-1.2,0.5c-0.3,0.3-0.5,0.8-0.5,1.2c0,0.5,0.2,0.9,0.5,1.2
		c0.3,0.3,0.8,0.5,1.2,0.5h9.2c0.4,0,0.9-0.2,1.2-0.5s0.5-0.7,0.5-1.2c0-0.5-0.2-0.9-0.5-1.2C45.4,13.3,45,13.1,44.5,13.1z"/>
	<path fill="#000911" d="M67,13.1H52.6c-0.5,0-0.9,0.2-1.2,0.5c-0.3,0.3-0.5,0.8-0.5,1.2c0,0.5,0.2,0.9,0.5,1.2
		c0.3,0.3,0.8,0.5,1.2,0.5H67c0.2,0,0.5,0,0.7-0.1c0.2-0.1,0.4-0.2,0.6-0.4c0.2-0.2,0.3-0.4,0.4-0.6c0.1-0.2,0.1-0.4,0.1-0.7
		c0-0.5-0.2-0.9-0.5-1.2C67.9,13.3,67.5,13.1,67,13.1z"/>
	<path fill="#000911" d="M11,13.4c-0.3-0.3-0.6-0.5-1-0.5c-0.4-0.1-0.8,0-1.2,0.1c-0.4,0.2-0.7,0.4-0.9,0.7
		c-0.2,0.3-0.3,0.7-0.3,1.1c0,0.5,0.2,1,0.6,1.4c0.4,0.4,0.9,0.6,1.4,0.6c0.4,0,0.8-0.1,1.1-0.3c0.3-0.2,0.6-0.5,0.7-0.9
		c0.2-0.4,0.2-0.8,0.1-1.2C11.5,14.1,11.3,13.7,11,13.4z"/>
	<path fill="#000911" d="M18.5,13.4c-0.3-0.3-0.6-0.5-1-0.5c-0.4-0.1-0.8,0-1.2,0.1c-0.4,0.2-0.7,0.4-0.9,0.7
		c-0.2,0.3-0.3,0.7-0.3,1.1c0,0.5,0.2,1,0.6,1.4c0.4,0.4,0.9,0.6,1.4,0.6c0.4,0,0.8-0.1,1.1-0.3c0.3-0.2,0.6-0.5,0.7-0.9
		c0.2-0.4,0.2-0.8,0.1-1.2C19,14.1,18.8,13.7,18.5,13.4z"/>
	<path fill="#000911" d="M26,13.4c-0.3-0.3-0.6-0.5-1-0.5c-0.4-0.1-0.8,0-1.2,0.1c-0.4,0.2-0.7,0.4-0.9,0.7
		c-0.2,0.3-0.3,0.7-0.3,1.1c0,0.5,0.2,1,0.6,1.4c0.4,0.4,0.9,0.6,1.4,0.6c0.4,0,0.8-0.1,1.1-0.3c0.3-0.2,0.6-0.5,0.7-0.9
		c0.2-0.4,0.2-0.8,0.1-1.2C26.5,14.1,26.3,13.7,26,13.4z"/>
</g>
</svg>
