<?xml version="1.0" encoding="utf-8"?>
<!-- Generator: Adobe Illustrator 26.0.3, SVG Export Plug-In . SVG Version: 6.00 Build 0)  -->
<svg version="1.1" id="Layer_1" xmlns="http://www.w3.org/2000/svg" xmlns:xlink="http://www.w3.org/1999/xlink" x="0px" y="0px"
	 viewBox="0 0 115 80" enable-background="new 0 0 115 80" xml:space="preserve">
<g>
	<path fill="#0082F1" d="M78.2,35.8c-1.6-1.8-3.3-3.6-4.8-5.4c-1.1-1.2-2.2-2.4-3.1-3.6c-0.5-0.6-1-1.2-1.6-1.7
		c-0.6-0.3-1.2-0.3-1.8-0.2H46.4c-0.4-0.2-0.9-0.2-1.3,0.3c-2.9,3.5-5.9,7.1-8.8,10.6c-0.2,0.2-0.3,0.5-0.3,0.8s0.1,0.6,0.3,0.8
		l17.2,17.3l2.5,2.5c0,0,0.1,0.1,0.1,0.1c0,0,0,0.1,0.1,0.1c0.1,0,0.1,0.1,0.2,0.1c0,0,0,0,0,0c0,0,0,0,0,0c0.2,0.1,0.3,0.1,0.5,0.1
		c0.3,0,0.5-0.1,0.7-0.2c0.2-0.1,0.3-0.3,0.3-0.4c5.8-5.7,11.6-11.3,17.6-17c0.8-0.9,1.7-1.6,2.5-2.4c0.1-0.1,0.2-0.2,0.3-0.4
		c0.1-0.1,0.1-0.3,0.1-0.5s0-0.3-0.1-0.5C78.4,36,78.3,35.9,78.2,35.8z M59.3,27.2h6.9c-0.7,2.3-1.4,4.6-2.1,6.9
		C62.5,31.8,60.9,29.5,59.3,27.2z M62.2,35.4H52.2c1.7-2.4,3.4-4.7,5.1-7.1C58.9,30.7,60.6,33,62.2,35.4z M50.3,34.2
		c-0.8-2.3-1.7-4.7-2.5-7h7.5C53.6,29.5,51.9,31.8,50.3,34.2z M45.6,28.2c0.9,2.4,1.7,4.8,2.6,7.2h-8.6C41.6,33,43.6,30.6,45.6,28.2
		z M62.8,37.8C60.9,42.9,58.9,48,57,53c-1.8-5.1-3.6-10.1-5.5-15.2H62.8z M65.3,37.8h9.1c-4.7,4.6-9.5,9.2-14.3,13.8
		C61.8,47,63.6,42.4,65.3,37.8z M74.6,35.4h-8.5c0.7-2.4,1.4-4.7,2.2-7.1C70.4,30.7,72.5,33.1,74.6,35.4z M40.5,38.2l-0.4-0.4H49
		c1.7,4.6,3.4,9.3,5,13.9L40.5,38.2z"/>
	<path fill="#0082F1" d="M41.5,21.3l1,1c0.2,0.2,0.5,0.3,0.8,0.3c0.3,0,0.6-0.1,0.8-0.4c0.2-0.2,0.3-0.5,0.3-0.8
		c0-0.3-0.1-0.6-0.4-0.8l-6.4-6.4l-1-1c-0.1-0.1-0.2-0.2-0.4-0.3c-0.1-0.1-0.3-0.1-0.5-0.1s-0.3,0-0.5,0.1c-0.1,0.1-0.3,0.2-0.4,0.3
		c-0.2,0.2-0.3,0.5-0.3,0.8c0,0.3,0.1,0.6,0.3,0.8C37.3,17.1,39.3,19.1,41.5,21.3z"/>
	<path fill="#0082F1" d="M56.9,19.4c0.3,0,0.6-0.1,0.8-0.3c0.2-0.2,0.4-0.5,0.4-0.8v-10c0-0.3-0.2-0.6-0.4-0.8
		c-0.2-0.2-0.5-0.3-0.8-0.3s-0.6,0.1-0.8,0.3c-0.2,0.2-0.4,0.5-0.4,0.8v10c0,0.3,0.2,0.6,0.4,0.8C56.3,19.2,56.6,19.4,56.9,19.4z"/>
	<path fill="#0082F1" d="M70.8,22.4c0.3,0,0.6-0.1,0.8-0.3c1.9-2.1,3.9-4,5.7-6l0.8-0.8c0.1-0.1,0.2-0.2,0.3-0.4
		c0.1-0.1,0.1-0.3,0.1-0.5c0-0.2,0-0.3-0.1-0.5c-0.1-0.1-0.2-0.3-0.3-0.4c-0.2-0.2-0.5-0.3-0.8-0.3s-0.6,0.1-0.8,0.3
		c-1.9,2-3.9,4-5.7,6L70,20.4c-0.2,0.2-0.3,0.5-0.3,0.8c0,0.3,0.1,0.6,0.4,0.8C70.3,22.2,70.5,22.4,70.8,22.4z"/>
</g>
<g>
	<path fill="#000911" d="M7.5,31.9c0,1.8,0.6,3.5,1.6,4.9c1,1.5,2.5,2.6,4.2,3.3c1.7,0.6,3.6,0.7,5.3,0.2c1.8-0.5,3.3-1.5,4.5-2.9
		c1.2-1.4,1.9-3.1,2.1-4.9s-0.3-3.6-1.2-5.2c-0.9-1.6-2.3-2.8-4-3.6c-1.7-0.7-3.5-0.9-5.3-0.6c-2,0.4-3.8,1.5-5.1,3.1
		c-1.3,1.6-2,3.5-2,5.5c0,0,0,0,0,0c0,0,0,0,0,0C7.5,31.8,7.5,31.9,7.5,31.9C7.5,31.9,7.5,31.9,7.5,31.9z M11.1,28.1
		c0.8-1.1,1.8-1.9,3-2.3c1.3-0.5,2.7-0.5,4-0.1c1.3,0.4,2.5,1.1,3.3,2.2c0.8,1,1.3,2.3,1.4,3.6c0.1,1.3-0.2,2.6-0.9,3.8
		c-0.7,1.1-1.7,2-2.9,2.5c-1.2,0.5-2.5,0.7-3.8,0.5c-1.5-0.3-2.8-1.1-3.8-2.3c-1-1.2-1.5-2.6-1.5-4.1c0,0,0,0,0,0c0,0,0,0,0,0
		C9.9,30.4,10.3,29.2,11.1,28.1z"/>
	<path fill="#000911" d="M113.5,56.9C113.5,56.9,113.5,56.9,113.5,56.9c0-0.1,0-0.1,0-0.2c0.2-2.7-0.4-5.3-1.7-7.7
		c-1.3-2.3-3.3-4.2-5.6-5.5c-0.7-0.4-1.4-0.7-2.2-1c-1.6-0.5-3.6-0.1-5.3-0.1s-3.5-0.4-5.1,0c-1.6,0.5-3,1.3-4.2,2.4
		c-0.7,0.6-1.4,1.2-2,1.8c-4-2.4-8.6-3.7-13.3-3.6c-0.3,0-0.6,0.1-0.9,0.4C73.1,43.7,73,44,73,44.3c0,0.3,0.1,0.6,0.4,0.9
		c0.2,0.2,0.5,0.4,0.9,0.4c4.2-0.2,8.3,0.9,11.8,3.1c-0.6,0.9-1.1,1.9-1.6,2.9c-1.1,2.4-1.8,5.1-4.1,6.6c-0.9,0.6-1.9,1.1-3,1.3
		c-1.4,0.4-3.2,0-4.6,0.6c-0.6,0.3-1.1,0.6-1.5,1.1c-0.4,0.5-0.7,1-0.9,1.6c-0.2,0.6-0.2,1.2-0.1,1.8c0.1,0.6,0.4,1.2,0.7,1.7
		c0.1,0.2,0.3,0.4,0.4,0.5c-9.7,1.6-19.6,1.6-29.4-0.1c0.1-0.1,0.2-0.2,0.3-0.4c0.4-0.5,0.6-1.1,0.8-1.7c0.1-0.6,0.1-1.3,0-1.9
		c-0.2-0.6-0.4-1.2-0.8-1.7c-0.4-0.5-0.9-0.8-1.5-1.1c-0.6-0.2-1.2-0.3-1.8-0.3c-1.6-0.1-3.1-0.4-4.6-1c-2.4-1.1-3.6-3.1-4.6-5.4
		c-0.6-1.7-1.4-3.3-2.4-4.8c3.5-2.1,7.6-3.1,11.7-3c0.3,0,0.6-0.1,0.9-0.4c0.2-0.2,0.4-0.5,0.4-0.9c0-0.3-0.1-0.6-0.4-0.9
		c-0.2-0.2-0.5-0.4-0.9-0.4c-4.6-0.1-9.2,1.1-13.1,3.5c-0.2-0.2-0.3-0.4-0.5-0.6c-0.9-0.9-1.9-1.6-3-2.3c-0.7-0.4-1.5-0.8-2.3-1.1
		c-0.8-0.2-1.6-0.2-2.4-0.1H12c-1.1,0-2.1,0.1-3.2,0.4c-2.8,1.1-5.1,3-6.7,5.5C0.6,51-0.2,53.9,0,56.9c0,0,0,0,0,0C0,57,0,57,0,57.1
		v12.6c-0.2,1.8,0.2,3.7,1,5.3c1,1.8,2.5,3.3,4.3,4.2c1.8,1,3.5,0.8,5.5,0.8h18.8c0.1,0,0.1,0,0.2,0c0.1,0,0.1,0,0.2,0h9.8
		c0.3,0,0.6-0.2,0.8-0.4s0.3-0.5,0.4-0.8c0-1.9,0.2-3.9-1-5.6c-0.4-0.7-1-1.2-1.7-1.6c-0.7-0.4-1.4-0.7-2.2-0.8
		c-1.5-0.2-3.1-0.2-4.6-0.1c-1.8,0-3.7,0-5.5,0.1v-3.2c0-0.8,0-1.7,0.1-2.7c1.8,1.2,3.9,2.1,6,2.5c1.2,0.2,2.5,0.4,3.7,0.4
		c0.1,0,0.3,0,0.4,0c0.1,0.1,0.1,0.1,0.2,0.1c13.6,3.1,27.8,3.1,41.4,0c0,0,0.1,0,0.1,0c0.9,0,1.8-0.1,2.6-0.2
		c2.4-0.4,4.8-1.3,6.9-2.6c0,0.9,0.1,1.8,0.1,2.6c0,1,0.1,2.1,0.1,3.3c-1.9,0-3.8,0-5.6-0.1c-1.5-0.1-3.1,0-4.6,0.1
		c-0.8,0.1-1.5,0.4-2.2,0.8c-0.7,0.4-1.2,1-1.7,1.6c-1.2,1.7-1,3.6-1,5.6c0,0.3,0.2,0.6,0.4,0.8c0.2,0.2,0.5,0.4,0.8,0.4h9.8
		c0.1,0,0.2,0,0.2,0c0,0,0.1,0,0.1,0h16.5c2.2,0,4.6,0.4,6.6-0.4c1.8-0.7,3.4-1.8,4.6-3.4c1.3-1.6,1.9-3.7,1.8-5.8v-13
		C113.6,57.4,113.7,57.2,113.5,56.9z M10.9,77.6c-1,0.1-2.1,0-3.1-0.1c-0.9-0.3-1.8-0.7-2.5-1.4c-0.7-0.6-1.4-1.4-1.8-2.3
		c-1.1-1.4-1-2.5-1-4.5v-12c0,0,0,0,0-0.1C3,55.2,5.2,55.5,7,55.5h7.8c1.9,0,4.1-0.4,5.8,1c1.4,1.1,2.4,2.6,2.9,4.2
		c0.6,2,0.2,4.6,0.2,6.6c0,2-0.1,4,0,6c0.1,1.5,0.8,3,1.8,4.2H10.9z M35.4,73.2c0.4,0,0.7,0.1,1.1,0.2c0.6,0.2,1.1,0.5,1.5,1
		c0.8,0.9,0.8,2.1,0.8,3.2H30c0,0,0,0,0,0c0,0-0.1,0-0.1,0c0,0,0,0,0,0h-0.1c-0.8-0.2-1.5-0.6-2.2-1.1c-0.7-0.6-1.2-1.4-1.4-2.3
		c-0.1-0.3-0.2-0.6-0.2-0.9C29.1,73.3,32.3,73.2,35.4,73.2z M26.1,62c-0.1-0.6-0.1-1.1-0.3-1.6c-0.5-1.8-1.4-3.4-2.8-4.7
		c-1.1-1.2-2.6-2.1-4.2-2.4c-2.7-0.2-5.3-0.3-8-0.1c-2.4,0-5.6-0.4-7.9,0.5c0.3-1.4,0.8-2.7,1.5-3.9c1.1-1.8,2.7-3.2,4.5-4.1
		c1.9-1,4.1-0.6,6.2-0.6c1.4,0,3.2-0.4,4.6,0c1.3,0.5,2.4,1.2,3.4,2.1c1.8,1.6,3.3,3.6,4.1,5.9c0.7,2.1,1.7,4,3,5.8
		c1.1,1.3,2.6,2.2,4.2,2.8c1,0.4,2.1,0.6,3.1,0.7c1.2,0.1,2.9-0.2,3.4,1.2c0.1,0.4,0.1,0.7,0,1.1c-0.1,0.4-0.4,0.7-0.7,0.8
		c-0.6,0.4-1.5,0.1-2.2,0.1c-1.4,0.1-2.9,0-4.3-0.1C30.9,64.9,28.3,63.7,26.1,62z M77.6,65.7c-1.1,0-3.4,0.5-4.3-0.4
		c-0.2-0.2-0.4-0.5-0.5-0.8c-0.1-0.3-0.1-0.6,0-0.9c0.1-0.3,0.2-0.6,0.4-0.8c0.2-0.2,0.5-0.4,0.8-0.5c1.2-0.2,2.4-0.1,3.6-0.4
		c1.7-0.4,3.4-1.1,4.8-2.2c3.7-3,3.9-8.2,7.1-11.6c0.7-0.7,1.5-1.4,2.4-1.9c0.5-0.4,1.1-0.7,1.7-1c0.8-0.3,1.6-0.3,2.4-0.2h4.7
		c1-0.1,2.1,0,3.1,0.2c2.2,0.9,4,2.4,5.3,4.3c0.8,1.3,1.4,2.7,1.7,4.1c-2.4-1.1-5.8-0.5-8.2-0.5c-2.6,0-5.4-0.4-8,0.1
		c-1.6,0.3-3.1,1.2-4.2,2.4c-1.3,1.3-2.3,2.9-2.8,4.7c-0.1,0.6-0.2,1.1-0.3,1.7c-1.9,1.5-4.1,2.6-6.5,3.1
		C79.9,65.5,78.8,65.7,77.6,65.7z M75.8,74.5c0.4-0.4,0.8-0.8,1.3-1c0.2-0.1,0.5-0.1,0.7-0.2h0.4c3.1-0.1,6.3,0.1,9.4,0.1
		c0,0.3-0.1,0.6-0.2,0.9c-0.3,0.9-0.8,1.7-1.4,2.3c-0.7,0.6-1.5,1-2.4,1.2c0,0,0,0,0,0H75C75,76.6,75,75.4,75.8,74.5z M111,71.5
		c0,0.4,0,0.9-0.1,1.3c-0.7,2-2.1,3.6-4,4.5c-1.8,0.8-3.9,0.5-5.8,0.5h-13c1-1.2,1.6-2.7,1.8-4.2c0.1-1.9,0-3.9,0-5.7
		c0-2.2-0.4-4.8,0.2-7c0.5-1.6,1.5-3,2.8-4.1c1.7-1.5,3.9-1.1,5.9-1.1h7.8c1.6,0,3.5-0.3,4.3,1.3c0,0.1,0,0.1,0,0.2V71.5z"/>
	<path fill="#000911" d="M93.4,39.7c1.7,0.7,3.5,0.9,5.3,0.6c2-0.4,3.8-1.4,5.1-3c1.2-1.4,1.9-3.2,2-5.1c0.1-0.2,0.1-0.3,0.1-0.5
		c0-1.8-0.6-3.6-1.6-5.1c-1-1.5-2.5-2.6-4.2-3.2c-1.7-0.6-3.6-0.7-5.3-0.3c-1.8,0.5-3.3,1.5-4.5,2.9c-1.2,1.4-1.9,3.1-2,4.9
		c-0.2,1.8,0.3,3.6,1.2,5.2C90.3,37.8,91.7,39,93.4,39.7z M91.5,28.4c0.7-1.1,1.7-2,2.9-2.5c1.2-0.5,2.5-0.7,3.8-0.5
		c1.5,0.3,2.8,1.1,3.7,2.2c0.9,1.1,1.5,2.5,1.6,3.9c0,0.1-0.1,0.2-0.1,0.3c0,1.3-0.4,2.6-1.2,3.7c-0.8,1.1-1.8,1.9-3,2.3
		c-1.3,0.4-2.6,0.5-3.9,0.1s-2.4-1.1-3.3-2.1c-0.8-1-1.3-2.3-1.4-3.6C90.5,30.8,90.9,29.5,91.5,28.4z"/>
</g>
</svg>
