<?xml version="1.0" encoding="utf-8"?>
<!-- Generator: Adobe Illustrator 26.0.3, SVG Export Plug-In . SVG Version: 6.00 Build 0)  -->
<svg version="1.1" id="Layer_1" xmlns="http://www.w3.org/2000/svg" xmlns:xlink="http://www.w3.org/1999/xlink" x="0px" y="0px"
	 viewBox="0 0 115 80" enable-background="new 0 0 115 80" xml:space="preserve">
<path fill="#000911" d="M91.5,10.1h-18c1.1,0.9,2.2,1.9,3.2,3h14.8c4.2,0,7.6,3.4,7.6,7.6v46.1l-28.1,0c-1.6,1.1-3.3,2.1-5.2,3
	l33.2,0c-0.3,3.9-3.6,7-7.6,7H10.3c-4,0-7.3-3.1-7.6-7.1l32.7,0c-1.8-0.9-3.5-1.9-5.1-3l-27.6,0v-46c0-4.2,3.4-7.6,7.6-7.6h14.4
	c1-1.1,2.1-2.1,3.2-3H10.3c-5.9,0-10.6,4.8-10.6,10.6v48.4c0,5.9,4.8,10.6,10.6,10.6h81.2c5.9,0,10.6-4.8,10.6-10.6V20.8
	C102.2,14.9,97.4,10.1,91.5,10.1z"/>
<path fill="#0082F1" d="M50.7,0.4c-20.5,0-37.2,16.7-37.2,37.2c0,20.5,16.7,37.2,37.2,37.2c20.5,0,37.2-16.7,37.2-37.2
	C87.9,17.1,71.2,0.4,50.7,0.4z M62.5,47.2c-0.1,0.1-0.2,0.2-0.3,0.3c-2.7,2.4-5.6,4.2-8.4,5.6c-1.1-1.9-3.1-3.1-5.4-3.1
	c-0.5,0-1,0.1-1.5,0.2c-1.5-3.9-2.6-7.9-3.3-12c-0.8-5.2-1-10.5-0.6-15.7c0.5,0.1,1,0.2,1.5,0.2c1.5,0,2.8-0.5,3.9-1.4
	c3.4,1.9,6.5,4.3,9.2,7.2c2.8,2.9,4.9,6.1,6.5,9.3c-1.8,1.1-3,3.1-3,5.3C61.1,44.7,61.6,46.1,62.5,47.2z M51.7,56.3
	c0,1.8-1.5,3.3-3.3,3.3c-1.8,0-3.3-1.5-3.3-3.3s1.5-3.3,3.3-3.3C50.2,53,51.7,54.5,51.7,56.3z M41.2,16.4c0-1.8,1.5-3.3,3.3-3.3
	s3.3,1.5,3.3,3.3c0,1.8-1.5,3.3-3.3,3.3S41.2,18.2,41.2,16.4z M59.8,26.5c-2.8-3-6-5.5-9.5-7.5c0.1-0.2,0.2-0.5,0.3-0.7
	c6.4,1.4,12.3,4.1,17.5,8c-0.5,0.9-0.9,2-0.9,3.2c0,2.9,1.9,5.3,4.5,6c-0.4,0.8-0.8,1.5-1.2,2.3c-0.9-0.5-1.9-0.8-3-0.8
	c-0.2,0-0.3,0-0.5,0C65.2,33.3,62.9,29.7,59.8,26.5z M70.1,29.4c0-1.8,1.5-3.3,3.3-3.3c1.8,0,3.3,1.5,3.3,3.3c0,1.8-1.5,3.3-3.3,3.3
	C71.6,32.7,70.1,31.2,70.1,29.4z M76.5,15.1c0,2.1-0.2,5-0.9,8.3c-0.7-0.3-1.4-0.4-2.2-0.4c-1.2,0-2.4,0.4-3.3,1
	c-5.7-4.3-12.3-7.4-19.5-8.8c-0.2-0.9-0.6-1.7-1.1-2.5C54.1,9,59.7,6.9,65.6,6.8C69.8,8.8,73.5,11.7,76.5,15.1z M50.7,3.4
	c3,0,6,0.4,8.7,1.1c-4.5,1-8.7,3.2-12.3,6.2c-0.8-0.4-1.8-0.6-2.8-0.6c-1.1,0-2.2,0.3-3.1,0.8c-3.2-1.2-6.5-1.8-9.9-1.6
	C37,5.6,43.6,3.4,50.7,3.4z M16.5,37.6c0-9.6,4-18.3,10.4-24.5c4-1.1,8.2-1,12,0.3c-0.4,0.6-0.6,1.3-0.7,2.1c-7,3-13,8.2-16.8,14.8
	c-2.3,4-3.8,8.3-4.4,12.8C16.7,41.3,16.5,39.4,16.5,37.6z M20,52.5c-1-7.1,0.4-14.5,4-20.7c3.4-5.8,8.5-10.4,14.5-13.2
	c0.3,0.9,0.9,1.7,1.6,2.4c-0.7,5.9-0.5,11.9,0.5,17.8c0.8,4.4,2,8.8,3.6,12.9c-1.3,1.2-2.1,2.8-2.1,4.7c0,0.1,0,0.3,0,0.4
	c-9.8,1.6-18.2-0.5-20.3-1.1C21.1,54.6,20.5,53.6,20,52.5z M50.7,71.8c-10.6,0-20-4.8-26.3-12.4c2.6,0.5,6.1,1,10.3,1
	c2.6,0,5.4-0.2,8.3-0.7c1.1,1.8,3.1,3,5.4,3c0.4,0,0.8,0,1.1-0.1c1.9,3.1,4,6.1,6.3,8.8C54.2,71.6,52.5,71.8,50.7,71.8z M68.6,66.7
	c-2.9,1.8-6,3.1-9.4,4c-2.6-2.9-4.9-6.1-7-9.4c1.5-1.2,2.4-2.9,2.4-5c0-0.1,0-0.2,0-0.3c3.2-1.5,6.5-3.6,9.5-6.2
	c0.3-0.2,0.6-0.5,0.8-0.8c0.7,0.3,1.5,0.5,2.4,0.5c0.2,0,0.4,0,0.5,0C69.3,56.8,69,63.4,68.6,66.7z M67.4,46.5
	c-1.8,0-3.3-1.5-3.3-3.3s1.5-3.3,3.3-3.3c1.8,0,3.3,1.5,3.3,3.3S69.2,46.5,67.4,46.5z M71.8,64.5c0.2-3.9,0.2-9.6-1-15.9
	c1.8-1.1,2.9-3.1,2.9-5.3c0-1.3-0.4-2.5-1-3.5c0.9-1.4,1.6-2.9,2.3-4.3c0.6-0.2,1.2-0.4,1.7-0.7c2.9,3.8,5.2,8.1,6.8,12.6
	C81.4,54.2,77.3,60.1,71.8,64.5z M78.8,32.6c0.6-1,0.9-2.1,0.9-3.3c0-1.5-0.5-2.9-1.4-4c0.5-2.4,0.8-4.6,1-6.5
	c3.5,5.4,5.6,11.8,5.6,18.7c0,1.6-0.1,3.1-0.3,4.6C83,38.8,81.1,35.6,78.8,32.6z"/>
</svg>
