<?xml version="1.0" encoding="utf-8"?>
<!-- Generator: Adobe Illustrator 26.0.3, SVG Export Plug-In . SVG Version: 6.00 Build 0)  -->
<svg version="1.1" id="Layer_1" xmlns="http://www.w3.org/2000/svg" xmlns:xlink="http://www.w3.org/1999/xlink" x="0px" y="0px"
	 viewBox="0 0 110 110" enable-background="new 0 0 110 110" xml:space="preserve">
<g>
	<path fill="#000911" d="M83.4,84.1c0.2,0.2,0.3,0.5,0.4,0.8v8.9c0,0.3-0.2,0.6-0.4,0.8c-0.2,0.2-0.5,0.3-0.8,0.3s-0.6-0.1-0.8-0.3
		c-0.2-0.2-0.4-0.5-0.4-0.8v-7.8H60.7v7.8c0,0.3-0.2,0.6-0.4,0.8c-0.2,0.2-0.5,0.3-0.8,0.3s-0.6-0.1-0.8-0.3
		c-0.2-0.2-0.4-0.5-0.4-0.8v-8.9c0-0.3,0.2-0.6,0.4-0.8c0.2-0.2,0.5-0.3,0.8-0.4h23.1C82.9,83.8,83.2,83.9,83.4,84.1z M94.2,63.7
		V41.9c0-0.3-0.1-0.5-0.2-0.7c-0.1-0.2-0.4-0.4-0.6-0.5c-0.9-0.2-1.8-0.3-2.7-0.1c-0.9,0.1-1.8,0.5-2.6,0.9s-1.5,1.1-2,1.9
		c-0.5,0.7-0.9,1.6-1.1,2.5c-0.2,1.5-0.3,3.1-0.1,4.6v8.1c-1.4-0.1-3.1,0.5-4.1,1.7c-0.6,0.6-0.9,1.4-1.5,2
		c-0.8,0.7-1.6,1.4-2.6,2.1c-1.8,1.2-3.9,2.1-6,2.7c-2.6,0.7-4.9,1.5-6.6,3.8c-2.3,3.2-2.9,7.4-3.2,11.2c0.1,0.3,0.3,0.5,0.6,0.7
		c0.3,0.2,0.6,0.2,0.9,0.2c0.3,0,0.6-0.2,0.8-0.4c0.2-0.2,0.4-0.5,0.4-0.8c0.2-4.7,1.2-10.6,6.4-12.2c3.3-1.1,6.3-2,9.2-4.1
		c1.3-0.8,2.3-1.9,3.2-3.2c0.5-0.7,1.9-2,2.8-1.4c0.7,0.3,0.7,1.9,0.4,2.5c-0.5,0.9-1.8,1.8-2.5,2.6c-1.8,1.8-3.5,3.5-5.3,5.3
		c-1.1,1,0.6,2.7,1.6,1.6l5.6-5.6c0.9-0.7,1.8-1.6,2.5-2.6c0.5-1,0.6-2.1,0.3-3.2c-0.1-0.6-0.3-1.2-0.6-1.6c0,0,0-0.1,0-0.1V47.7
		c0-0.7,0.1-1.4,0.4-2.1c0.3-0.7,0.7-1.2,1.3-1.7c0.6-0.5,1.2-0.8,1.9-1c0.4-0.1,0.9-0.1,1.3-0.1v24.7c-4.7,4.5-9.3,8.9-14,13.4
		c-1.3,1.2,0.3,2.8,1.4,1.8c4.7-4.5,9.5-8.8,14-13.4C94.7,67.9,94.2,65.2,94.2,63.7z M65.7,89c-0.3,0-0.6,0.1-0.8,0.3
		c-0.2,0.2-0.4,0.5-0.4,0.8v1.6c0,0.3,0.1,0.6,0.3,0.8c0.2,0.2,0.5,0.3,0.8,0.3c0.3,0,0.6-0.1,0.8-0.4c0.2-0.2,0.3-0.5,0.4-0.8v-1.6
		c0-0.3-0.2-0.6-0.4-0.8C66.2,89.1,65.9,89,65.7,89z M50,83.8H27c-0.3,0-0.6,0.1-0.8,0.4c-0.2,0.2-0.3,0.5-0.4,0.8v8.9
		c0,0.3,0.2,0.6,0.4,0.8c0.2,0.2,0.5,0.3,0.8,0.3s0.6-0.1,0.8-0.3c0.2-0.2,0.4-0.5,0.4-0.8v-7.8h20.7v7.8c0,0.3,0.1,0.6,0.3,0.8
		c0.2,0.2,0.5,0.3,0.8,0.3c0.3,0,0.6-0.1,0.8-0.3c0.2-0.2,0.3-0.5,0.3-0.8v-8.9c0-0.3-0.2-0.6-0.4-0.8C50.6,83.9,50.3,83.8,50,83.8z
		 M31.8,80.9c-4.7-4.5-9.3-8.9-14-13.4V42.9c2.8-0.2,4.8,2.1,5,4.9v11.2c-0.3,0.3-0.6,0.6-0.8,0.9c-0.4,0.9-0.5,2-0.3,3
		c0.2,1.5,1.1,2.1,2.1,3.2l6.5,6.5c0.2,0.2,0.5,0.3,0.8,0.3c0.3,0,0.6-0.1,0.8-0.3c0.2-0.2,0.3-0.5,0.3-0.8c0-0.3-0.1-0.6-0.3-0.8
		l-4.7-4.7l-2.4-2.4c-0.4-0.3-0.7-0.7-0.8-1.1c-0.2-0.4-0.2-0.9-0.1-1.4c0-0.3,0.2-0.5,0.3-0.6c0.2,0,0.4-0.1,0.5-0.3c0,0,0,0,0,0
		c0.5-0.1,1.2,0.2,1.7,0.5c0.8,0.6,0.9,1.2,1.4,1.8c0.4,0.5,1,1,1.5,1.4c2.7,2.2,5.9,3.9,9.3,4.8c1.9,0.6,3.6,1.2,4.8,2.8
		c2,2.7,2.5,6.5,2.6,9.6c0.2,1.8,2.6,1.8,2.5,0.2c-0.2-3.5-0.7-7.4-2.7-10.5c-1.4-2-3.4-3.5-5.8-4.1c-1.8-0.5-3.6-1.1-5.3-1.9
		c-2-1-3.7-2.3-5.2-4c-0.4-0.7-1-1.4-1.6-1.9c-0.7-0.5-1.4-0.9-2.2-1.1c-0.2,0-0.4-0.1-0.5-0.1v-7.6c0.1-1.6,0.1-3.2-0.1-4.8
		c-0.2-0.9-0.6-1.7-1.1-2.5c-0.5-0.7-1.2-1.4-2-1.9c-0.8-0.5-1.7-0.8-2.6-0.9c-0.9-0.1-1.8-0.1-2.7,0.1c-0.2,0.1-0.5,0.2-0.6,0.4
		c-0.2,0.2-0.2,0.5-0.2,0.7V67c-0.1,0.7,0,1.4,0.4,2c0.7,0.8,1.5,1.5,2.2,2.2c1.5,1.4,2.9,2.8,4.5,4.2c2.5,2.5,5,4.8,7.5,7.3
		C31.2,83.6,32.9,82,31.8,80.9z M44,89c-0.3,0-0.6,0.1-0.8,0.3c-0.2,0.2-0.4,0.5-0.4,0.8v1.6c0,0.2,0,0.3,0.1,0.5
		c0.1,0.1,0.1,0.3,0.3,0.4c0.1,0.1,0.2,0.2,0.4,0.3c0.1,0.1,0.3,0.1,0.5,0.1c0.3,0,0.6-0.1,0.8-0.3c0.2-0.2,0.3-0.5,0.3-0.8v-1.6
		c0-0.3-0.2-0.6-0.4-0.8C44.6,89.1,44.3,89,44,89z"/>
	<path fill="#0082F1" d="M76.3,43.4c-0.1-0.1-0.1-0.3-0.3-0.4c-1.5-1.8-3.2-3.5-4.7-5.3c-1.1-1.2-2.1-2.3-3.1-3.5
		c-0.4-0.6-1-1.2-1.5-1.6c-0.5-0.3-1.1-0.4-1.7-0.3H45.1c-0.4-0.2-0.9-0.2-1.3,0.2c-2.8,3.4-5.8,6.9-8.6,10.3
		c-0.2,0.2-0.3,0.5-0.3,0.8c0,0.3,0.1,0.6,0.3,0.8L52,61.3l2.3,2.3c0.1,0.1,0.2,0.2,0.3,0.3c0.2,0.2,0.4,0.2,0.7,0.2
		c0.2,0,0.3,0,0.4-0.1c0,0,0,0,0,0c0,0,0.1,0,0.1-0.1c0,0,0.1,0,0.1-0.1c0,0,0,0,0.1-0.1c0,0,0.1,0,0.1-0.1
		c5.8-5.6,11.5-11.2,17.4-16.8c0.8-0.8,1.6-1.5,2.5-2.3c0.1-0.1,0.2-0.2,0.3-0.4c0.1-0.1,0.1-0.3,0.1-0.4S76.3,43.5,76.3,43.4z
		 M57.6,34.6h6.7c-0.7,2.2-1.4,4.4-2,6.7C60.6,39.1,59.1,36.8,57.6,34.6z M60.4,42.6h-9.8c1.6-2.3,3.3-4.6,4.9-7
		C57.2,38,58.8,40.3,60.4,42.6z M48.8,41.4c-0.8-2.3-1.6-4.6-2.5-6.8h7.3C52,36.9,50.4,39.2,48.8,41.4z M46.8,42.6h-8.4l5.8-7
		C45.1,38,45.9,40.3,46.8,42.6z M60.9,45c-1.9,4.9-3.7,9.8-5.6,14.7c-1.8-4.9-3.5-9.8-5.3-14.7H60.9z M63.3,45h9
		c-4.7,4.6-9.4,9.1-14.2,13.7C59.9,54.1,61.6,49.5,63.3,45z M72.6,42.6h-8.4c0.7-2.3,1.4-4.6,2.1-7C68.4,38,70.5,40.3,72.6,42.6z
		 M39.3,45.3L39,45h8.5c1.6,4.4,3.2,8.8,4.8,13.2L39.3,45.3z M33.9,22.6c-0.2-0.2-0.3-0.5-0.3-0.8c0-0.3,0.1-0.6,0.3-0.8
		c0.1-0.1,0.2-0.2,0.4-0.3s0.3-0.1,0.4-0.1c0.2,0,0.3,0,0.4,0.1c0.1,0.1,0.3,0.1,0.4,0.3l0.9,0.9c2.1,2.1,4.1,4.1,6.2,6.2
		c0.2,0.2,0.3,0.5,0.3,0.8c0,0.3-0.1,0.6-0.3,0.8c-0.2,0.2-0.5,0.3-0.8,0.3c-0.3,0-0.6-0.1-0.8-0.3l-0.9-0.9
		C38,26.8,36,24.8,33.9,22.6z M54.4,26.7c-0.2-0.2-0.4-0.5-0.4-0.8v-9.8c0-0.3,0.2-0.6,0.4-0.8c0.2-0.2,0.5-0.3,0.8-0.3
		s0.6,0.1,0.8,0.3c0.2,0.2,0.4,0.5,0.4,0.8v9.8c0,0.3-0.2,0.6-0.4,0.8c-0.2,0.2-0.5,0.3-0.8,0.3S54.6,26.9,54.4,26.7z M67.6,29.4
		c-0.1-0.1-0.1-0.3-0.1-0.5c0-0.2,0-0.3,0.1-0.5c0.1-0.1,0.2-0.3,0.3-0.4l0.8-0.8c1.8-2,3.6-3.9,5.5-5.9c0.2-0.2,0.5-0.3,0.8-0.3
		c0.3,0,0.6,0.1,0.8,0.3c0.1,0.1,0.2,0.2,0.3,0.4c0.1,0.1,0.1,0.3,0.1,0.4c0,0.2,0,0.3-0.1,0.4c-0.1,0.1-0.1,0.3-0.3,0.4l-0.8,0.8
		c-1.8,2-3.6,3.9-5.5,5.9c-0.1,0.1-0.2,0.2-0.4,0.3c-0.1,0.1-0.3,0.1-0.5,0.1c-0.2,0-0.3,0-0.5-0.1c-0.1-0.1-0.3-0.1-0.4-0.3
		C67.7,29.6,67.6,29.5,67.6,29.4z"/>
</g>
</svg>
