<?xml version="1.0" encoding="utf-8"?>
<!-- Generator: Adobe Illustrator 26.0.3, SVG Export Plug-In . SVG Version: 6.00 Build 0)  -->
<svg version="1.1" id="Layer_1" xmlns="http://www.w3.org/2000/svg" xmlns:xlink="http://www.w3.org/1999/xlink" x="0px" y="0px"
	 viewBox="0 0 110 110" enable-background="new 0 0 110 110" xml:space="preserve">
<g>
	<path fill="#0082F1" d="M45.4,40.3c-1.4-2.2-2-4.8-1.7-7.3c0.3-1.6,1-3.2,2-4.5c1-1.3,2.3-2.5,3.8-3.2c6.1-3.4,14.6-0.6,16.9,6.2
		c0.5,1.5,0.6,3.1,0.4,4.6c-0.2,1.6-0.7,3-1.6,4.4c-0.8,1.2,1.2,2.4,1.9,1.2c1.7-2.8,2.4-6.1,1.8-9.4c-0.4-1.9-1.3-3.7-2.5-5.3
		s-2.7-2.8-4.5-3.7c-7.2-4-17-0.7-20,7.2c-0.6,1.8-0.9,3.8-0.6,5.7c0.2,1.9,0.9,3.8,2,5.4C44.2,42.7,46.3,41.5,45.4,40.3z"/>
	<g>
		<path fill="#000911" d="M105,37.7c-0.1-0.5-0.3-1-0.7-1.3c-0.3-0.4-0.8-0.7-1.2-0.8c-0.6-0.2-1.3-0.3-1.9-0.2
			c-6.5-0.7-13-1.3-19.5-2l-6.6-0.7c-0.2,0-0.4,0-0.6,0.1c-0.2,0.1-0.4,0.2-0.5,0.4c-3.1,4.3-6.1,8.8-9.2,13.1
			c-0.4-0.5-0.9-1-1.3-1.5c-1.8-2.4-2.2-5.2-2.6-8c-0.1-1-0.6-2-1.3-2.7c-0.7-0.7-1.6-1.2-2.7-1.4c-2.3-0.5-5,0.2-6.2,2.4
			c-1.2,2.2-1,4.9-1.9,7.1c-0.6,1.3-1.5,2.5-2.5,3.5c-0.3,0.3-0.6,0.6-0.9,0.9c-3.1-4.4-6.2-8.9-9.3-13.4c-0.1-0.2-0.3-0.3-0.5-0.4
			c-0.2-0.1-0.4-0.2-0.6-0.2c-5.5,0.6-10.9,1.1-16.4,1.7c-3,0.4-6.1,0.6-9.1,1c-0.6,0-1.1,0.1-1.7,0.1c-2,0.2-3.5,1.9-2.6,4
			c0.8,2,3.3,2.5,5.4,2.5c0,0.5,0.1,1.1,0.4,1.6c0.3,0.6,0.7,1.1,1.1,1.5c0.5,0.4,1.1,0.7,1.7,0.8c0.5,0,0.9,0,1.4-0.1
			c0,0.5,0.1,1.1,0.3,1.6c0.6,1.6,2.1,2.2,3.8,2.3c0.5,0.1,0.9,0.1,1.4,0c0,1.3,0.4,2.5,1.7,3.3c1.8,1,3.7,0.6,5.5,0.5
			c2.5-0.2,5.1,0,7.5,0.7c2.1,0.9,4,2.2,5.4,4c1.1,1.2,2.8-0.5,1.8-1.7c-1.4-1.7-3.2-3.1-5.2-4c-2-1-4.2-1.5-6.4-1.5
			c-2-0.1-4,0.2-6,0.2c-0.6,0-1.2-0.1-1.7-0.5C23,50.2,23,49.6,23,49.2c1.8-0.4,3.5-1.1,5.2-1.6c1.3-0.6,0.6-2.9-0.8-2.4
			c-1.2,0.4-2.5,0.8-3.7,1.2c-1,0.4-2.1,0.6-3.2,0.7c-0.7,0-2.3,0.1-2.6-0.6c-0.1-0.3-0.2-0.6-0.2-0.9c0-0.1,0-0.3,0-0.4l1.1-0.2
			l4.8-0.7c0.3-0.1,0.5-0.3,0.7-0.6c0.2-0.3,0.2-0.6,0.2-0.9c0-0.6-0.7-0.8-1.3-0.7l-7.7,1.1c-0.2,0-0.5,0.1-0.8,0.1
			c0,0-0.3-0.1-0.4-0.1c-0.3-0.1-0.5-0.3-0.7-0.6c-0.2-0.3-0.3-0.7-0.3-1c2.4-0.2,4.8-0.6,7.3-0.9c1.6-0.1,1.6-2.5,0-2.4
			s-3.3,0.4-5,0.5c-0.8,0.1-1.6,0.1-2.4,0.2c-0.1,0-0.3,0-0.4,0C12.4,39,12.1,39,11.8,39c-0.1,0-0.2,0.1-0.3,0.2
			c-1.2,0.1-3.6,0.3-4-0.9c-0.2-0.5,0.1-0.7,0.5-0.8H7.9c0.2,0,0.4,0,0.6-0.1c0.8-0.1,1.8-0.1,2.6-0.2c6.2-0.6,12.3-1.2,18.5-1.9
			c1.6-0.1,3.1-0.3,4.7-0.4c3.3,4.6,6.5,9.3,9.8,13.9c-1.1,2.8-0.7,5.8-0.2,8.8c0.5,3.1,1.5,6.2,2.8,9.1c-0.6,2.4-1.7,4.7-3.1,6.7
			c-1.7,2.1-3.7,3.9-6,5.3c-1.6,1.1-0.7,3.8,0.4,5c1.4,1.7,3.8,2.1,5.8,1.5c0.3,0.4,0.7,0.8,1.1,1.1c0.7,0.6,1.5,1,2.3,1.2
			c0.8,0.2,1.7,0.3,2.6,0.2c0.6-0.1,1.2-0.2,1.7-0.5c1.2,0.9,2.6,1.4,4.1,1.4c1.5,0,3-0.5,4.2-1.5c0,0,0,0,0,0
			c1.7,0.4,3.7,0.7,5.2-0.2c0.9-0.5,1.6-1.2,2.3-2c0.8,0.2,1.7,0.2,2.6,0c1.1-0.3,2.2-0.9,2.9-1.8c0.7-0.9,1.2-2.1,1.2-3.2
			c0-1.6-1.5-1.8-2.6-2.5c-4.1-2.6-5.8-6.6-7.2-11C66,61.7,68,56.1,67.1,51c-0.2-0.9-0.4-1.8-0.8-2.6c3.1-4.5,6.3-9,9.4-13.5
			c4.2,0.5,8.6,0.9,12.8,1.3c3.1,0.4,6.2,0.6,9.3,1l3.2,0.4c0.3,0,0.6,0,0.8,0.1c0.1,0,0.5,0.1,0.2,0c1,0.4,0.2,1.3-0.8,1.6
			c-0.9,0.2-1.8,0.3-2.8,0.1c0,0,0,0,0,0c-0.1,0-0.2-0.1-0.3-0.1c-0.3-0.1-0.5,0-0.8,0c-0.6-0.1-1.2-0.2-2-0.3
			c-1.9-0.2-4-0.4-5.9-0.6c-1.6-0.1-1.6,2.3,0,2.4c2.4,0.3,4.9,0.6,7.3,0.8c0,0.2,0,0.4,0,0.6c0,0.2-0.1,0.4-0.2,0.6
			c-0.2,0.2-0.5,0.4-0.7,0.6c-0.1,0-0.5,0.1-0.4,0.1h-0.2c-0.2,0-0.4,0-0.6-0.1l-0.6-0.1c-0.3-0.1-0.6-0.2-0.8-0.1l-6.3-0.9
			c-0.1,0-0.3-0.1-0.5,0c-0.2,0-0.3,0.1-0.4,0.1c-0.1,0.1-0.3,0.2-0.3,0.3c-0.1,0.1-0.2,0.3-0.2,0.4c-0.2,0.4,0.1,1.2,0.8,1.3
			l4.8,0.7l1.4,0.2c0,0.3,0,0.6-0.1,0.9c-0.4,0.8-1.9,0.7-2.8,0.7c-0.4,0-0.8-0.1-1.2-0.2c-0.1,0-0.2,0-0.3,0
			c-0.6-0.1-1.2-0.2-1.7-0.4c-1.3-0.5-2.5-0.8-3.8-1.3c-0.3-0.1-0.6,0-0.9,0.2c-0.3,0.2-0.5,0.4-0.6,0.7c-0.1,0.3-0.1,0.6,0.1,0.9
			c0.1,0.3,0.4,0.5,0.7,0.6c1.7,0.6,3.4,1.3,5.1,1.7c0,1.1-0.5,1.7-1.9,1.8c-2,0.1-4.1-0.2-6.1-0.1c-2.2,0.1-4.4,0.6-6.4,1.5
			c-2,0.9-3.8,2.3-5.2,4c-1.2,1.2,0.6,2.9,1.6,1.8c1.4-1.7,3.2-3.1,5.3-4c2.5-0.8,5.1-1.1,7.8-0.8c1.8,0.1,3.8,0.4,5.5-0.5
			c1.3-0.8,1.8-2,1.8-3.4c0.5,0,0.9,0,1.4,0c0.8,0,1.6-0.2,2.2-0.6c0.7-0.4,1.2-1,1.6-1.7c0.2-0.4,0.2-0.9,0.3-1.3
			c0.4,0,0.8,0,1.2,0c0.6-0.1,1.2-0.4,1.7-0.8c0.5-0.4,0.9-0.9,1.2-1.5c0.2-0.5,0.3-1.1,0.4-1.7c1.6,0,3.4-0.2,4.6-1.4
			c0.4-0.3,0.7-0.8,0.8-1.3C105,38.7,105.1,38.2,105,37.7z M64.3,57.9c-0.6,2.8-1.5,5.6-2.6,8.3c-0.2,0.5-0.1,0.9,0.3,1.1
			c0.6,2.4,1.6,4.7,2.7,6.8c1.5,2.8,4.1,4.7,6.9,6.2c-0.3,1.7-2,2.6-3.6,2.4c-0.1-0.1-0.3-0.2-0.4-0.3c-1.2-2.4-2.4-5-3.6-7.3
			c-0.2-0.3-0.4-0.5-0.7-0.6c-0.3-0.1-0.6-0.1-0.9,0.1c-0.3,0.2-0.5,0.4-0.6,0.7c-0.1,0.3-0.1,0.6,0.1,0.9c1.2,2.4,2.4,4.8,3.6,7.2
			c-0.2,0.2-0.3,0.4-0.5,0.6c-0.3,0.4-0.7,0.7-1.1,1c-1,0.6-2.1,0.2-3.2-0.1c-0.3-1.8-0.5-3.8-0.8-5.6c-0.1-0.3-0.3-0.6-0.5-0.7
			c-0.3-0.2-0.6-0.2-0.9-0.1c-0.8,0.2-1,0.8-0.9,1.4c0.3,1.7,0.5,3.6,0.8,5.3c0,0-0.1,0.1-0.1,0.1c-0.5,0.4-1.2,0.7-1.8,0.8
			c-0.7,0.2-1.5,0.1-2.2-0.1c-0.5-0.1-1-0.4-1.4-0.7c0.2-2,0.6-4.1,0.8-6.1c0.1-0.6-0.6-1.2-1.2-1.2s-1.1,0.5-1.2,1.2
			c-0.2,1.9-0.5,3.7-0.7,5.6c-0.4,0.2-0.8,0.3-1.2,0.3c-0.6,0.1-1.1,0-1.7-0.2c-0.5-0.2-1-0.5-1.4-0.8c-0.2-0.2-0.4-0.4-0.5-0.6
			c1.3-2.5,2.7-5,4-7.5c0.1-0.1,0.1-0.3,0.2-0.5c0-0.2,0-0.3,0-0.5c0-0.2-0.1-0.3-0.2-0.4c-0.1-0.1-0.2-0.2-0.4-0.3
			c-0.3-0.1-0.6-0.1-0.9-0.1c-0.3,0.1-0.6,0.3-0.7,0.5c-1.3,2.4-2.7,5-4,7.4c-1.9,0.6-4.4,0-4.4-2.4c2.2-1.4,4.2-3.1,5.8-5.1
			c1.8-2.3,3.7-5.4,4.1-8.3c0-0.8-0.3-1.5-0.7-2.2c-0.3-0.8-0.6-1.6-0.8-2.4c-0.5-1.4-0.8-2.9-1.1-4.3c-0.5-2.6-1.2-5.9,0-8.6
			c0.3-0.2,0.4-0.5,0.4-0.8c0.1-0.1,0.1-0.2,0.2-0.3c0.6-0.8,1.5-1.6,2.3-2.4c1.1-1.4,1.9-2.9,2.4-4.6c0.7-2.2,0.2-5.8,3-6.4
			c1.2-0.4,3-0.1,3.7,1.1c0.6,1,0.5,2.3,0.7,3.4c0.5,3,1.8,5.8,3.8,8c0.3,0.3,0.5,0.5,0.7,0.8c-0.1,0.5,0.2,1,0.7,1.2
			C65.4,52,65,55,64.3,57.9z"/>
		<path fill="#000911" d="M58.4,42c0.1-0.1,0.2-0.2,0.2-0.3c0-0.1,0.1-0.2,0.1-0.4s0-0.2-0.1-0.4c0-0.1-0.1-0.2-0.2-0.3
			c-0.1-0.1-0.2-0.2-0.3-0.2c-0.1,0-0.2-0.1-0.4-0.1c-0.1,0-0.2,0-0.4,0.1c-0.1,0-0.2,0.1-0.3,0.2c-0.5,0.6-1,1.2-1.6,1.7
			c-0.5-0.6-0.9-1.2-1.4-1.7c-0.2-0.2-0.4-0.3-0.7-0.3c-0.2,0-0.5,0.1-0.7,0.3c-0.2,0.2-0.3,0.4-0.3,0.7c0,0.2,0.1,0.5,0.3,0.7
			c0.7,0.8,1.3,1.7,2,2.5c0.2,0.2,0.4,0.3,0.7,0.3s0.5-0.1,0.7-0.3C56.9,43.7,57.7,42.8,58.4,42z"/>
		<path fill="#000911" d="M53.7,65.8c-0.6-0.3-1.3-0.3-1.9-0.2c-0.6,0.1-1.1,0.5-1.4,1c-0.5,0.6-0.7,1.3-0.7,2
			c0,0.3,0.1,0.5,0.3,0.7s0.4,0.3,0.7,0.3c0.1,0,0.2,0,0.3,0c0.1,0,0.2-0.1,0.2-0.2c0.1-0.1,0.1-0.2,0.1-0.3c0-0.1,0-0.2,0-0.3v-0.2
			v-0.2c0,0,0.1-0.2,0-0.1c-0.1,0.1,0,0,0-0.1c0-0.1,0.1-0.1,0.1-0.2l0.1-0.1l0.1-0.1c0,0,0.1,0,0.1,0c0,0,0-0.1,0-0.1
			c0.1,0,0.2-0.1,0.4-0.1h0.5c0,0,0.1,0,0.1,0c0,0,0,0.1,0,0.1c0.1,0.1,0.2,0.1,0.2,0.2c0,0,0-0.1,0-0.1l0.1,0.1c0,0,0,0.1,0,0.1
			c0,0,0.1,0,0.1,0c0,0.1,0.1,0.2,0.1,0.2c0-0.1-0.1-0.1,0-0.1V68v0.6c0,0.3,0.1,0.5,0.3,0.7s0.4,0.3,0.7,0.3c0.5,0,0.8-0.4,1-1
			c0-0.6-0.1-1.2-0.4-1.7C54.6,66.4,54.2,66,53.7,65.8z"/>
		<path fill="#000911" d="M60.2,65.8c-0.6-0.3-1.3-0.3-1.9-0.2c-0.6,0.1-1.1,0.5-1.4,1c-0.5,0.6-0.7,1.3-0.7,2
			c0,0.3,0.1,0.5,0.3,0.7c0.2,0.2,0.4,0.3,0.7,0.3c0.1,0,0.2,0,0.3,0c0.1,0,0.2-0.1,0.2-0.2c0.1-0.1,0.1-0.2,0.1-0.3
			c0-0.1,0-0.2,0-0.3v-0.2v-0.2c0,0,0.1-0.2,0-0.1s0,0,0-0.1s0.1-0.1,0.1-0.2l0.1-0.1l0.1-0.1c0,0,0.1,0,0.1,0c0,0,0-0.1,0-0.1
			c0.1,0,0.2-0.1,0.4-0.1h0.5c0,0,0.1,0,0.1,0c0,0,0,0.1,0,0.1c0.1,0.1,0.2,0.1,0.2,0.2c0,0,0-0.1,0-0.1l0.1,0.1c0,0,0,0.1,0,0.1
			c0,0,0.1,0,0.1,0c0,0.1,0.1,0.2,0.1,0.2c0-0.1-0.1-0.1,0-0.1V68v0.6c0,0.3,0.1,0.5,0.3,0.7c0.2,0.2,0.4,0.3,0.7,0.3
			c0.5,0,0.8-0.4,1-1c0-0.6-0.1-1.2-0.4-1.7C61.2,66.4,60.8,66,60.2,65.8z"/>
	</g>
</g>
</svg>
