<svg xmlns="http://www.w3.org/2000/svg" viewBox="0 0 195 62"><defs><style>.cls-1{fill:#fff;}.cls-2{fill:#009a49;}</style></defs><g id="Layer_1" data-name="Layer 1"><rect class="cls-1" width="195" height="62"/></g><g id="Layer_2" data-name="Layer 2"><path class="cls-2" d="M.81,26.07l6.07-2.4v6.59H11v4.05H6.79v7.53a1.46,1.46,0,0,0,.33,1,1.56,1.56,0,0,0,1.22.52H11V47.2H3.73A3.17,3.17,0,0,1,.81,44.28Z"/><path class="cls-2" d="M15.16,22.92V47.2h6.31V37.08a3,3,0,0,1,2.78-3.43,3,3,0,0,1,2.82,3.43V47.2h6.21V35.44a7.37,7.37,0,0,0-4-4.85,7.23,7.23,0,0,0-7.76,1.46V29.18a6,6,0,0,0-6.36-6.26Z"/><path class="cls-2" d="M52.27,31.64a9,9,0,0,0-5.82-1.9,9.26,9.26,0,0,0-6.67,2.11A9.33,9.33,0,0,0,37,39.26a8.5,8.5,0,0,0,2.26,5.93c2.24,2.31,5.18,2.37,6.7,2.4,1.28,0,4.69.09,7.13-2.44A7.91,7.91,0,0,0,55,41.66H49.13A3.53,3.53,0,0,1,46,44.27a3.65,3.65,0,0,1-3.31-4.13H55C55.08,39.76,55.82,34.63,52.27,31.64Zm-3.18,5H42.67a3.27,3.27,0,1,1,6.42,0Z"/><path class="cls-2" d="M58.66,30.15h6.07v3.46a5.93,5.93,0,0,1,3.32-3.25,5.61,5.61,0,0,1,2.86-.21v5.3c-.15,0-3-.78-4.84,1.09a4.44,4.44,0,0,0-1.18,2.31V47.2h-6Z"/><path class="cls-2" d="M137,47.2h-6.35v-17H137v2.68a7.23,7.23,0,0,1,6-2.93,7.07,7.07,0,0,1,5.12,2.93,7.19,7.19,0,0,1,8.43-2.58,7,7,0,0,1,3.6,4.49V47.2h-5.78V35.84a2.92,2.92,0,0,0-5.62,0V47.2h-6.38V36.36a2.67,2.67,0,0,0-5.33,0Z"/><path class="cls-2" d="M80.75,47.2H74.4v-17h6.35v2.68a7.23,7.23,0,0,1,6-2.93,7.09,7.09,0,0,1,5.12,2.93,7.19,7.19,0,0,1,8.43-2.58,7,7,0,0,1,3.6,4.49V47.2H98.12V35.84a2.92,2.92,0,0,0-5.62,0V47.2H86.12V36.36a2.67,2.67,0,0,0-5.33,0Z"/><path class="cls-2" d="M117.36,29.51c-5.51,0-10,4-10,9s4.45,9,10,9,10-4,10-9S122.86,29.51,117.36,29.51Zm-.14,14.81c-1.92,0-3.48-2.55-3.48-5.71s1.56-5.7,3.48-5.7,3.49,2.55,3.49,5.7S119.15,44.32,117.22,44.32Z"/><path class="cls-2" d="M165.14,30.88V47.2h6.21V32.75a6.18,6.18,0,0,1-3,0A6.28,6.28,0,0,1,165.14,30.88Z"/><polygon class="cls-2" points="175.34 30.12 182.61 30.12 184.87 35.59 187.38 30.12 193.76 30.12 188.44 38.34 194.19 47.2 186.78 47.2 184.02 40.92 181.16 47.2 174.71 47.2 180.35 38.34 175.34 30.12"/><path class="cls-2" d="M165.14,19.28c-3.07,1.07-5.12,3.19-5.13,5.36a3.73,3.73,0,0,0,.44,1.77l4.69-1.9c1,3,3.09,5,5.29,5.13a3.92,3.92,0,0,0,1.81-.37l-2.09-4.8c2.89-.71,5-2.61,5.19-4.76a4.22,4.22,0,0,0-.39-2.23l-4.62,2c-.9-2.91-2.94-4.92-5.15-5.05a4.33,4.33,0,0,0-2.16.46Q164.08,17.08,165.14,19.28Z"/></g></svg>