<?xml version="1.0" encoding="UTF-8"?>
<svg xmlns="http://www.w3.org/2000/svg" xmlns:xlink="http://www.w3.org/1999/xlink" width="0" height="0">
<defs>
  <symbol id="icon-arrow" xmlns="http://www.w3.org/2000/svg" viewBox="0 0 32 32">
    <path
      d="M 12.96875 4.28125 L 11.53125 5.71875 L 21.8125 16 L 11.53125 26.28125 L 12.96875 27.71875 L 23.96875 16.71875 L 24.65625 16 L 23.96875 15.28125 Z"
    />
  </symbol>
  <symbol id="checkbox" viewBox="0 0 20 20">
    <path
      d="M7.629,14.566c0.125,0.125,0.291,0.188,0.456,0.188c0.164,0,0.329-0.062,0.456-0.188l8.219-8.221c0.252-0.252,0.252-0.659,0-0.911c-0.252-0.252-0.659-0.252-0.911,0l-7.764,7.763L4.152,9.267c-0.252-0.251-0.66-0.251-0.911,0c-0.252,0.252-0.252,0.66,0,0.911L7.629,14.566z"
      style="stroke: white; fill: white"
    ></path>
  </symbol>
  <symbol id="icon-phone" xmlns="http://www.w3.org/2000/svg" version="1.1" viewBox="0 0 17 17">
    <path d="M14.5,16.5h-.2c-2.4-.3-4.7-1.1-6.7-2.4-1.9-1.2-3.5-2.8-4.7-4.7C1.6,7.4.8,5.1.5,2.7v-.8c0-.3.2-.5.4-.7.2-.2.4-.4.7-.5s.5-.2.8-.2h2.3c.5,0,1,.2,1.3.5.4.3.6.8.7,1.2,0,.7.3,1.4.5,2,0,.4.2.7,0,1.1,0,.4-.3.7-.5,1l-.7.7c1,1.6,2.3,2.9,3.8,3.8l.7-.7c.3-.3.6-.5,1-.5h1.1c.6.2,1.3.4,2,.5.5,0,.9.3,1.3.7.3.4.5.8.5,1.3v2.3c0,.3,0,.6-.2.8-.1.3-.3.5-.5.7-.2.2-.4.3-.7.4-.2,0-.4.1-.6.1h0ZM4.8,1.5h-2.7c0,0-.2.1-.3.2,0,.1-.2.2-.2.4v.4c.2,2.2,1,4.4,2.2,6.3,1.1,1.7,2.6,3.3,4.4,4.4,1.9,1.2,4.1,2,6.3,2.2h.4c.1,0,.3-.1.4-.2.1,0,.2-.2.2-.3v-2.7h0c0-.3,0-.5-.2-.7s-.4-.3-.6-.3c-.8,0-1.5-.3-2.2-.6h-.6c-.2,0-.4.1-.5.3l-1,1c-.2.2-.4.2-.6,0-2-1.1-3.6-2.7-4.7-4.7,0-.2,0-.4,0-.6l1-1c0,0,.2-.3.3-.5v-.6c-.3-.7-.5-1.5-.6-2.2,0-.2-.2-.5-.3-.6-.2-.2-.4-.2-.7-.2ZM13,7.5c-.2,0-.4-.2-.5-.4-.1-.6-.4-1.2-.9-1.7s-1-.8-1.7-.9c-.3,0-.4-.3-.4-.6s.3-.4.6-.4c.8.2,1.6.6,2.2,1.2.6.6,1,1.4,1.2,2.2,0,.3-.1.5-.4.6h-.1ZM16,7.5c-.3,0-.5-.2-.5-.4-.2-1.4-.8-2.7-1.8-3.7-1-1-2.3-1.6-3.8-1.8-.3,0-.5-.3-.4-.5,0-.3.3-.5.5-.4,1.6.2,3.2.9,4.4,2.1,1.2,1.2,1.9,2.7,2.1,4.3,0,.3-.2.5-.4.6h0v-.2Z"/>
  </symbol>
  <symbol id="icon-mail" xmlns="http://www.w3.org/2000/svg" version="1.1" viewBox="0 0 17 17">
    <path d="M14.5,15H2.5c-1.1,0-2-.9-2-2V4.8h0v-.8c0-1.1.9-2,2-2h12c1.1,0,2,.9,2,2v.7h0v8.3c0,1.1-.9,2-2,2ZM1.5,5.7v7.3c0,.6.4,1,1,1h12c.6,0,1-.4,1-1v-7.3l-6,3.8c-.6.4-1.5.4-2.1,0L1.5,5.7ZM1.5,4.5l6.5,4.1c.3.2.7.2,1,0l6.5-4.1v-.5c0-.6-.4-1-1-1H2.5c-.6,0-1,.4-1,1v.5Z"/>
  </symbol>
  <symbol id="icon-map" xmlns="http://www.w3.org/2000/svg" version="1.1" viewBox="0 0 17 17">
    <path d="M15.2,16.5h-4.5c-.3,0-.6-.1-.9-.4s-.4-.6-.4-.9v-3c0-.2,0-.4.1-.6,0-.2.2-.3.4-.4l2.2-1.5c.4-.3,1-.3,1.4,0l2.2,1.5c.2.1.3.3.4.5,0,.2.1.4.1.6v3c0,.3-.1.7-.4.9-.2.2-.5.4-.9.4h.3ZM13.5,15.5h2v-3.2h0c0-.1-2.2-1.6-2.2-1.6h-.3l-2.3,1.5h0v3.3h2v-1.8c0-.3.2-.5.5-.5s.5.2.5.5v1.8h-.2ZM7,16.5c-.3,0-.5,0-.8-.3C4.5,14.7.5,10.9.5,7s.7-3.4,1.9-4.6S5.3.5,7,.5s3.4.7,4.6,1.9c1.2,1.2,1.9,2.9,1.9,4.6s-.2.5-.5.5-.5-.2-.5-.5c0-1.5-.6-2.9-1.6-3.9s-2.4-1.6-3.9-1.6-2.9.6-3.9,1.6-1.6,2.4-1.6,3.9c0,3.6,4.1,7.4,5.4,8.5h0c.3,0,.5.2.5.5s-.2.5-.5.5ZM7,9.8c-1.5,0-2.8-1.2-2.8-2.8s1.2-2.8,2.8-2.8,2.8,1.2,2.8,2.8-1.2,2.8-2.8,2.8ZM7,5.2c-1,0-1.8.8-1.8,1.8s.8,1.8,1.8,1.8,1.8-.8,1.8-1.8-.8-1.8-1.8-1.8Z"/>
  </symbol>
  <symbol id="icon-facebook" xmlns="http://www.w3.org/2000/svg" version="1.1" viewBox="0 0 10 17">
    <path d="M6.1,16.5h-3c-.3,0-.5-.2-.5-.5v-5.5H.9c-.3,0-.5-.2-.5-.5v-3c0-.3.2-.5.5-.5h1.8v-1.8c0-1.1.4-2.2,1.2-3S5.8.5,6.9.5h2.2c.3,0,.5.2.5.5v3c0,.3-.2.5-.5.5h-2.4v2h2.5c.2,0,.3,0,.4.2,0,0,.1.3,0,.4l-.8,3c0,.2-.3.4-.5.4h-1.8v5.5c0,.3-.2.5-.5.5h.1ZM3.6,15.5h2v-5.5c0-.3.2-.5.5-.5h1.9l.5-2h-2.4c-.3,0-.5-.2-.5-.5v-2.2c0-.3,0-.7.4-.9s.5-.4.9-.4h1.8V1.5h-1.8c-.9,0-1.7.3-2.3,1-.6.6-1,1.4-1,2.3v2.2c0,.3-.2.5-.5.5h-1.8v2h1.8c.3,0,.5.2.5.5,0,0,0,5.5,0,5.5Z"/>
  </symbol>
  <symbol id="icon-quality" xmlns="http://www.w3.org/2000/svg" width="70" height="70" version="1.1" viewBox="0 0 70 70">
    <path d="M0,34.5c.3-.6.8-.8,1.4-.7,2.1.3,4.3.6,6.4,1,.7.1,1,.7.9,1.2-.1.6-.7.9-1.3.8-1.5-.3-3.1-.5-4.7-.8.7,1.7,1.4,3.2,2.1,4.7.3.7.4,1.3,0,2-.7,1.4-1.3,2.9-1.9,4.3,0,.2-.2.4-.3.6,2.4.4,4.8.8,7.3,1.3v-5.5c0-.6.2-1,.6-1.4,1.6-1.3,3.3-2.3,5.4-3-1.1-.4-2.1-.7-3.1-.9-.3,0-.6-.1-.8-.3-.6-.2-.9-.8-.7-1.3s.7-.8,1.3-.7c1.1.3,2.1.6,3.1,1,1.2.4,2.4.9,3.6,1.3.6.2.9.6.9,1.3v4.9c0,.4,0,.6.6.7,9.5,2.2,19,2.2,28.5,0,.4,0,.5-.2.5-.6v-4.9c0-.7.3-1.1.9-1.4,5.6-2.1,11.4-3.6,17.4-4.3h.7c1,0,1.4.6,1.1,1.5-.8,1.9-1.6,3.8-2.5,5.7-.2.5-.2.9,0,1.3.8,1.8,1.6,3.6,2.4,5.4.5,1.2.2,1.7-1,1.9-.7,0-1.4.2-2.2.2s-1.1-.3-1.2-.8c0-.6.3-1,1-1.2.4,0,.7,0,1.1-.2-.7-1.6-1.3-3.1-2-4.6-.5-1-.5-1.8,0-2.8.7-1.4,1.2-2.8,1.9-4.3-4.5.6-8.8,1.6-12.9,3,1.4.8,2.8,1.6,4.2,2.4,1.2.7,1.7,1.6,1.6,3.1,0,1.5,0,2.9,0,4.5.5,0,.9-.2,1.3-.3.7,0,1.2.2,1.3.7,0,.6-.2,1.1-.9,1.2-.4,0-.8.2-1.3.3-.4,0-.5.3-.5.6v4.9c0,.8-.3,1.2-1,1.5-8.1,3.1-16.5,4.7-25.2,4.6-8,0-15.7-1.8-23.1-4.6-.6-.2-.9-.7-.9-1.3v-5.5c-1.4-.3-2.7-.6-4.1-.8-1.5-.3-3.1-.5-4.6-.6-.6,0-.9-.3-1.2-.7v-.7c.6-1.3,1.2-2.6,1.7-3.8.4-.9,1-1.8,1-2.6s-.6-1.8-1-2.7C1.2,37.8.6,36.5,0,35.3v-.7h0ZM11.9,53.8v1.8c0,.2.2.5.4.6,6,2.3,12.2,3.6,18.6,4.1,4.4.3,8.8,0,13.2-.5,4.6-.7,9.1-1.9,13.5-3.5.2,0,.4-.2.4-.4v-2c-.3,0-.5.2-.8.2-2.8.8-5.7,1.6-8.5,2.4-.7.2-1.2-.2-1.3-.8s.2-1,.8-1.2c.2,0,.3,0,.5,0,2.9-.9,5.9-1.7,8.8-2.6.2,0,.4-.2.4-.4v-2.3c-.2,0-.3,0-.4,0-4.4,1.6-8.9,2.7-13.5,3.4-.7,0-1.2-.2-1.3-.8s.2-1.1.9-1.2c.8,0,1.5-.3,2.3-.4,3.9-.7,7.7-1.8,11.4-3.2.2,0,.5-.2.5-.4v-2.3c-15.4,5.6-30.7,5.6-46,0-.2,1.6.4,2.6,1.8,3.1h.2c3.9,1.4,8,2.3,12.1,3,.7,0,1.1.6,1,1.2-.1.6-.6.9-1.3.8-4.5-.7-8.8-1.8-13.1-3.3-.2,0-.5,0-.8-.2v1.8c0,.5.2.7.6.9,3,.9,6,1.8,9,2.6.8.2,1.2.7,1,1.3-.1.6-.7.9-1.5.7-1.9-.5-3.9-1-5.8-1.6-1.1-.3-2.1-.7-3.3-1.1l.2.3ZM18.1,40.5c-1.8.5-3.5,1.1-5.1,2.3,1.8.6,3.4,1.1,5.1,1.6,0,0,0-3.9,0-3.9ZM57,42.7c-1.6-1.1-3.3-1.8-5.1-2.2v3.8c.6-.2,1.1-.3,1.6-.5,1.1-.4,2.2-.7,3.5-1.1ZM0,19.7c.4-1.1,1.2-1.6,2.2-1.8s2-.4,3.1-.7c.3-.1.7-.4.9-.7.7-1,1.3-2.1,1.9-3.1,1-1.6,2.8-1.6,3.8,0,.6,1,1.2,1.9,1.8,2.9.2.3.4.4.8.3.9-.1,1.6-.6,2-1.4.7-1.3,1.5-2.5,2.2-3.7,1.1-1.8,3.2-1.8,4.3,0,.8,1.3,1.6,2.6,2.4,4,.3.4.5.4,1,.4,1.6-.1,2.5-1,3.3-2.4.8-1.6,1.8-3,2.7-4.5,1.3-2.1,3.8-2.1,5.1,0,1.2,1.9,2.4,3.9,3.6,5.8.2.3.5.5.9.6.7.2,1.6.6,2.2.4.5-.2.8-1.1,1.2-1.7.6-.9,1.1-1.8,1.7-2.7,1.1-1.7,3.2-1.7,4.3,0,.9,1.4,1.8,2.9,2.7,4.4.2.4,1.6,1,2,.8,0,0,.3-.2.4-.4.6-.9,1.1-1.9,1.7-2.8,1-1.7,2.9-1.7,3.9,0,.6,1,1.2,2,1.8,3,.3.4.6.6,1.1.7,1.1.2,2.2.5,3.3.8,1.9.5,2.4,2.2,1.2,3.7-.7.9-1.5,1.8-2.2,2.7-.2.3-.4.7-.4,1.1,0,1.1,0,2.2.2,3.3.2,2.2-1.3,3.3-3.3,2.4-1-.4-2.1-.8-3.1-1.3s-.8-.2-1.2,0c-.5.3-1.1.5-1.7.7v1.1c0,1.9-1.6,3.1-3.4,2.4-1.6-.6-3.2-1.3-4.8-1.9-.3-.1-.7-.1-1,0-.8.3-1.6.7-2.3.9-.4.1-.5.4-.4.8v1.4c0,2-1.9,3.4-3.8,2.7-1.8-.7-3.5-1.4-5.3-2.2-.7-.3-.9-.8-.6-1.4.2-.6.8-.8,1.4-.5,1.5.6,3,1.2,4.5,1.9.2,0,.4.2.6.2.8.2,1.2,0,1.1-.9,0-1.6-.2-3.1-.3-4.7,0-1-.2-2-.2-2.9s.2-.9.4-1.3c1.5-1.9,3.1-3.7,4.7-5.6.7-.8.5-1.4-.5-1.6-2.4-.6-4.8-1.1-7.2-1.8-.4-.1-.9-.4-1.1-.8-1.3-2-2.6-4.1-3.8-6.2-.6-1-1.2-1-1.8,0-1.3,2.1-2.5,4.2-3.8,6.2-.2.4-.7.7-1.2.8-2.3.6-4.6,1.1-6.8,1.7-.2,0-.4,0-.5.1-.8.3-.9.8-.4,1.5,1.2,1.5,2.4,3,3.7,4.4,1.2,1.2,1.8,2.5,1.5,4.3-.3,1.9-.3,3.9-.5,5.8,0,1.1.4,1.4,1.4,1,1.6-.6,3.2-1.3,4.7-2,.8-.3,1.3-.1,1.6.4.3.6,0,1.1-.8,1.5-1.6.7-3.2,1.4-4.9,2-2.2.9-4.2-.5-4.1-2.9v-.3c0-1.5,0-1.4-1.3-2.1s-2.5-.7-3.8,0c-1,.6-2.2.9-3.3,1.4-2,.8-3.8-.5-3.5-2.7,0-.7-.2-.9-.7-1.2-1.1-.6-2-.6-3.1,0-.8.4-1.6.7-2.4,1-1.7.7-3.2-.4-3-2.3,0-1.2.2-2.5.3-3.7,0-.3,0-.7-.3-.9-.7-.8-1.4-1.6-2.1-2.5-.4-.5-.6-1-.9-1.5v-.8l.2.4ZM45.7,31.2c.9-.4,1.8-.7,2.6-1.1s1.1-.2,1.6,0c1.7.7,3.3,1.4,5,2.1.7.3.9.1.8-.6,0-1.8-.3-3.6-.4-5.4,0-.6,0-1,.5-1.4,1.2-1.3,2.3-2.7,3.5-4,.6-.7.5-.9-.3-1.1-1.7-.4-3.4-.8-5-1.2-.7-.1-1.1-.5-1.5-1.1-.9-1.5-1.8-3-2.8-4.5-.2-.3-.5-.7-.8-.2-.9,1.3-1.6,2.6-2.5,4,.8.2,1.5.4,2.2.5,2.5.6,3.3,3,1.6,4.9-1.5,1.7-2.9,3.4-4.4,5.2-.2.2-.3.5-.3.7,0,1.1.2,2.2.3,3.3h0ZM24.3,31.2c0-1.1.2-2.2.3-3.2,0-.3-.1-.6-.3-.8-1.5-1.8-3-3.5-4.5-5.3-.2-.3-.4-.6-.6-.9-.6-1.6.2-3.2,1.9-3.8.8-.3,1.7-.4,2.6-.7-.8-1.3-1.6-2.6-2.3-3.8-.4-.6-.6-.6-1,0-1,1.5-1.9,3.1-2.9,4.7-.3.5-.7.8-1.2.9-1.8.4-3.5.8-5.3,1.3-.7.2-.8.4-.3,1,1.2,1.4,2.4,2.8,3.6,4.2.2.3.4.8.4,1.2,0,1.9-.3,3.7-.4,5.6,0,.8.1.9.9.6,1.7-.7,3.4-1.4,5.1-2.1.4-.2.9-.1,1.4,0,.9.3,1.8.7,2.8,1.1h-.2ZM58.2,17.3c.5.1,1,.2,1.4.3,2.2.6,2.8,2.5,1.4,4.2-1.1,1.2-2.1,2.5-3.2,3.7,0,.2-.3.4-.3.6,0,.7,0,1.5,0,2.2h0c0,0,.3,0,.4-.1,1.3-.8,2.6-.8,4,0,0,0,.2,0,.3.1.9.3,1.7.7,2.7,1.1,0-1.5-.2-3-.3-4.4,0-.6,0-1.1.5-1.6,1-1.1,1.9-2.2,2.9-3.4-1.6-.4-3.1-.7-4.5-1.1-.4-.1-.8-.4-1-.7-.8-1.1-1.5-2.3-2.2-3.5,0,0-.2-.3-.3-.4-.6,1-1.2,1.9-1.8,2.9h-.2ZM2,20.1c1,1.2,1.9,2.2,2.8,3.3.5.6.7,1.1.6,1.9-.2,1.4-.2,2.7-.3,4.2.3-.1.5-.2.7-.3,1.1-.5,2.3-.9,3.4-1.4.6-.3,1.1-.3,1.6,0,.5.2,1,.4,1.6.7,0-.6,0-1.1.1-1.6.1-.6,0-1-.5-1.5-1.1-1.2-2.1-2.4-3.1-3.6-1.3-1.6-.6-3.6,1.4-4.1.5-.1.9-.2,1.5-.4-.6-1-1.2-2-1.8-3-.8,1.3-1.5,2.4-2.2,3.6-.4.7-.9,1-1.6,1.2-1.4.3-2.7.6-4.1,1h-.1Z"/>
  </symbol>
  <symbol id="icon-modern" xmlns="http://www.w3.org/2000/svg" width="70" height="70" version="1.1" viewBox="0 0 70 70">
    <path d="M48.7,56.8c0,.5,0,.8,0,1.2,0,.6-.3.9-.8,1-.2,0-.4.1-.5,0-1.5,0-1.9,1-2.2,2.1,0,.2,0,.5.1.6.3.5.6.9.9,1.3.3.4.3.8-.1,1.2-.9.9-1.9,1.8-2.8,2.8-.4.4-.8.4-1.2.1-.1,0-.3-.2-.4-.3-.9-.8-1.7-.9-2.8-.3-.4.2-.7.4-.7,1,0,.3-.1.6-.2.9q-.3,1.3-1.6,1.3c-1.1,0-2.2,0-3.3,0-.6,0-1-.3-1.1-.9,0-.2,0-.3,0-.5,0-1.1-.6-1.8-1.7-2.1-.5-.1-.8-.2-1.3.1-2,1.4-1.6,1.3-3.3-.3-.6-.6-1.2-1.2-1.8-1.8-.4-.4-.4-.8-.1-1.2.1-.2.2-.4.4-.5.8-.8.8-1.6.3-2.6-.3-.5-.5-.8-1-.8-.2,0-.4,0-.6-.1q-1.4-.3-1.5-1.8c0-.1,0-.3,0-.5H1.2c-1.1,0-1.2-.1-1.2-1.2C0,43.6,0,31.6,0,19.6c0-.7.2-1.1.8-1.4,2.6-1.5,5.1-3.1,7.6-4.7.4-.3.6-.5.5-1,0-.2,0-.4,0-.6,0-.8.2-1,1-1,.6,0,1.2,0,1.9,0,0-.5,0-.9,0-1.3,0-.8.2-1,1-1,3.1,0,6.2,0,9.4,0,.6,0,1,.3.9.9,0,.5,0,.9,0,1.4h1.5c0-.4.2-.8-.4-1.1-.2,0-.3-.5-.3-.7,0-.8,0-1.7,0-2.5,0-.6.3-.9.9-.9.7,0,1.5,0,2.3,0,0-.5,0-1.1,0-1.6,0-.7.3-.9.9-.9,1.6,0,3.3,0,5,0,0-.8,0-1.4,0-2.1,0-.6.3-1,.9-.9.7,0,1.4,0,2,0,.7,0,.9.3.9,1,0,.7,0,1.3,0,2.1h2.2c.9,0,1.9,0,2.8,0,.6,0,.9.3.9.9,0,.5,0,1,0,1.5.8,0,1.5,0,2.2,0,.8,0,1,.2,1,1,0,.7,0,1.4,0,2,0,.5,0,.9-.6,1.2-.2,0-.1.6-.2.9h1.5v-1.4c0-.6.3-.9.9-.9,3.2,0,6.3,0,9.5,0,.6,0,.9.3.9.9,0,.5,0,.9,0,1.5.7,0,1.3,0,2,0,.6,0,1,.3.9.9-.1,1,.3,1.6,1.2,2.1,2.4,1.4,4.7,2.9,7.1,4.3.5.3.7.7.7,1.3,0,12,0,24.1,0,36.1s-.1,1.2-1.2,1.2h-19.2c-.3,0-.5,0-.9,0ZM45.3,12.4c0,.2,0,.3,0,.4,0,11.3,0,22.6,0,33.8,0,.3.2.6.4.8.9,1,1,1,.2,2-.7.9-.8,1.8-.2,2.8.2.4.4.7.9.7.5,0,.9.2,1.4.3.6.1.9.4.8,1,0,.4,0,.8,0,1.2h10.9V12.4h-14.2ZM21.3,55.4c0-.4,0-.8,0-1.1,0-.7.3-1,.9-1.1.5,0,1-.2,1.5-.3.2,0,.4-.2.5-.4.6-1.1,1-2.1-.1-3.1,0,0,0-.1-.1-.2-.5-.8-.5-1,.1-1.6.4-.4.6-.8.6-1.4,0-11,0-22,0-33v-.9h-14.3v43c3.6,0,7.2,0,10.9,0ZM43.7,45.6c0,0,.1,0,.2-.1V10h-17.7v35.7c1-1.6,1.8-.7,2.7-.1,0,0,.1,0,.2.1.4.4.8.3,1.3.2,1.1-.3,1.7-.9,1.7-2s0-.4,0-.5c0-.6.4-.8,1-.8,1.3,0,2.6,0,3.8,0,.6,0,.9.3,1,.8,0,.5.2,1.1.3,1.6,0,.2.3.5.5.6,1.6.8,1.6.8,3.1-.2,0,0,.2-.1.3-.2.4-.3.9-.3,1.2.1.1.2.2.3.4.5ZM68.6,55.4c0-.2,0-.2,0-.3,0-11.7,0-23.4,0-35.1,0-.3-.2-.6-.5-.7-2.2-1.4-4.4-2.7-6.6-4.1-.1,0-.3-.1-.4-.2v40.5c2.5,0,5,0,7.5,0ZM1.4,55.4h7.5V14.9c-2.4,1.4-4.6,2.9-6.9,4.2-.4.3-.6.5-.6,1.1,0,11.5,0,23,0,34.5v.7ZM25.3,63.6c.8.8,1.5,1.5,2.2,2.3.4-.3.9-.6,1.4-.9.4-.3.8-.4,1.3-.1.6.3,1.2.6,1.8.7.7.2,1.1.7,1.2,1.4.2,1.4.3,1.4,1.7,1.4s1.7,0,2-1.7c.1-.6.4-.9.9-1,.7-.3,1.4-.6,2.1-.9.4-.2.8-.2,1.2.1.5.4,1,.7,1.4.9.8-.8,1.5-1.5,2.3-2.2-.3-.4-.5-.8-.8-1.1-.5-.6-.6-1.1-.2-1.8.3-.5.5-1,.6-1.5.2-.7.7-1.1,1.4-1.2,1.4-.2,1.4-.3,1.4-1.8s0-1.7-1.7-2c-.6,0-.9-.3-1.1-.9-.3-.7-.5-1.4-.9-2.1-.2-.5-.2-.9.1-1.3.3-.5.6-1,1-1.5-.4-.4-.8-.7-1.1-1.1-.4-.4-.7-.8-1.1-1.3-1.4,1.9-2.9,1.5-4.4.7,0,0-.1,0-.2,0-.7-.2-1-.6-1.2-1.4-.3-1.4-.3-1.4-1.7-1.4s-1.7,0-2,1.6c-.1.6-.4.9-.9,1.1-.7.3-1.5.6-2.2.9-.3,0-.7,0-1,0-.6-.3-1.1-.7-1.5-1-.8.8-1.5,1.5-2.3,2.3.3.4.6.9.9,1.3.3.4.3.8.1,1.3-.3.6-.6,1.2-.7,1.8-.2.8-.7,1.1-1.4,1.2-1.4.2-1.4.3-1.4,1.6s0,1.8,1.7,2.1c.6.1.9.4,1,.9.3.7.5,1.4.8,2,.3.5.2,1-.2,1.4-.3.4-.6.9-.8,1.3ZM25.4,8.5h19.2v-1.3h-19.2v1.3ZM28.6,5.7h12.8v-1h-12.8v1ZM48.3,10.9h8.4v-.9h-8.4v.9ZM21.8,10h-8.4v.9h8.4v-.9ZM34.5,3.2h1v-1.6h-1v1.6ZM56.8,40.1c.5,0,.9-.2.9-.7,0-.5-.4-.7-.9-.7-.8,0-1.6,0-2.4,0s-.9.3-.9.9c0,.8,0,1.6,0,2.4s.2.9.7.9c.5,0,.7-.4.7-.8,0-.6,0-1.2,0-1.9.7,0,1.3,0,1.9,0ZM56.8,26.3c.5,0,.9-.2.9-.7,0-.5-.4-.7-.8-.7-.8,0-1.6,0-2.4,0-.6,0-.9.3-.9.9,0,.8,0,1.6,0,2.4s.2.9.7.9c.5,0,.7-.3.7-.8,0-.6,0-1.2,0-1.9.7,0,1.3,0,1.9,0ZM50.5,33.2c.5,0,.9-.1.9-.7,0-.5-.3-.7-.8-.7-.8,0-1.6,0-2.4,0-.5,0-.8.3-.8.8,0,.8,0,1.6,0,2.4,0,.5.2.9.7.8s.7-.4.7-.9c0-.6,0-1.2,0-1.9.7,0,1.2,0,1.8,0ZM56.8,19.5c.5,0,.8-.2.8-.7,0-.5-.3-.7-.8-.7-.8,0-1.6,0-2.4,0-.6,0-.9.3-.9.9,0,.8,0,1.6,0,2.4,0,.5.2.8.7.8.5,0,.7-.4.7-.8,0-.6,0-1.2,0-1.9h1.9ZM56.8,33.2c.5,0,.8-.2.8-.7,0-.5-.3-.7-.8-.7-.9,0-1.7,0-2.6,0-.5,0-.8.3-.8.8,0,.8,0,1.7,0,2.5,0,.5.2.8.7.8.5,0,.7-.3.7-.8,0-.6,0-1.2,0-1.9.7,0,1.3,0,1.9,0ZM50.6,26.3c.5,0,.8-.2.8-.7,0-.5-.4-.7-.8-.7-.8,0-1.6,0-2.4,0-.6,0-.9.3-.8.9,0,.8,0,1.6,0,2.4,0,.5.2.9.7.9.5,0,.7-.4.7-.8v-1.9c.7,0,1.3,0,1.9,0ZM56.9,46.9c.3,0,.7-.4.7-.6,0-.5-.3-.7-.7-.7-.9,0-1.7,0-2.6,0-.5,0-.8.3-.8.8,0,.8,0,1.7,0,2.5,0,.5.2.8.7.8.5,0,.7-.3.7-.8v-1.9c.7,0,1.4,0,2,0ZM50.6,19.5c.5,0,.8-.2.8-.7,0-.5-.3-.7-.8-.7-.8,0-1.6,0-2.4,0-.6,0-.9.3-.9.8,0,.8,0,1.6,0,2.4,0,.5.2.8.7.8.5,0,.7-.3.7-.8,0-.6,0-1.2,0-1.9.7,0,1.3,0,1.9,0ZM50.6,40.1c.4,0,.7-.2.8-.6,0-.5-.3-.7-.7-.7-.9,0-1.7,0-2.6,0-.5,0-.8.3-.8.9,0,.8,0,1.5,0,2.3,0,.5.1.9.7.9.6,0,.7-.5.7-1,0-.6,0-1.1,0-1.7.7,0,1.3,0,1.9,0ZM50.5,47c.5,0,.9-.1.9-.7,0-.5-.4-.7-.8-.7-.8,0-1.6,0-2.4,0-.6,0-.8.3-.8.9,0,.8,0,1.6,0,2.4,0,.5.2.9.7.8.5,0,.7-.4.7-.9,0-.6,0-1.2,0-1.9.7,0,1.2,0,1.8,0ZM15.7,40.1c.5,0,.8-.2.8-.7,0-.5-.3-.7-.8-.7-.9,0-1.7,0-2.6,0-.5,0-.8.3-.8.8,0,.8,0,1.7,0,2.5,0,.5.2.8.7.8.5,0,.7-.3.7-.8,0-.6,0-1.2,0-1.9.7,0,1.3,0,1.9,0ZM15.7,33.2c.5,0,.8-.2.8-.7,0-.5-.4-.7-.8-.7-.8,0-1.6,0-2.4,0s-.9.3-.9.9c0,.8,0,1.6,0,2.4,0,.5.2.8.7.8.5,0,.7-.4.7-.9,0-.6,0-1.2,0-1.8.7,0,1.3,0,1.9,0ZM15.6,19.5c.5,0,.8-.2.8-.7,0-.5-.3-.7-.8-.7-.8,0-1.7,0-2.5,0s-.8.3-.8.8c0,.9,0,1.7,0,2.6,0,.5.3.8.7.7.5,0,.6-.3.6-.8v-1.9c.7,0,1.3,0,1.9,0ZM15.6,26.3c.5,0,.8-.2.8-.7,0-.5-.3-.7-.8-.7-.8,0-1.7,0-2.5,0-.5,0-.8.3-.8.8,0,.9,0,1.7,0,2.6,0,.5.2.8.7.8.5,0,.7-.3.7-.8,0-.6,0-1.2,0-1.9.7,0,1.3,0,1.9,0ZM21.9,33.2c.5,0,.8-.2.8-.7,0-.5-.3-.7-.8-.7-.8,0-1.7,0-2.5,0-.5,0-.8.3-.8.8,0,.8,0,1.6,0,2.4,0,.5.2.9.7.9.5,0,.7-.4.7-.9,0-.6,0-1.2,0-1.9.7,0,1.3,0,1.9,0ZM15.7,47c.5,0,.8-.3.7-.7,0-.3-.5-.6-.7-.6-.9,0-1.7,0-2.6,0-.5,0-.8.3-.8.8,0,.8,0,1.7,0,2.5,0,.4.2.8.7.8.5,0,.7-.4.7-.8,0-.6,0-1.2,0-1.9.7,0,1.3,0,2,0ZM21.9,40.1c.4,0,.8-.1.8-.7,0-.5-.3-.7-.8-.7-.8,0-1.6,0-2.4,0-.6,0-.8.3-.8.9,0,.8,0,1.5,0,2.3,0,.5.1.9.7.9.6,0,.7-.5.7-1,0-.6,0-1.1,0-1.7.7,0,1.3,0,1.9,0ZM21.9,26.3c.5,0,.8-.2.8-.7,0-.5-.3-.7-.8-.7-.8,0-1.6,0-2.4,0-.6,0-.9.3-.9.9,0,.8,0,1.6,0,2.4,0,.5.2.9.7.9.5,0,.7-.4.7-.9,0-.6,0-1.2,0-1.9.7,0,1.3,0,1.9,0ZM21.8,19.5c.5,0,.9-.1.9-.7,0-.5-.4-.7-.9-.7-.8,0-1.6,0-2.4,0-.6,0-.9.3-.9.8,0,.8,0,1.6,0,2.4,0,.5.1.9.7.9.6,0,.7-.4.7-.9,0-.6,0-1.2,0-1.8.6,0,1.2,0,1.8,0ZM21.9,47c.5,0,.8-.2.8-.7,0-.5-.4-.7-.8-.7-.8,0-1.6,0-2.4,0-.6,0-.9.3-.8.9,0,.8,0,1.6,0,2.4,0,.5.1.9.7.9.6,0,.7-.4.7-.9,0-.6,0-1.2,0-1.8.7,0,1.3,0,1.9,0ZM41,30.4c0,3,0,5.9,0,8.9,0,.9-.2,1.1-1.1,1.1-3.4,0-6.7,0-10.1,0-.8,0-1-.2-1-1,0-6,0-11.9,0-17.9,0-.8.2-1,1-1,3.4,0,6.8,0,10.1,0,.8,0,1,.2,1,1,0,3,0,6,0,9ZM34.2,34.3v-3.1h-3.9v3.1h3.9ZM39.6,31.2h-3.9v3.2h3.9v-3.2ZM34.2,25.1v-3.2h-3.9v3.2h3.9ZM30.3,35.8v3.1h3.9v-3.1h-3.9ZM30.3,26.5v3.1h3.9v-3.1h-3.9ZM35.7,35.8v3.2h3.9v-3.2h-3.9ZM39.6,21.9h-3.9v3.2h3.9v-3.2ZM39.6,26.5h-3.9v3.1h3.9v-3.1ZM35,11.6c1.7,0,3.4,0,5.1,0,.8,0,1,.2,1,1,0,.7,0,1.4,0,2.2s-.3.9-.9.9c-3.5,0-7,0-10.5,0-.6,0-.9-.3-.9-.9,0-.7,0-1.4,0-2.2,0-.8.2-1,1-1,1.7,0,3.5,0,5.2,0ZM30.3,14.2h9.4v-1.2h-9.4v1.2ZM62.5,20.2c0,.3.1.7.3.9,1,.7,2.1,1.3,3.2,1.9.4.2.8.3,1.1-.2.2-.4,0-.8-.4-1-1-.6-2.1-1.2-3.1-1.8-.1,0-.3-.1-.6-.2-.2.2-.5.3-.6.5ZM67.2,26.7c0-.3-.1-.7-.4-.8-1-.6-2.1-1.1-3.1-1.7-.4-.2-.9-.3-1.1.2-.2.5,0,.8.5,1,1,.5,2,1.1,3,1.6.1,0,.3.1.6.2.2-.2.5-.3.6-.5ZM62.5,29.1c0,.3.2.7.4.8,1.1.5,2.2.9,3.3,1.4.4.2.8,0,1-.4.2-.5,0-.8-.5-.9-.9-.4-1.8-.7-2.6-1.1-.3-.1-.6-.2-1-.4-.2.2-.6.4-.6.6ZM62.5,33.4c0,.3.2.7.5.8,1.1.5,2.2.9,3.3,1.2.3,0,.8-.1.9-.3.2-.4,0-.8-.4-.9-.9-.3-1.8-.7-2.7-1-.3,0-.5-.2-.9-.3-.2.2-.6.4-.6.6ZM62.5,37.7c0,.3.3.7.5.8,1,.4,2.1.8,3.1,1.2.4.2.9.1,1-.4.2-.5-.1-.8-.6-1-1-.4-2.1-.7-3.1-1.1-.1,0-.3,0-.6-.1-.2.2-.5.4-.5.6ZM62.5,42c0,.2.2.7.4.7,1.1.4,2.3.7,3.4,1,.4.1.8,0,.9-.5.1-.4,0-.7-.5-.9-.8-.3-1.6-.5-2.4-.7-.4-.1-.8-.2-1.3-.4-.2.2-.5.4-.5.6ZM62.5,46.4c0,.3.2.7.5.8,1.1.3,2.3.6,3.5.8.2,0,.6-.3.7-.5,0-.2-.2-.7-.4-.8-1.2-.3-2.4-.6-3.7-.9-.2.2-.5.4-.5.6ZM6.7,19.8c-1.2.7-2.5,1.4-3.7,2.1-.2.1-.2.6,0,.9,0,.2.6.3.8.2,1.2-.7,2.4-1.3,3.6-2.1.2-.1.2-.5.2-.7,0-.2-.3-.4-.5-.5-.2,0-.3,0-.4,0ZM3.7,27.2c1.2-.6,2.4-1.2,3.5-1.9.2-.1.3-.7.2-.8-.2-.2-.6-.4-.8-.3-1.2.6-2.4,1.2-3.5,1.8-.2.1-.3.5-.2.8,0,.2.3.4.5.5.2,0,.3,0,.4,0ZM7.3,29.8c.2,0,.3-.6.2-.8,0-.2-.5-.5-.7-.4-1.3.5-2.5,1-3.7,1.6-.2,0-.2.5-.2.8,0,.2.4.3.6.5,1.3-.6,2.6-1.1,3.8-1.7ZM3,34.3c-.1,0-.2.6-.2.8,0,.2.5.4.7.4,1.2-.4,2.4-.8,3.6-1.3.2,0,.4-.5.3-.7,0-.2-.3-.4-.6-.6-1.4.5-2.7,1-3.9,1.6ZM7.3,38.3c.1,0,.3-.6.2-.8,0-.2-.5-.4-.7-.4-1.2.4-2.4.8-3.6,1.3-.2,0-.4.5-.3.7,0,.2.3.4.6.6,1.4-.5,2.7-1,3.9-1.5ZM7.2,42.7c.2,0,.4-.6.3-.7-.1-.2-.5-.5-.7-.5-1.2.3-2.4.7-3.6,1.1-.2,0-.4.5-.3.8,0,.2.4.4.5.6,1.4-.4,2.6-.8,3.8-1.2ZM3.2,46.7c-.2,0-.4.6-.4.8,0,.2.5.5.7.5,1.2-.2,2.3-.4,3.5-.8.2,0,.5-.5.5-.8,0-.2-.4-.5-.6-.6-1.4.3-2.6.5-3.7.9ZM35,63.5c-4.1,0-7.4-3.4-7.4-7.4,0-4,3.3-7.3,7.4-7.3,4.1,0,7.4,3.4,7.4,7.4,0,4-3.3,7.3-7.4,7.3ZM41,56.1c0-3.3-2.7-6-6-5.9-3.3,0-6,2.7-5.9,6,0,3.3,2.7,6,6,5.9,3.3,0,6-2.7,5.9-6Z"/>
  </symbol>
  <symbol id="icon-guarantee" xmlns="http://www.w3.org/2000/svg" width="70" height="70" version="1.1" viewBox="0 0 70 70">
    <path d="M34.6,70c-1.3-.7-2.6-1.5-3.9-2.2-3.2-1.8-6.5-3.4-9.5-5.7-8-6.4-12.8-14.5-14.4-24.6-.3-2-.4-4.1-.4-6.1v-12c0-.5.4-.8.9-.9.5,0,.9.2,1,.7v.9c0,4.4,0,8.8,0,13.3.5,10.3,4.7,18.8,12.3,25.7,3.1,2.8,6.8,4.8,10.4,6.7,1.1.6,2.3,1.2,3.4,1.8.2,0,.5,0,.7,0,3.7-2.1,7.6-3.9,11-6.3,8.3-5.9,13.2-14,14.8-24,.3-2,.4-4,.4-6V14.2c0-5.7-.2-1.5-1.6-1.5s-2.9,0-4.3-.4c-4.6-1.2-7.4-4.2-8.5-8.8-.3-1.3-.4-1.4-1.7-1.4h-21c-1.2,0-1.4.2-1.7,1.3-1,5.4-5.6,9.2-11.1,9.3h-2.2c-.7,0-1.1.4-1.1,1.1v1.1c-.2.3-.6.7-.9.7s-.8-.3-1-.6c-.5-1.2,0-3,1.1-3.7.6-.4,1.3-.6,2-.6,1.2-.1,2.5,0,3.7-.2,3.9-.7,6.6-3.5,7.4-7.4,0-.2,0-.4.1-.5C21.3,1,22.5,0,24,0h22C47.6,0,48.8,1,49.1,2.6c.4,2.1,1.2,4,2.8,5.5,1.8,1.7,4.1,2.5,6.6,2.6h2.1c1.7,0,2.9,1.3,3,2.9v3.9c0,5.1,0,10.2,0,15.2-.3,10.6-4.4,19.6-12,27-3.2,3.1-7,5.4-11,7.4-1.6.8-3.1,1.7-4.6,2.5-.2,0-.4.2-.5.4h-.9ZM52.9,30.6c1.4-1.4,1.4-3.2,0-4.7-.9-1-1.9-1.9-2.9-2.8-.4-.4-1-.8-1.5-.9-1,0-1.5-.6-2.1-1.2,0-.1-.2-.2-.3-.3-.4-.5-.9-.6-1.6-.4-.8.3-1.5.5-2.3.8h-.7c-1.1-.3-1.9-.9-2.3-2.1,0-.4-.4-.8-.6-1.2-.3-.5-.7-.8-1.3-.8h-4.7c-.6,0-1,.2-1.3.8-.4.7-.7,1.5-1.1,2.2-.3.7-1.9,1.3-2.6,1-.8-.3-1.6-.5-2.3-.8-.5-.2-1,0-1.4.3-1.2,1.2-2.3,2.3-3.5,3.5-.4.4-.5.8-.3,1.3.3.8.6,1.6.8,2.5v.7c-.3,1.1-.9,1.9-2.1,2.3-.4.1-.8.4-1.2.6-.5.3-.8.7-.8,1.3v4.7c0,.6.2,1,.8,1.3.7.3,1.4.7,2.1,1,.8.4,1.4,1.9,1.1,2.7-.3.8-.5,1.6-.8,2.3-.2.5,0,.9.3,1.2,1.2,1.2,2.4,2.4,3.5,3.5.4.4.8.5,1.3.3.8-.3,1.6-.5,2.3-.8.7-.2,2.3.4,2.6,1.1.4.7.7,1.4,1.1,2.1.3.6.7.8,1.3.8h4.8c.6,0,1-.2,1.2-.7.4-.8.8-1.5,1.1-2.3.3-.6,1.9-1.3,2.5-1.1.8.3,1.6.5,2.5.8.5.2.9,0,1.3-.3l3.5-3.5c.4-.4.5-.8.3-1.3-.3-.7-.4-1.4-.7-2.1-.2-.5,0-.9,0-1.4.3-.9.8-1.5,1.7-1.8.5-.2.9-.5,1.4-.7.6-.3.8-.7.8-1.4v-4.3c0-.7,0-1.3-1-1.7.4-.3.7-.4.9-.7l.2.2ZM39.6,28.9c-2.4-1.6-5-1.9-7.7-.8-.7.3-1.4.4-2,.7-.5.2-1.1.5-1.5.8-1.1,1-2.1,2-3.1,3-1.3,1.3-1.3,3.1,0,4.4.3.4.7.7,1.1,1.1.4.4,1,.4,1.4,0s.4-1,0-1.4c-.3-.3-.6-.6-1-1-.6-.6-.6-1.1,0-1.7,1-1,1.9-1.9,2.9-2.9.6-.6,1.1-.5,1.7,0,1.1,1.1,2.2,2.2,3.3,3.3,1.1,1.1,1.3,1.1,2.4,0,3.2-3.2,6.5-6.5,9.7-9.7.9-.9,1.3-.9,2.2,0l2.5,2.5c.7.7.7,1.2,0,1.9-4.3,4.3-8.6,8.6-12.9,12.9-1.6,1.6-3.8,1.6-5.4,0-.6-.6-1.3-1.3-1.9-1.9-.6-.5-1.1-.6-1.6,0-.5.4-.4,1,.1,1.6.6.6,1.2,1.2,1.8,1.8,2.5,2.4,6,2.4,8.4,0,3.4-3.4,6.8-6.8,10.2-10.1.2-.2.4-.3.6-.4,0,.2.2.5.2.7v2.8c0,.2-.2.5-.4.7-.6.4-1.3.6-1.9,1,0,0-.3,0-.4.2-.6.4-1.6,3.3-1.4,4,.2.7.5,1.4.7,2.1,0,.2,0,.6-.2.8-.7.8-1.4,1.5-2.2,2.2-.2,0-.5.2-.7.2-.6,0-1.1-.4-1.7-.5-.2,0-.3,0-.5-.2-.8-.3-3.7.9-4.1,1.7-.3.6-.7,1.3-1,2-.2.4-.4.5-.8.5h-2.9c-.2,0-.5-.3-.7-.4h0q-1.3-2.6-4-3.7c-.3,0-.7,0-1.1,0-.7.2-1.4.5-2.1.7-.2,0-.6,0-.8-.2-.8-.7-1.5-1.4-2.2-2.2-.1-.2-.1-.5-.2-.7h0c1.1-2,.7-3.7-.2-5.5-.2-.3-.4-.5-.7-.7-.7-.4-1.4-.7-2.1-1.1-.2,0-.4-.5-.4-.7v-2.9c0-.3.3-.5.4-.7h0c2-.6,3.1-2.1,3.6-4v-1.1c-.2-.7-.4-1.4-.7-2.1-.1-.3,0-.6.2-.8l2.1-2.1c.2-.2.5-.2.8-.2.6.1,1.2.4,1.7.6.2,0,.4.1.6.2.8.2,3.6-1.1,3.9-1.8.3-.6.7-1.3,1-2,.1-.3.3-.5.7-.5h3c.2,0,.5.2.7.4.4.6.7,1.3,1,1.9,0,.2.1.4.3.5,1,.5,1.9,1,3,1.4.3.1.8,0,1.2-.1.5-.1,1.1-.3,1.5-.5.6-.3,1.1-.1,1.4.4l-6,6,.2-.3ZM38.1,30.4c-.8.8-1.5,1.5-2.3,2.2l-2.8-2.8c1.8-.6,3.5-.5,5,.5h0ZM26.1,4.2c-1,0-1.2.2-1.5,1.1-1.8,5.6-6.7,9.3-12.6,9.6-1.2,0-1.4.3-1.4,1.5v15.1c0,1.9,0,3.7.4,5.6,1.5,9.5,6.2,17.1,14.1,22.6,2.9,2.1,6.2,3.6,9.3,5.4.3.2.9,0,1.3,0,1.6-.8,3.1-1.7,4.6-2.5,2.7-1.4,5.3-3.1,7.5-5.1,6.4-5.9,10.2-13.1,11.2-21.8.2-1.9.2-3.8.2-5.7s-.3-.8-.6-.9-.8,0-1,.2-.3.7-.4,1c0,1.5,0,3.1-.2,4.6-.9,9.3-5.2,16.9-12.5,22.6-2.9,2.3-6.2,3.7-9.3,5.5-.2,0-.5,0-.7,0-1.9-1-3.9-2-5.7-3.1-10.1-6.1-15.5-15-16.1-26.8-.3-5.1,0-10.3,0-15.4s0-.6.6-.6c6.2-.8,10.6-4.1,13-9.9.2-.5.4-.6.9-.6h15.7c.5,0,.7.2.9.6,2.4,5.7,6.6,9,12.8,9.9.6,0,.8.3.8.9v7.1c0,.9.5,1.3,1.2,1.2.6,0,.9-.5.9-1.3v-8.5c0-1.1-.3-1.4-1.4-1.4-5.9-.2-10.8-3.9-12.6-9.6-.3-.9-.5-1-1.4-1h-17.9v-.2Z"/>
  </symbol>
  <symbol id="icon-testing" xmlns="http://www.w3.org/2000/svg" width="70" height="70" version="1.1" viewBox="0 0 70 70">
    <path d="M0,58.4c.3-.5.5-1,.9-1.5,4-5,8.1-10,12.1-15,.2-.2.3-.4.5-.6-.8-.5-1.5-1.1-2.2-1.6-.9-.7-1-1.3-.3-2.2,1-1.2,1.9-2.4,2.9-3.6-6.9-11.4-2.5-24.6,7-30.4C26.4,0,32.4-.9,38.7.9c6.2,1.8,10.8,5.6,13.9,11.4.4-.5.8-.9,1.2-1.3.4-.4.9-.6,1.4-.4.6.2,1.2.4,1.8.6.7.2,1.1.7,1.1,1.4,0,.3,0,.5,0,.8,0,.5.3.7.8.6,0,0,0,0,.1,0,1.3-.6,2.2,0,2.8,1.1.2.3.4.6.6.9.4.6.4,1.2,0,1.8-.9,1.4-.9,1.4.7,2.1.7.3,1,.7,1,1.5,0,.6,0,1.2,0,1.8,0,.7-.3,1.2-.9,1.5-1.7.6-1.5.7-.7,2.1.3.6.4,1.1,0,1.7-.4.5-.8,1.1-1.1,1.6-.4.5-.9.7-1.5.6-.1,0-.2,0-.3,0-1.3-.3-1.3-.3-1.4,1,0,.9-.4,1.6-1.3,1.8,0,0-.1,0-.2,0-2.6.9-2.3.7-3.7-.8-.1-.1-.2-.2-.3-.4-.5.8-.9,1.5-1.3,2.2-3.6,5.5-8.7,8.7-15.2,9.8-2.1.3-4.3.3-6.4,0-.4,0-.6,0-.9.3-1,1.3-2.1,2.6-3.1,3.9-.7.8-1.2.9-2.1.3-.7-.5-1.3-1-2-1.4,0,0,0,0-.1,0-.4.5-.9,1.1-1.3,1.6-4,4.9-8,9.8-11.9,14.7-.8.9-1.3,1-2.2.2-1.7-1.4-3.4-2.7-5.1-4.1-.3-.3-.6-.7-.9-1,0,0,0,0,0-.1ZM12.9,22.2c0,10.9,9,19.8,19.9,19.8,11,0,19.8-8.9,19.8-19.8,0-10.8-8.7-19.8-19.8-19.8-10.9,0-19.9,9-19.8,19.8ZM6.9,61.4c4.3-5.3,8.5-10.4,12.7-15.7-1.4-1-2.8-2-4.2-3-4.2,5.2-8.4,10.3-12.6,15.5,1.4,1.1,2.6,2.1,4,3.2ZM60.3,17c-.2-.6-.6-.7-1.1-.5-.8.3-1.4,0-2.1-.4-.9-.6-1.2-1.3-1.3-2.3,0-.2-.2-.5-.4-.6-.2,0-.5,0-.6.2-.3.2-.5.6-.8.8-.4.3-.4.7-.2,1.1.7,1.9,1,3.8,1.1,5.7.1,2.8-.2,5.4-1.1,8.1,0,.2-.1.6,0,.7.4.5.9,1,1.4,1.4.2.1.7,0,.7-.5,0-.1,0-.3,0-.4.2-1.8,1.7-2.8,3.4-2.4.3,0,.7.2.9-.2,0-.2,0-.6-.1-.8-.9-1.7-.4-3.3,1.3-4.1.3-.1.5-.2.5-.7,0-.4-.3-.5-.5-.7-.4-.3-1-.5-1.2-1-.6-1.1-.9-2.2,0-3.3,0,0,.1-.2.2-.3ZM26.6,43.5c-4.6-1.4-8.3-3.9-11.2-7.6-.7.8-1.3,1.6-1.9,2.4,3.7,2.7,7.3,5.3,10.9,8,.8-.9,1.5-1.8,2.2-2.8ZM54.4,70c-.7-.2-1.3-.5-2-.7-.8-.3-1.2-.8-1.2-1.6,0-1.9-.3-1.9-2-1.4-.7.2-1.3,0-1.7-.6-.4-.6-.9-1.2-1.3-1.8-.3-.5-.3-1,0-1.5.2-.3.4-.7.6-1,.3-.6.2-1-.4-1.2-.4-.2-.8-.3-1.1-.5-.5-.2-.8-.6-.8-1.2,0-.8,0-1.6,0-2.4,0-.6.3-1,.8-1.3.4-.2.8-.3,1.2-.5.4-.2.5-.6.3-1-.2-.4-.4-.8-.6-1.1-.3-.5-.3-1,0-1.5.5-.6.9-1.3,1.4-1.9.4-.5.9-.7,1.5-.5.4.1.8.2,1.1.3.5.1.8-.1.9-.6,0-.5,0-1,.2-1.4.1-.4.4-.8.8-1,.8-.4,1.6-.7,2.4-.8.4,0,.9.1,1.3.4.3.2.5.6.8.9.5.5.8.5,1.3,0,0,0,0,0,0-.1.8-1.3,1.8-1.5,3.1-.9,0,0,.2,0,.3,0,1.4.3,2,1.1,2,2.6,0,1,.2,1.1,1.2.9.3,0,.6-.1.9-.2.6-.2,1.1,0,1.4.5.5.7,1,1.3,1.4,2,.3.5.3,1,0,1.5-.2.3-.4.6-.5.9-.4.7-.3,1,.5,1.4.3.1.6.3.9.4.6.3.9.7.9,1.4,0,.7,0,1.5,0,2.2,0,.7-.3,1.1-.9,1.4-.4.1-.7.3-1.1.5-.5.2-.6.6-.4,1.1,0,0,0,.2.1.2,1,1.2.8,2.3-.1,3.3,0,.1-.2.2-.2.3-.6,1.2-1.6,1.4-2.8,1-.9-.3-1.2-.1-1.3.9,0,.3,0,.6,0,.9,0,.7-.4,1.1-1,1.3-.8.3-1.5.5-2.3.8h-.7c-.5-.5-1-.9-1.4-1.4-.4-.5-.7-.5-1.2,0-.5.5-.9,1-1.4,1.5h-.8ZM49.2,50.5c-.1.1-.3.3-.4.5,0,.2-.1.5,0,.7.2.6.7,1.2.7,1.8-.1,1.3-.4,2.6-2,2.9-.4,0-.6.3-.6.8,0,.5.2.7.6.9.5.2,1.1.5,1.4.9.6,1.2,1.1,2.4,0,3.6-.3.3-.3.6,0,1,.3.4.5.3.9.2.5,0,1.2-.3,1.7,0,1.2.5,2.3,1.3,2.2,2.8,0,.4,0,.8.6.9.5.2.7-.2.9-.5.4-.4.8-.9,1.2-1,1.3-.2,2.6-.3,3.4,1.1.2.3.4.5.9.4.5-.2.5-.5.6-.9,0-.6.1-1.3.5-1.6.9-1,1.9-1.7,3.4-1.1.3.1.6.1.8-.2.2-.3.3-.6,0-1-.3-.5-.7-1-.7-1.5.1-1.3.3-2.6,1.9-3,.4-.1.7-.3.7-.9,0-.5-.3-.6-.6-.8-.5-.3-1.1-.6-1.4-1-.6-1.1-1-2.4,0-3.5.3-.3.2-.6,0-1-.2-.3-.5-.3-.8-.2-.5.1-1.2.3-1.7.1-1.2-.5-2.3-1.2-2.2-2.8,0-.4,0-.7-.5-.9-.5-.2-.7.1-1,.4-.4.4-.8.9-1.2,1-1.3.2-2.6.3-3.4-1.1-.2-.3-.4-.5-.8-.4-.4.1-.5.4-.6.8,0,.9-.2,1.7-1,2.3-.9.6-1.7,1-2.8.6-.1,0-.2,0-.5-.1ZM32.7,4.7c9.7,0,17.5,7.9,17.5,17.5,0,9.7-7.9,17.5-17.5,17.4-9.6,0-17.5-7.9-17.5-17.5,0-9.6,7.9-17.5,17.5-17.5ZM36.9,36.7q-1.4-1.1-.8-2.8c0,0,0-.1,0-.2,0-.3,0-.6-.2-.8-.2-.2-.5-.2-.8-.2-.3,0-.6.2-1,.3-.7.2-1.2,0-1.6-.6-.5-.7-1-1.4-1.4-2.2-.8-1.6-1.4-1.8.6-3.4.2-.1.3-.5.2-.7,0-.2-.3-.4-.6-.5-.3-.1-.7-.2-1.1-.2-.8-.2-1.1-.5-1.1-1.3,0-.8,0-1.6,0-2.5,0-1.9-.3-2.3,2.1-2.8.2,0,.5-.3.6-.5,0-.2,0-.5-.2-.7-.3-.3-.6-.6-.9-.8-.4-.4-.6-.9-.3-1.4.7-1.2,1.3-2.3,2-3.5.3-.5.8-.7,1.4-.5.4.1.8.3,1.2.4.5.1,1-.3.9-.8,0-.3-.2-.6-.3-.9-.4-1.1-.3-1.4.6-2,.1,0,.2-.2.3-.3-4.7-1.6-11.6-.4-15.9,4.9-4.2,5.1-4.6,12.7-.8,18.1,3.8,5.4,10.8,8,16.7,6ZM47.9,22.2c0-2.7-.7-5.2-2-7.5-.2-.4-.4-.5-.9-.4-3.7.8-6.4,4.1-6.4,7.9,0,3.9,2.6,7.2,6.4,8,.4,0,.6,0,.9-.4,1.3-2.3,2-4.9,2-7.6ZM38.3,9.7c.1.4.2.8.4,1.2.3.7,0,1.3-.5,1.8-.4.4-.8.8-1.3,1.3-.4.4-.8.5-1.4.4-.5-.1-1.1-.4-1.5-.3-.4.2-.6.9-.9,1.3,0,0,0,.1,0,.2.3.3.7.6,1.1,1,.5.4.6.9.4,1.5-.2.6-.3,1.2-.5,1.8-.1.6-.5.9-1,1.1-1.4.4-1.4.4-1.4,1.9,0,.2,0,.3,0,.6,1.5,0,2.2.7,2.7,2.2.5,1.7-.2,2.5-1.3,3.3.4.6.7,1.2,1.1,1.8,1.3-.8,2.3-.7,3.5.5,1.2,1.2,1.2,2.2.5,3.6.4.3.8.5,1.2.7.2,0,.4.1.5,0,1.5-.8,2.8-1.8,3.9-3.1-4.6-1.6-7.4-4.7-7.6-9.5-.3-5.4,2.6-8.9,7.7-10.8-1-.8-1.9-1.6-2.9-2.4-1.3-1-1.3-.9-2.7,0,0,0,0,0-.2.1ZM51.4,57.2c0-3.2,2.7-5.8,5.8-5.8,3.2,0,5.8,2.6,5.8,5.8,0,3.2-2.7,5.8-5.8,5.8-3.2,0-5.8-2.7-5.8-5.9ZM57.2,53.7c-1.9,0-3.5,1.5-3.5,3.5,0,1.9,1.6,3.5,3.5,3.5,1.9,0,3.5-1.6,3.5-3.5,0-1.9-1.6-3.4-3.5-3.4Z"/>
  </symbol>
</defs>
</svg>
