<?xml version="1.0" encoding="UTF-8"?>
<svg xmlns="http://www.w3.org/2000/svg" xmlns:xlink="http://www.w3.org/1999/xlink" width="0" height="0">
<defs>

<symbol id="arrow" viewBox="0 0 384 384" enable-background="new 0 0 384 384">
  <path d="M251,192.2c-4.7-4.5-8.7-8.4-12.7-12.4C196,137.5,153.7,95.3,111.6,53c-2.1-2.2-3.9-5.3-4.5-8.3c-1-4.8,1.6-9,5.8-11.1
    c4.5-2.2,8.7-1.7,12.6,1.3c1,0.8,1.8,1.7,2.7,2.6c47.8,47.8,95.6,95.6,143.5,143.4c7.3,7.3,7.3,14.8,0,22.2
    C223.8,251,175.8,298.9,128,346.8c-3.6,3.6-7.4,6-12.6,4.5c-7.9-2.2-11.1-11.4-6.1-17.9c0.9-1.2,2-2.2,3.1-3.3
    c45.1-45.1,90.1-90.1,135.2-135.2C248.5,194.1,249.5,193.4,251,192.2z"/>
</symbol>

<symbol id="checkbox" viewBox="0 0 20 20">
  <path
    d="M7.629,14.566c0.125,0.125,0.291,0.188,0.456,0.188c0.164,0,0.329-0.062,0.456-0.188l8.219-8.221c0.252-0.252,0.252-0.659,0-0.911c-0.252-0.252-0.659-0.252-0.911,0l-7.764,7.763L4.152,9.267c-0.252-0.251-0.66-0.251-0.911,0c-0.252,0.252-0.252,0.66,0,0.911L7.629,14.566z"
    style="stroke: white; fill: white"
  ></path>
</symbol>
</defs>
</svg>
