<?xml version="1.0" encoding="utf-8"?>
<!-- Generator: Adobe Illustrator 26.0.3, SVG Export Plug-In . SVG Version: 6.00 Build 0)  -->
<svg version="1.1" id="Layer_1" xmlns="http://www.w3.org/2000/svg" xmlns:xlink="http://www.w3.org/1999/xlink" x="0px" y="0px"
	 viewBox="0 0 115 80" enable-background="new 0 0 115 80" xml:space="preserve">
<path fill="#000911" d="M91.2,59.5c-1.1-0.8-2.4-0.9-3.7-0.6c-0.2-0.7-0.6-1.4-1.2-1.9c-1.4-1-3.2-0.7-4.9-0.4
	c-1.7,0.4-3.4,1.1-5,1.9c0-0.5-0.1-1.1-0.4-1.6c-1.2-1.8-3.8-1.8-5.7-1.6c-2.7,0.4-4.8,2.1-7.3,3.1c-2.3,0.8-4.6,1.3-7,1.5
	c-1.5-0.6-2.8-1.6-3.9-2.8c-1.8-2.1-3.2-4.4-5.5-6.1c-2.9-2.1-6.2-3.3-9.7-3.7c-3.1-0.3-6.3,0.1-9.3,1.1c-1.3,0.5-2.5,1.1-3.7,1.8
	c-1.1,0.7-2.7,0.5-4.2,0.5v-3.4c0-0.4-0.2-0.7-0.5-0.9c-0.3-0.3-0.6-0.4-1-0.4H1.4c-0.3,0-0.6,0.2-0.9,0.5c-0.2,0.3-0.3,0.6-0.3,0.9
	c0,0.3,0.1,0.7,0.3,0.9c0.2,0.3,0.5,0.4,0.9,0.5h15.5v28H1.4c-0.4,0-0.7,0.1-1,0.4S0,77.8,0,78.2s0.1,0.7,0.4,1s0.6,0.4,1,0.4h16.9
	c0.4,0,0.7-0.2,1-0.4s0.4-0.6,0.4-1v-4c3.7-0.2,7.3-0.1,11,0.4c3.4,0.5,6.8,1.3,10.1,2.2c7.8,2.3,16,2.7,24,1.3
	c5.5-1,10.8-2.7,15.8-5.1c3.1-1.5,7-3.4,9.4-6.1C91.5,65.2,93.8,61.4,91.2,59.5z M84.1,59.2c0.3,0,0.4,0.1,0.6,0.1
	c0.1,0,0.1,0.1,0.1,0.1c0,0.2,0,0.4-0.1,0.5c-1.4,0.7-2.8,1.6-3.9,2.2c-3.6,1.8-7.3,3.1-11.2,3.9c0.1-0.3,0.1-0.7,0.1-1
	c1.3-0.6,2.5-1.2,3.7-1.9c0.2,0,0.3-0.1,0.5-0.2c0.3-0.1,0.5-0.3,0.8-0.4c1.7-1,3.5-1.8,5.3-2.5C81.4,59.4,82.7,59.2,84.1,59.2z
	 M73,58.1c0.2,0,0.4,0.1,0.6,0.3c0.1,0.1,0,0,0,0.1c0,0.7-0.8,1.5-1.2,2c-1.1,0.6-2.2,1.1-3.3,1.7c-0.3-0.5-0.7-0.9-1.1-1.2
	c-0.5-0.4-1.2-0.7-1.9-0.8c-0.1,0-0.2,0-0.4,0c0.7-0.3,1.3-0.6,1.9-1C69.2,58.4,71.1,57.5,73,58.1z M89.5,62.7
	c-0.6,1.6-1.8,3-3.2,3.9c-2.7,1.9-5.7,3.5-8.7,4.8C66,76.6,53,77.6,40.9,74.2c-6.9-2-14.1-2.8-21.2-2.5V53.8c1.3,0,2.5,0,3.8-0.1
	c0.8-0.2,1.6-0.6,2.2-1.1c2.5-1.4,5.3-2.2,8.1-2.3c2.6-0.1,5.2,0.4,7.7,1.4c2.4,1,4.6,2.6,6.3,4.6c1.4,1.8,2.7,3.7,4.6,4.9
	c0.7,0.5,1.5,0.9,2.2,1.2c0.1,0.1,0.2,0.1,0.4,0.2c0.9,0.4,1.9,0.6,2.9,0.7c1.3,0.2,2.5,0.2,3.8,0.1c1.1,0,3.2-0.8,4.2-0.3
	c0.3,0.2,0.6,0.4,0.7,0.7c0.2,0.3,0.3,0.7,0.2,1c0,0.4-0.1,0.7-0.3,1c-0.2,0.3-0.4,0.5-0.7,0.6c-0.1,0-0.1,0.1-0.2,0.1
	c-1,0.4-2,0.6-3,0.7C55.9,68.8,48.9,67.6,43,64c-1.5-0.8-3,1.5-1.4,2.4c6,3.6,13.1,5,20,4c1.6-0.2,3.6-0.4,5.2-1.1
	c3.8-0.4,7.5-1.3,11.1-2.6c1.4-0.6,3-1.3,4.4-2c1.7-0.9,3.2-2.3,5.2-2.7c0.6-0.3,1.3-0.3,2-0.1C89.7,62,89.6,62.2,89.5,62.7z"/>
<path fill="#0082F1" d="M52,19.4c1.6,0.6,3.4,0.7,5.1,0.2c1.7-0.5,3.2-1.4,4.3-2.7s1.8-3,2-4.7s-0.2-3.5-1.1-5
	c-1-1.6-2.4-2.8-4.1-3.5c-1.7-0.7-3.6-0.8-5.4-0.3c-1.8,0.5-3.4,1.5-4.5,3c-1.1,1.4-1.8,3.2-1.9,5.1c0,1.7,0.6,3.4,1.6,4.9
	C49,17.7,50.4,18.8,52,19.4z M50.2,8.1c0.7-1,1.6-1.7,2.7-2.1c1.1-0.4,2.4-0.5,3.5-0.1c1.2,0.3,2.2,1,2.9,2c0.7,0.9,1.1,2,1.2,3.2
	c0.1,1.2-0.2,2.3-0.7,3.3c-0.6,1-1.4,1.8-2.5,2.2c-1,0.5-2.2,0.6-3.3,0.4c-1.3-0.3-2.5-1-3.4-2s-1.4-2.3-1.4-3.6
	C49.2,10.2,49.5,9.1,50.2,8.1z"/>
<path fill="#0082F1" d="M33,21c1.6,0.6,3.4,0.7,5.1,0.2c1.7-0.5,3.2-1.4,4.3-2.7c1.1-1.4,1.7-3.1,1.8-4.8c0.1-1.8-0.3-3.5-1.1-5
	c-0.9-1.5-2.2-2.7-3.8-3.4s-3.4-0.9-5.1-0.6c-1.9,0.4-3.6,1.5-4.9,3c-1.2,1.5-1.9,3.4-2,5.4c0,1.7,0.6,3.4,1.6,4.9
	C30,19.3,31.4,20.4,33,21z M31.2,9.7c0.7-1,1.6-1.7,2.7-2.1c1.1-0.4,2.4-0.5,3.5-0.1c1.2,0.3,2.2,1,2.9,2c0.7,0.9,1.1,2,1.2,3.2
	c0.1,1.2-0.2,2.3-0.7,3.3c-0.6,1-1.4,1.7-2.5,2.2c-1,0.5-2.2,0.6-3.3,0.4c-1.3-0.2-2.5-0.9-3.4-1.9s-1.4-2.3-1.4-3.7
	C30.2,11.8,30.5,10.7,31.2,9.7z"/>
<path fill="#0082F1" d="M70.3,27.8c-1.7-2.3-4-4.2-6.6-5.4c-2.7-1.1-6.2-0.6-9.1-0.6s-6.2-0.6-8.7,0.7c-2.7,1.4-4.9,3.5-6.5,6.1
	c-0.7,1.3-1.7,2.8-1.7,4.4c-0.1,1.2-0.1,2.4,0,3.7v2.9c0,0,0,0,0.1,0v3.1c0,0.4,0.2,0.7,0.4,1c0.3,0.3,0.6,0.4,1,0.4
	c0.2,0,0.4,0,0.5-0.1c0.2-0.1,0.3-0.2,0.5-0.3s0.2-0.3,0.3-0.5s0.1-0.4,0.1-0.5v-4.3c0-0.1,0-0.1,0-0.2v-2.9c-0.1-0.8-0.1-1.5,0-2.3
	c0,0.3,0.1-0.4,0.3-0.4c0.1-0.4,0.3-0.9,0.6-1.3c0.6-1.3,1.5-2.5,2.5-3.5s2-1.8,3.2-2.4c1.3-0.7,2.2-0.6,3.6-0.6H60
	c1.2-0.1,2.3,0.1,3.4,0.6c1.2,0.6,2.4,1.4,3.4,2.4s1.9,2.2,2.5,3.5s0.8,2.7,0.7,4.1v4.9c0,0,0,0.1,0.1,0.1v2.3c0,0.4,0.2,0.7,0.4,1
	c0.3,0.3,0.6,0.4,1,0.4c0.2,0,0.4,0,0.5-0.1c0.2-0.1,0.3-0.2,0.5-0.3c0.1-0.1,0.2-0.3,0.3-0.5c0.1-0.2,0.1-0.4,0.1-0.5v-2.3l0,0v-5
	c0.2-1.4,0-2.8-0.4-4.1C71.7,30,71.1,28.8,70.3,27.8z"/>
<path fill="#0082F1" d="M40.1,26.1c0.3-0.3,0.4-0.6,0.4-1s-0.2-0.7-0.4-1c-0.3-0.3-0.6-0.4-1-0.4h-9.6c-1.7,0.1-3.3,0.6-4.8,1.4
	c-2.9,1.7-5,4.4-6,7.6c-0.5,1.6-0.3,3.6-0.3,5.4c0,0.1,0,0.1,0,0.2v4.3c0,0.4,0.2,0.7,0.4,1c0.3,0.3,0.6,0.4,1,0.4
	c0.2,0,0.4,0,0.5-0.1c0.2-0.1,0.3-0.2,0.4-0.3s0.2-0.3,0.3-0.5c0.1-0.2,0.1-0.4,0.1-0.5v-3c0,0,0-0.1,0.1-0.1c0-1.7,0-3.4,0-5
	c0.1-2.8,2.4-5.5,4.8-6.9c0.9-0.5,1.8-0.9,2.8-1.1h0.1c0,0,0,0,0.1,0h10.1C39.4,26.5,39.8,26.4,40.1,26.1z"/>
<path fill="#0082F1" d="M25.3,36.9c-0.4,0-0.7,0.2-1,0.4c-0.3,0.3-0.4,0.6-0.4,1v4.3c0,0.4,0.2,0.7,0.4,1c0.3,0.3,0.6,0.4,1,0.4
	c0.2,0,0.4,0,0.5-0.1c0.2-0.1,0.3-0.2,0.5-0.3c0.1-0.1,0.2-0.3,0.3-0.5c0.1-0.2,0.1-0.4,0.1-0.5v-4.3c0-0.4-0.2-0.7-0.4-1
	C26,37.1,25.6,36.9,25.3,36.9z"/>
<path fill="#0082F1" d="M44.7,36.9c-0.4,0-0.7,0.2-1,0.4c-0.3,0.3-0.4,0.6-0.4,1v4.3c0,0.4,0.2,0.7,0.4,1c0.3,0.3,0.6,0.4,1,0.4
	c0.2,0,0.4,0,0.5-0.1c0.2-0.1,0.3-0.2,0.4-0.3c0.1-0.1,0.2-0.3,0.3-0.5s0.1-0.4,0.1-0.5v-4.3c0-0.4-0.2-0.7-0.4-1
	C45.4,37.1,45.1,36.9,44.7,36.9z"/>
<path fill="#0082F1" d="M65.3,36.9c-0.4,0-0.7,0.2-1,0.4c-0.3,0.3-0.4,0.6-0.4,1v4.3c0,0.4,0.2,0.7,0.4,1c0.3,0.3,0.6,0.4,1,0.4
	c0.2,0,0.4,0,0.5-0.1c0.2-0.1,0.3-0.2,0.5-0.3s0.2-0.3,0.3-0.5s0.1-0.4,0.1-0.5v-4.3c0-0.4-0.2-0.7-0.4-1
	C66,37.1,65.7,36.9,65.3,36.9z"/>
<path fill="#0082F1" d="M85.2,36.9c-0.4,0-0.7,0.2-1,0.4c-0.3,0.3-0.4,0.6-0.4,1v4.3c0,0.4,0.2,0.7,0.4,1c0.3,0.3,0.6,0.4,1,0.4
	c0.2,0,0.4,0,0.5-0.1c0.2-0.1,0.3-0.2,0.5-0.3c0.1-0.1,0.2-0.3,0.3-0.5s0.1-0.4,0.1-0.5v-4.3c0-0.4-0.2-0.7-0.4-1
	C85.9,37.1,85.5,36.9,85.2,36.9z"/>
<path fill="#0082F1" d="M71.3,20.6c1.6,0.7,3.4,0.9,5.1,0.6c2-0.3,3.7-1.3,5-2.8c1.2-1.4,1.8-3,1.9-4.8c0.1-0.2,0.1-0.3,0.1-0.5
	c0-1.7-0.6-3.4-1.6-4.9s-2.4-2.6-4-3.2s-3.4-0.6-5.1-0.2s-3.2,1.4-4.3,2.7c-1.1,1.3-1.8,3-2,4.7s0.2,3.5,1,5
	C68.4,18.7,69.7,19.9,71.3,20.6z M70,10c0.6-1,1.4-1.8,2.5-2.2c1-0.5,2.2-0.6,3.3-0.4c1.3,0.3,2.5,1,3.4,2c0.8,1,1.3,2.3,1.3,3.7
	c0,0.1,0,0.2,0.1,0.3c-0.1,1-0.4,2-1,2.9c-0.7,1-1.6,1.7-2.7,2.1s-2.4,0.5-3.5,0.1c-1.2-0.3-2.2-1-2.9-2c-0.7-0.9-1.1-2-1.1-3.2
	C69.2,12.1,69.4,11,70,10z"/>
<path fill="#0082F1" d="M92.5,33.4c-0.7-3.1-2.6-5.9-5.2-7.8c-1.6-1.2-3.5-2-5.5-2.1h-10c-2,0.1-2,3-0.1,3H82
	c-0.6,0,0.3,0.1,0.6,0.1c0.3,0,0.9,0.3,1.4,0.4c1.3,0.6,2.5,1.5,3.5,2.7c1,1.1,1.7,2.4,2.1,3.8c0.2,0.8,0.2,1.7,0.1,2.5v3.7l0,0v2.5
	v0.3c0,0.4,0.1,0.8,0.4,1c0.3,0.3,0.6,0.5,1,0.5s0.8-0.2,1-0.5c0.3-0.3,0.4-0.7,0.4-1.1v-0.3v-4.2v-0.3l0,0l0,0v-1.1
	C92.6,35.6,92.6,34.5,92.5,33.4z"/>
</svg>
