<?xml version="1.0" encoding="utf-8"?>
<!-- Generator: Adobe Illustrator 26.0.3, SVG Export Plug-In . SVG Version: 6.00 Build 0)  -->
<svg version="1.1" id="Layer_1" xmlns="http://www.w3.org/2000/svg" xmlns:xlink="http://www.w3.org/1999/xlink" x="0px" y="0px"
	 viewBox="0 0 110 110" enable-background="new 0 0 110 110" xml:space="preserve">
<g>
	<path fill="#000911" d="M85.4,81.9h-7c-0.1-0.4-0.3-0.8-0.6-1.2c-1.3-1.5-2.8-2.9-4.3-4.3l-4.3-4.3l-4.3-4.3
		c-0.8-1.1-2-1.9-3.2-2.3c-3.5-0.9-5.7,1.9-8,4c-0.7,0.7-1.5,1.4-2.2,2.1c-0.7,0.7-1.4,1.3-2.2,1.8c-0.4,0.2-0.8,0.2-1.2,0.2
		c-0.4-0.1-0.8-0.2-1.1-0.5c-0.3-0.3-0.6-0.6-0.8-1C46,71.8,46,71.4,46,71c0.2-1.2,1.4-2,2.2-2.8c2.4-2.3,4.8-4.7,7.3-7.1h30
		c0.3,0,0.6-0.1,0.8-0.3c0.2-0.2,0.3-0.5,0.3-0.8s-0.1-0.6-0.3-0.8c-0.2-0.2-0.5-0.3-0.8-0.3h-61c-0.3,0-0.6,0.1-0.8,0.3
		c-0.2,0.2-0.3,0.5-0.3,0.8s0.1,0.6,0.3,0.8c0.2,0.2,0.5,0.3,0.8,0.3h27.9c-1.4,1.4-2.8,2.7-4.3,4.2c-2.2,2.2-5.4,4.4-3.9,8
		c0.5,1.1,1.3,2,2.4,2.5c1.1,0.5,2.3,0.6,3.5,0.2c1.4-0.5,2.4-1.7,3.5-2.6c1.4-1.3,2.8-2.5,4-3.8c1.2-1.3,2.7-2.2,4.3-1.2
		c1.4,0.8,2.7,2.5,3.8,3.7l8.1,8.1c1.3,1.3,3.7,3.1,1.8,4.8c-1.8,1.7-3.6-0.7-4.8-2l-9.2-9.2c-0.2-0.1-0.5-0.2-0.7-0.1
		c-0.3,0-0.5,0.2-0.7,0.3c-0.2,0.2-0.3,0.4-0.3,0.7s0,0.5,0.2,0.7c2.2,2.2,4.4,4.4,6.6,6.6c0,0,0,0,0,0c0,0.1,0,0.3,0,0.4
		c0.3,0.5,0.4,1.1,0.3,1.7c-0.1,0.6-0.3,1.1-0.7,1.5c-0.4,0.4-1,0.7-1.6,0.8c-0.5,0.1-1.1,0-1.6-0.2c-0.1-0.1-0.3-0.3-0.4-0.4
		c-0.1-0.2-0.1-0.5-0.2-0.7c-0.2-0.3-0.4-0.5-0.7-0.5c-0.1,0-0.2,0-0.3,0c-1.8-1.8-3.7-3.7-5.5-5.5c-0.9-1.3-2.5,0.3-1.5,1.5
		l4.6,4.6l1.4,1.4c0.1,0.2,0.1,0.5,0.1,0.7c0,0.4-0.1,0.7-0.2,1.1c-0.1,0.3-0.4,0.6-0.6,0.9c-0.3,0.3-0.6,0.4-0.9,0.6
		c-0.4,0.1-0.8,0.1-1.1,0.1c-0.2,0-0.4-0.1-0.6-0.1s0,0,0,0.1l-0.5-0.5l-2.2-2.2c0-0.1-0.1-0.2-0.1-0.3c-0.2-0.4-0.5-0.6-0.8-0.6
		l-1.4-1.3l-1.4-1.4c-0.9-1.2-2.5,0.5-1.5,1.5l3.1,3.1c0.2,0.4,0.3,0.9,0.3,1.3c0,0.5-0.2,1-0.4,1.4c-0.3,0.4-0.6,0.8-1,1
		c-0.4,0.3-0.9,0.4-1.4,0.4c-0.3,0-0.7,0-1-0.1c-0.3-0.1-0.6-0.3-0.8-0.6l-4.6-4.6l-4.6-4.6c-0.3-0.4-0.8-0.8-1.3-0.9
		c-0.7-0.1-1.3-0.1-2,0h-6.6c-0.3,0-0.6,0.2-0.7,0.4c-0.2,0.2-0.3,0.5-0.3,0.8c0,0.3,0.1,0.6,0.3,0.8c0.2,0.2,0.5,0.3,0.8,0.4h7.9
		l5.9,5.9l3.5,3.5c0.6,0.6,1.2,1,2,1.3c0.8,0.2,1.6,0.3,2.4,0.1c2.2-0.4,3.7-2.1,4.1-4.1l0.7,0.7c1.3,1.3,3.6,1,5,0.3
		c1.4-0.7,2.1-1.9,2.3-3.3c0.3,0.1,0.5,0.2,0.8,0.2c0.8,0.1,1.6,0.1,2.3-0.2c0.6-0.2,1.2-0.6,1.7-1.1c0.5-0.5,0.9-1,1.2-1.7
		c0.2-0.4,0.3-0.9,0.4-1.3c1,1.1,2,2.4,3.3,2.9c0.9,0.4,1.9,0.4,2.8,0.2c0.9-0.2,1.8-0.8,2.4-1.5c0.5-0.6,0.8-1.2,0.9-1.9h6.9
		c0.3,0,0.6-0.2,0.7-0.4c0.2-0.2,0.3-0.5,0.3-0.8c0-0.3-0.1-0.6-0.3-0.8C85.9,82,85.7,81.9,85.4,81.9z"/>
	<path fill="#000911" d="M27.2,52.9c3.1-2,5.6-4.8,7.3-8c1.7-3.3,2.6-6.9,2.5-10.6c0-0.2,0-0.3-0.1-0.4s-0.1-0.3-0.3-0.4
		c-0.1-0.1-0.2-0.2-0.4-0.2c-0.1-0.1-0.3-0.1-0.4-0.1H34l5.3-5.3c1.7,1.7,3.5,3.5,5.3,5.3h-2.9c-0.3,0-0.6,0.1-0.8,0.4
		c-0.2,0.2-0.3,0.5-0.4,0.8v6.5c0,0.3,0.2,0.6,0.4,0.7c0.2,0.2,0.5,0.3,0.8,0.3s0.6-0.1,0.8-0.3c0.2-0.2,0.3-0.5,0.4-0.7v-5.3h4.5
		c0.2,0,0.5-0.1,0.7-0.2c0.2-0.1,0.3-0.3,0.4-0.5c0.1-0.2,0.1-0.5,0.1-0.7c0-0.2-0.2-0.4-0.3-0.6l-8.1-8.1c-0.1-0.1-0.2-0.2-0.4-0.3
		C39.6,25,39.5,25,39.3,25c-0.2,0-0.3,0-0.4,0.1c-0.1,0.1-0.3,0.1-0.4,0.3l-8.1,8.1c-0.2,0.2-0.3,0.4-0.3,0.6c0,0.2,0,0.5,0.1,0.7
		c0.1,0.2,0.2,0.4,0.4,0.5c0.2,0.1,0.4,0.2,0.7,0.2h3.5c-0.1,2.9-0.8,5.7-2.1,8.3c-1.5,2.9-3.8,5.4-6.6,7.2
		C24.8,51.7,25.9,53.7,27.2,52.9z"/>
	<path fill="#000911" d="M62.1,35.4c0.2,0.1,0.4,0.2,0.7,0.2h4.5v5.3c0,0.3,0.2,0.6,0.4,0.7c0.2,0.2,0.5,0.3,0.8,0.3
		s0.6-0.1,0.8-0.3c0.2-0.2,0.3-0.5,0.4-0.7v-6.5c0-0.3-0.1-0.6-0.4-0.8c-0.2-0.2-0.5-0.3-0.8-0.4h-2.9l5.3-5.3l5.3,5.3h-1.8
		c-0.3,0-0.6,0.1-0.8,0.3c-0.2,0.2-0.3,0.5-0.3,0.8c-0.1,3.7,0.8,7.3,2.5,10.6c1.7,3.3,4.2,6,7.3,8c0.1,0.1,0.3,0.1,0.4,0.1
		c0.2,0,0.3,0,0.5,0c0.2,0,0.3-0.1,0.4-0.2c0.1-0.1,0.2-0.2,0.3-0.4c0.1-0.1,0.1-0.3,0.1-0.4c0-0.2,0-0.3,0-0.5
		c0-0.2-0.1-0.3-0.2-0.4s-0.2-0.2-0.4-0.3c-2.8-1.8-5-4.2-6.5-7.1c-1.3-2.6-2.1-5.4-2.1-8.3H79c0.2,0,0.5-0.1,0.7-0.2
		c0.2-0.1,0.3-0.3,0.4-0.5c0.1-0.2,0.1-0.5,0.1-0.7c-0.1-0.2-0.2-0.4-0.3-0.6l-8.1-8.1c-0.1-0.1-0.2-0.2-0.4-0.3
		c-0.1-0.1-0.3-0.1-0.4-0.1c-0.2,0-0.3,0-0.4,0.1c-0.1,0.1-0.3,0.1-0.4,0.3L62,33.6c-0.2,0.2-0.3,0.4-0.3,0.6s0,0.5,0.1,0.7
		C61.8,35.1,61.9,35.3,62.1,35.4z"/>
</g>
<path fill="#0082F1" d="M42.4,52.9c3.8-2.6,6.8-6.4,8.3-10.7c0.8-2.7,1.2-5.4,1.3-8.2c0.2-2.7,0.2-5.5,0-8.2c0-0.3-0.1-0.6-0.3-0.8
	c-0.2-0.2-0.5-0.3-0.8-0.3h-5.4c0.2,0.7,0.6,1.3,0.8,2l9.6-9.6h-1.6l9.5,9.5c0.2-0.7,0.6-1.3,0.8-2h-5.9c-0.3,0-0.6,0.1-0.8,0.3
	c-0.2,0.2-0.3,0.5-0.3,0.8c-0.5,5.3-0.2,11.2,1.5,16.3c1.6,4.4,4.4,8.2,8.2,10.9c1.2,0.9,2.3-1.2,1.2-2c-3.6-2.6-6.2-6.3-7.5-10.5
	c-1.2-4.8-1.6-9.8-1-14.7l-1.2,1.2h5.9c0.2,0,0.5-0.1,0.7-0.2c0.2-0.1,0.3-0.3,0.4-0.5c0.1-0.2,0.1-0.5,0.1-0.7
	c0-0.2-0.2-0.4-0.3-0.6l-9.5-9.5c-0.1-0.1-0.2-0.2-0.4-0.3s-0.3-0.1-0.4-0.1c-0.2,0-0.3,0-0.4,0.1c-0.1,0.1-0.3,0.1-0.4,0.3
	l-9.6,9.6c-0.2,0.2-0.3,0.4-0.3,0.6s0,0.5,0.1,0.7c0.1,0.2,0.2,0.4,0.4,0.5c0.2,0.1,0.4,0.2,0.7,0.2h5.4c-0.3-0.3-0.8-0.8-1.2-1.2
	c0.4,4.9,0.4,10.2-0.9,14.9c-1.3,4.2-3.9,7.7-7.5,10.2C40.1,51.7,41.3,53.8,42.4,52.9z"/>
</svg>
