<?xml version="1.0" encoding="utf-8"?>
<!-- Generator: Adobe Illustrator 26.0.3, SVG Export Plug-In . SVG Version: 6.00 Build 0)  -->
<svg version="1.1" id="Layer_1" xmlns="http://www.w3.org/2000/svg" xmlns:xlink="http://www.w3.org/1999/xlink" x="0px" y="0px"
	 viewBox="0 0 110 110" enable-background="new 0 0 110 110" xml:space="preserve">
<g>
	<g>
		<path fill="#000911" d="M28,41c1.6,0.5,3.3,0.6,4.9,0.2c1.6-0.4,3-1.3,4.1-2.5c1.1-1.3,1.7-2.8,1.9-4.5c0.1-1.6-0.2-3.3-1.1-4.7
			c-0.9-1.4-2.2-2.5-3.7-3.2c-1.5-0.7-3.2-0.9-4.8-0.6c-1.8,0.3-3.5,1.3-4.7,2.7c-1.1,1.3-1.7,3-1.8,4.7c0,0.1-0.1,0.3-0.1,0.4
			c0,1.6,0.5,3.2,1.5,4.6C25.1,39.5,26.4,40.5,28,41z M28.9,28.5c1.1-0.4,2.3-0.4,3.4-0.1c1.1,0.3,2.1,0.9,2.9,1.8
			c0.7,0.9,1.1,1.9,1.2,3c0.1,1.1-0.2,2.2-0.8,3.2c-0.6,0.9-1.4,1.6-2.4,2.1c-1,0.4-2.1,0.6-3.2,0.4c-1.3-0.2-2.4-0.8-3.3-1.8
			c-0.9-1-1.3-2.2-1.4-3.5c0,0,0,0,0-0.1c0-1.1,0.4-2.2,1-3C27,29.5,27.9,28.8,28.9,28.5z"/>
		<path fill="#000911" d="M16.8,52c-0.4,0-0.7,0.1-0.9,0.4c-0.2,0.2-0.4,0.6-0.4,0.9v22.7c0,0.4,0.1,0.7,0.4,0.9
			c0.2,0.2,0.6,0.4,0.9,0.4c0.4,0,0.7-0.1,0.9-0.4c0.2-0.2,0.4-0.6,0.4-0.9V53.4c0-0.4-0.1-0.7-0.4-0.9C17.5,52.2,17.1,52,16.8,52z"
			/>
		<path fill="#000911" d="M20.8,57.5V90c0,1.4,2.7,1.4,2.7,0V57.5C23.5,56.1,20.8,56.1,20.8,57.5z"/>
		<path fill="#000911" d="M30.1,69.5V90c0,1.4,2.7,1.4,2.7,0V69.5C32.8,68.1,30.1,68.1,30.1,69.5z"/>
		<path fill="#000911" d="M45.7,50.2c-1.1-2.2-2.9-4.1-5.1-5.4c-1.3-0.9-2.8-1.5-4.4-1.7c-1.1-0.1-2.2-0.1-3.3,0h-7.3
			c-1.5,0-1.5,2.6,0.3,2.6h9.9c1,0,2,0.3,2.8,0.8c2.1,1.1,3.9,2.9,4.9,5.1c0.9,2.1,0.7,4.5,0.7,6.7v17.6c0,0.4,0.1,0.7,0.4,0.9
			c0.2,0.2,0.6,0.4,0.9,0.4c0.4,0,0.7-0.1,0.9-0.4c0.2-0.2,0.4-0.6,0.4-0.9V56.8c0.2-1.4,0.1-2.8-0.1-4.2
			C46.4,51.8,46.1,51,45.7,50.2z"/>
		<path fill="#000911" d="M38.9,57.5V90c0,1.4,2.7,1.4,2.7,0V57.5C41.6,56.1,38.9,56.1,38.9,57.5z"/>
		<path fill="#000911" d="M85.6,29c-1-1.3-2.3-2.4-3.9-2.9c-1.6-0.6-3.3-0.6-4.9-0.2c-1.6,0.4-3.1,1.3-4.2,2.6
			c-1.1,1.3-1.7,2.8-1.9,4.5c-0.1,1.6,0.2,3.3,1.1,4.7c0.9,1.4,2.2,2.5,3.7,3.2c1.5,0.7,3.2,0.9,4.8,0.6c1.8-0.3,3.5-1.3,4.7-2.8
			c1.2-1.4,1.9-3.2,1.9-5.1C87.1,31.9,86.6,30.3,85.6,29z M80.9,38.7c-1.1,0.4-2.3,0.4-3.4,0.1c-1.1-0.3-2.1-0.9-2.9-1.8
			c-0.7-0.9-1.1-1.9-1.2-3c-0.1-1.1,0.2-2.2,0.8-3.2c0.6-0.9,1.4-1.6,2.4-2.1c1-0.4,2.1-0.6,3.2-0.4c1.2,0.2,2.4,0.9,3.2,1.8
			c0.8,1,1.3,2.2,1.3,3.4c0,0.2,0.1,0.3,0.1,0.4c-0.1,1-0.4,1.9-1,2.7C82.8,37.6,81.9,38.3,80.9,38.7z"/>
		<path fill="#000911" d="M93.9,52.4C93.7,52.2,93.3,52,93,52c-0.4,0-0.7,0.1-0.9,0.4c-0.2,0.2-0.4,0.6-0.4,0.9v22.7
			c0,0.4,0.1,0.7,0.4,0.9c0.2,0.2,0.6,0.4,0.9,0.4c0.4,0,0.7-0.1,0.9-0.4c0.2-0.2,0.4-0.6,0.4-0.9V53.4C94.3,53,94.2,52.7,93.9,52.4
			z"/>
		<path fill="#000911" d="M86.3,57.5V90c0,1.4,2.7,1.4,2.7,0V57.5C89,56.1,86.3,56.1,86.3,57.5z"/>
		<path fill="#000911" d="M76.9,69.5V90c0,1.4,2.7,1.4,2.7,0V69.5C79.5,68.1,76.9,68.1,76.9,69.5z"/>
		<path fill="#000911" d="M83.9,43.1h-7.1c-1.2-0.1-2.3-0.1-3.5,0c-1.6,0.2-3.1,0.8-4.4,1.7c-2.1,1.3-3.9,3.2-5.1,5.4
			c-0.4,0.7-0.7,1.5-0.9,2.4c-0.2,1.3-0.2,2.6-0.1,3.9v19.4c0,0.4,0.1,0.7,0.4,0.9c0.2,0.2,0.6,0.4,0.9,0.4c0.4,0,0.7-0.1,0.9-0.4
			c0.2-0.2,0.4-0.6,0.4-0.9V58.6c0-2.2-0.4-4.7,0.5-6.8c1.1-2.3,2.8-4.2,5.1-5.4c0.8-0.5,1.8-0.8,2.8-0.8h10
			C85.5,45.8,85.5,43.1,83.9,43.1z"/>
		<path fill="#000911" d="M68.2,57.5V90c0,1.4,2.7,1.4,2.7,0V57.5C70.9,56.1,68.2,56.1,68.2,57.5z"/>
	</g>
	<g>
		<path fill="#0082F1" d="M20.8,45.2C20.8,45.2,20.8,45.2,20.8,45.2C20.8,45.2,20.7,45.2,20.8,45.2z"/>
		<path fill="#0082F1" d="M17,48C17,48.1,17,48.1,17,48L17,48z"/>
		<path fill="#0082F1" d="M21.8,42.6c-0.6-0.3-1.2-0.5-1.9-0.4c-0.7,0-1.3,0.3-1.8,0.7l-1.2,1.2l-1.3,1.3c-0.6,0.5-1,1.3-1.2,2.1
			c-0.1,0.8,0,1.5,0.3,2.2c0.3,0.7,0.9,1.2,1.6,1.6c0.6,0.4,1.4,0.5,2.1,0.4c0.7-0.1,1.4-0.5,1.9-1.1c0,0,0,0,0,0l2.2-2.2
			c0.4-0.3,0.7-0.7,0.9-1.2c0.2-0.4,0.3-0.9,0.3-1.4c0-0.6-0.1-1.3-0.5-1.8C22.9,43.4,22.4,42.9,21.8,42.6z M20,45.1
			C20.1,45,20.1,45.1,20,45.1L20,45.1z M16.9,48.7L16.9,48.7C17,48.7,17,48.7,16.9,48.7z M21.3,46v0.1v0.1c0,0,0,0,0,0c0,0,0,0,0,0
			c0,0,0,0,0,0c0,0-0.1,0.1-0.1,0.1c0,0,0,0.1,0,0.1c0,0-0.1,0-0.1,0l-0.1,0.1l-0.1,0.1l-1.6,1.6c-0.1,0-0.2,0-0.3,0.1
			c-0.2,0.1-0.3,0.2-0.4,0.3l-0.1,0.1c-0.1,0.1,0,0,0.1,0c-0.1,0-0.1,0.1-0.3,0.1c0,0,0,0,0,0h-0.4h-0.1c0,0,0,0,0,0c0,0,0,0,0,0
			c0,0,0,0,0,0c0,0,0,0,0,0c0,0,0,0-0.1-0.1h-0.1c0,0-0.1,0-0.1,0c0,0,0-0.1,0-0.1l-0.1-0.1c-0.1-0.1,0,0,0,0.1l-0.1-0.3v-0.3
			c0-0.1,0-0.2,0.1-0.2c0,0,0,0,0,0c0,0,0,0,0,0l0.1-0.3c0,0.1-0.1,0.3,0,0.1l0.1-0.1l0.3-0.3l1.2-1.2c0.3-0.3,0.6-0.7,0.9-0.9
			l0.1-0.1c0.1-0.1,0,0-0.1,0l0.3-0.1h0.7c0,0,0,0,0.1,0c0,0,0,0,0,0c0,0,0,0,0,0c0,0,0,0,0,0c0,0,0.1,0.1,0.1,0.1l0.1,0.1
			c0,0.1,0.1,0.1,0.1,0.3S21.2,46,21.3,46c-0.1-0.1,0-0.3,0-0.1V46z"/>
		<path fill="#0082F1" d="M21.3,46.4C21.3,46.3,21.3,46.3,21.3,46.4C21.3,46.3,21.3,46.3,21.3,46.4c0-0.1,0-0.1,0-0.2
			C21.2,46.3,21.3,46.4,21.3,46.4z"/>
		<path fill="#0082F1" d="M17.5,49C17.5,49,17.5,49,17.5,49C17.5,49,17.5,49,17.5,49c0.1,0,0.1,0,0.2,0C17.6,49,17.5,49,17.5,49z"/>
		<path fill="#0082F1" d="M17.2,48.8l0.1,0.1C17.2,48.7,17.1,48.7,17.2,48.8z"/>
		<path fill="#0082F1" d="M95.4,46.7c-0.2-0.5-0.5-0.9-0.8-1.3l-1.2-1.2l-1.1-1c-0.4-0.4-1-0.7-1.5-0.9s-1.2-0.2-1.8,0
			c-0.7,0.1-1.3,0.4-1.7,0.9c-0.5,0.5-0.8,1.1-0.9,1.7c-0.1,0.6-0.1,1.2,0,1.8c0.2,0.6,0.5,1.1,0.9,1.6l2,1.9
			c0.1,0.1,0.2,0.3,0.3,0.4c0.5,0.5,1.1,0.8,1.7,0.9c0.7,0.1,1.3,0.1,2-0.2c0.7-0.2,1.2-0.7,1.7-1.2c0.4-0.6,0.7-1.2,0.7-1.9
			C95.7,47.7,95.6,47.2,95.4,46.7z M92.6,47.8v0.4c0,0.1,0,0.2-0.1,0.3c0,0,0,0,0,0c0,0,0,0.1,0,0.1c0,0-0.1,0-0.1,0l-0.1,0.1
			c0,0,0,0,0,0l-0.1,0.1c-0.1,0-0.1,0-0.2,0h-0.4c0,0,0,0,0,0.1c0,0,0-0.1-0.1-0.1c0,0,0,0,0,0c0,0,0,0,0,0l0,0c0,0,0,0,0,0
			c0,0,0,0,0,0c0,0,0,0-0.1,0l-1.9-1.9L89,46.4c0,0,0-0.1,0-0.1s-0.1,0-0.1,0c0.1,0,0.1,0.1,0.1,0.1l-0.1-0.1c0,0,0-0.1,0-0.1
			c0,0-0.1,0-0.1,0c0.1,0.1,0.1,0.3,0,0.1v-0.1c0-0.1,0-0.3-0.1-0.3v-0.1v-0.1c0.1-0.1,0.1-0.1,0.1-0.1c0,0,0,0,0,0l0.1-0.1
			c0.1-0.1,0.2-0.1,0.3-0.1c0,0,0,0,0.1,0c0,0,0,0,0,0c0,0,0,0,0,0c0,0,0,0,0-0.1c-0.1,0.1-0.3,0.1-0.1,0c0.1-0.1,0.3,0,0.3-0.1h0.3
			c0.1,0,0.2,0,0.3,0.1c0,0,0,0,0,0l0.1,0.1l0.1,0.1l0.5,0.5l1.2,1.2l0.4,0.4l0.1,0.1l0.1,0.1V47.8z"/>
		<path fill="#0082F1" d="M91.4,48.8C91.4,48.8,91.4,48.8,91.4,48.8C91.4,48.8,91.4,48.8,91.4,48.8C91.4,48.8,91.4,48.8,91.4,48.8
			L91.4,48.8C91.4,48.8,91.4,48.8,91.4,48.8c0.1,0.1,0.1,0.1,0.1,0.1C91.5,48.8,91.4,48.8,91.4,48.8z"/>
		<path fill="#0082F1" d="M89,45.3C89,45.3,89,45.3,89,45.3c0.1-0.1,0.1-0.1,0.1-0.1C89.1,45.3,88.8,45.3,89,45.3z"/>
		<path fill="#0082F1" d="M63.3,38.2c-1.4-0.3-2.7-0.4-4.1-0.3h-5.3c-5.5,0-11.6-0.9-15.7,3.3c-1.2,1.2,0.8,3,2,1.8
			c3.5-3.5,8.8-2.5,13.3-2.5c2.7,0,5.5-0.1,8.1,0c1,0.1,2.1,0.3,3,0.8c0.9,0.5,1.7,1.2,2.3,2c1.1,1.3,3.3,0,2.3-1.3
			C67.7,40.1,65.6,38.7,63.3,38.2z"/>
		<path fill="#0082F1" d="M47.1,33.1c1.1,1.5,2.6,2.6,4.3,3.2c1.7,0.6,3.6,0.7,5.3,0.2c1.8-0.5,3.3-1.5,4.5-2.9
			c1.2-1.4,1.9-3.1,2.1-5c0.1-1.8-0.3-3.7-1.3-5.2c-1-1.6-2.4-2.8-4.1-3.5c-1.7-0.7-3.6-1-5.4-0.7c-2,0.4-3.8,1.5-5.2,3.1
			c-1.3,1.6-2.1,3.5-2.2,5.6c0,0.2,0.1,0.4,0.2,0.6C45.6,30.1,46.2,31.7,47.1,33.1z M49.2,24.3c0.7-1.1,1.8-1.9,3-2.3
			c1.3-0.4,2.6-0.5,3.9-0.1c1.3,0.4,2.4,1.1,3.3,2.1c0.8,1,1.3,2.2,1.4,3.4c0.1,1.3-0.2,2.5-0.8,3.6c-0.7,1.1-1.6,2-2.8,2.5
			c-1.2,0.5-2.5,0.7-3.8,0.4c-1.4-0.2-2.8-1-3.7-2c-1-1.1-1.5-2.5-1.6-4c0,0,0,0,0,0c0,0,0,0,0,0C48.1,26.6,48.5,25.4,49.2,24.3z"/>
		<path fill="#0082F1" d="M44.2,79.7v10.4c0,1,2.7,1,2.7,0V79.7C46.9,78.8,44.2,78.8,44.2,79.7z"/>
		<path fill="#0082F1" d="M54.1,67.6V90c0,1.4,2.7,1.4,2.7,0V67.6C56.8,66.2,54.1,66.2,54.1,67.6z"/>
		<path fill="#0082F1" d="M63.4,79.7v10.4c0,1,2.7,1,2.7,0V79.7C66.1,78.8,63.4,78.8,63.4,79.7z"/>
	</g>
</g>
</svg>
