<svg xmlns="http://www.w3.org/2000/svg" viewBox="0 0 195 62"><defs><style>.cls-1{fill:#fff;}.cls-2{fill:#3ea949;}</style></defs><g id="Layer_1" data-name="Layer 1"><rect class="cls-1" x="0.05" width="195" height="62"/></g><g id="Layer_2" data-name="Layer 2"><path class="cls-2" d="M15.94,16.13a15,15,0,1,0,15,15A15,15,0,0,0,15.94,16.13ZM14.49,43.47a12.39,12.39,0,0,1-8.65-5.09A1,1,0,0,0,6,38.33l5.47-3.16a1.36,1.36,0,1,0-1.37-2.36L4.64,36a1.31,1.31,0,0,0-.12.11,12.36,12.36,0,0,1,.13-10.21l9.84,5.87ZM6.06,23.55a12.39,12.39,0,0,1,8.58-4.82v6.19A1.37,1.37,0,0,0,16,26.29h0a1.36,1.36,0,0,0,1.36-1.37V18.74a12.43,12.43,0,0,1,8.59,5l-10,5.75Zm11.16,20V31.69l10-5.75A12.41,12.41,0,0,1,27.37,36s-.06-.06-.09-.08l-5.46-3.15a1.36,1.36,0,1,0-1.37,2.36l5.46,3.16.14,0A12.42,12.42,0,0,1,17.22,43.5Z"/><path class="cls-2" d="M25.81,16a15.73,15.73,0,0,1,2,1.53A17.3,17.3,0,0,1,29,18.73a11.48,11.48,0,0,1,3.73,1.05,11.74,11.74,0,0,1,4.53,3.87l-4.2,2.47a5,5,0,0,1,.53,2.61l4.77-2.79a11.73,11.73,0,0,1,0,10.17l-4.78-3a5.86,5.86,0,0,1-.11,1.49,6.62,6.62,0,0,1-.31,1.09l4,2.64a12.81,12.81,0,0,1-8.43,5c-.23.3-.48.6-.76.91A13.59,13.59,0,0,1,26,46.09a16,16,0,0,0,10.58-3.45,15.13,15.13,0,0,0,1.62-22.2A15.5,15.5,0,0,0,25.81,16Z"/><path class="cls-2" d="M49.78,31.13a8.52,8.52,0,0,0,2.29,1.59c2.2,1.05,5.53,1.47,6.42.11a1.29,1.29,0,0,0,.24-.79,1.79,1.79,0,0,0-.94-1.19c-1.48-.94-3.63-1.24-4.94-1.62-1-.28-3.62-1-4.73-3.18a5.93,5.93,0,0,1,.42-5.64c1.89-3,5.93-3.1,7.41-3.13a12.85,12.85,0,0,1,6.26,1.62,14.33,14.33,0,0,1,1.39.87l-2.67,3.92c-.48-.3-5.51-3.33-7.24-1.7a1.49,1.49,0,0,0-.49,1A1.56,1.56,0,0,0,53.73,24C54.79,25.13,57,25.2,59.27,26c1.46.48,3.59,1.19,4.45,3a6,6,0,0,1,.42,2.57,7.19,7.19,0,0,1-.7,2.89c-1.82,3.45-6.63,3.71-7.73,3.78a12.22,12.22,0,0,1-7.28-2,11.94,11.94,0,0,1-1.69-1.34Z"/><path class="cls-2" d="M73.59,17.6v7.86h7.62V17.6h5.38V37.9H81.21V30.07H73.62V37.9H68.24V17.6Z"/><path class="cls-2" d="M89.37,37.9,98,17.6h5.64l8.55,20.3h-5.67l-1.36-3.28H96.43L95.07,37.9ZM103.21,30l-2.44-5.86L98.3,30Z"/><path class="cls-2" d="M115.45,17.6H125.8c4.73,0,7.63,3.16,7.63,7.22a6.82,6.82,0,0,1-3.88,6.35l4.58,6.73H127.6l-4-5.89h-2.35V37.9h-5.77Zm5.77,9.8h4.09a2.6,2.6,0,1,0,0-5.19h-4.09Z"/><path class="cls-2" d="M143.1,37.9h-5.77V17.6h5.77Z"/><path class="cls-2" d="M158.36,17.28c6.33,0,11.06,4.61,11,10.41a10.61,10.61,0,0,1-11,10.53c-6.32,0-11.05-4.73-11.05-10.53S152,17.28,158.36,17.28Zm0,16a5.44,5.44,0,0,0,5.25-5.63,5.27,5.27,0,1,0-10.53,0A5.46,5.46,0,0,0,158.36,33.32Z"/><path class="cls-2" d="M170.85,17.6h17.92v4.61h-6.09V37.9h-5.77V22.21h-6.06Z"/><path class="cls-2" d="M49.22,42.41a.81.81,0,0,0-.11-.27.63.63,0,0,0-.18-.22.77.77,0,0,0-.25-.14,1.23,1.23,0,0,0-.35-.05,1.07,1.07,0,0,0-.49.11.89.89,0,0,0-.34.3,1.35,1.35,0,0,0-.19.42,1.86,1.86,0,0,0-.06.48,2,2,0,0,0,.06.48,1.59,1.59,0,0,0,.19.42,1,1,0,0,0,.34.29,1.07,1.07,0,0,0,.49.11.84.84,0,0,0,.37-.07.77.77,0,0,0,.28-.19,1.06,1.06,0,0,0,.26-.64h.61a1.7,1.7,0,0,1-.13.57,1.51,1.51,0,0,1-.32.43,1.42,1.42,0,0,1-.47.29,1.64,1.64,0,0,1-.6.1,1.8,1.8,0,0,1-.71-.14,1.45,1.45,0,0,1-.54-.39,1.63,1.63,0,0,1-.34-.57,2,2,0,0,1-.12-.69,1.92,1.92,0,0,1,.12-.69,1.77,1.77,0,0,1,.34-.58,1.43,1.43,0,0,1,.54-.38,1.64,1.64,0,0,1,.71-.15,2.12,2.12,0,0,1,.57.08,1.58,1.58,0,0,1,.47.23,1.27,1.27,0,0,1,.48.86Z"/><path class="cls-2" d="M53.26,44.2a.26.26,0,0,0,0,.14s.05,0,.1,0h.14v.37l-.07,0-.1,0h-.19a.65.65,0,0,1-.29-.07.39.39,0,0,1-.15-.24.88.88,0,0,1-.41.23,1.72,1.72,0,0,1-.48.08,1.27,1.27,0,0,1-.34,0,.9.9,0,0,1-.28-.13.6.6,0,0,1-.19-.23.66.66,0,0,1-.08-.32.68.68,0,0,1,.09-.37.72.72,0,0,1,.23-.23,1.52,1.52,0,0,1,.32-.12l.36,0,.29,0,.25,0a.39.39,0,0,0,.17-.09.24.24,0,0,0,.06-.18.23.23,0,0,0,0-.17.35.35,0,0,0-.13-.11l-.17,0h-.18a.72.72,0,0,0-.4.1.36.36,0,0,0-.17.3h-.57a.79.79,0,0,1,.12-.4.84.84,0,0,1,.27-.26,1.28,1.28,0,0,1,.36-.13,2,2,0,0,1,.42,0,1.64,1.64,0,0,1,.38,0,1.61,1.61,0,0,1,.33.12.76.76,0,0,1,.24.23.58.58,0,0,1,.09.33Zm-.57-.69a.8.8,0,0,1-.32.09c-.13,0-.26,0-.38.06a.58.58,0,0,0-.18,0,.51.51,0,0,0-.15.07.4.4,0,0,0-.1.12.48.48,0,0,0,0,.18.2.2,0,0,0,.06.15.32.32,0,0,0,.13.1l.17,0h.17a.71.71,0,0,0,.2,0,.66.66,0,0,0,.21-.08.46.46,0,0,0,.16-.15.32.32,0,0,0,.07-.22Z"/><path class="cls-2" d="M54.62,42.27h.54v.48h0a.42.42,0,0,1,.1-.2.69.69,0,0,1,.17-.17.65.65,0,0,1,.23-.13.74.74,0,0,1,.25,0h.22v.52h-.25a.86.86,0,0,0-.27.05.72.72,0,0,0-.22.17.61.61,0,0,0-.15.26,1.06,1.06,0,0,0-.06.37v1.18h-.57Z"/><path class="cls-2" d="M57.56,44a.43.43,0,0,0,.19.34.82.82,0,0,0,.4.09h.18l.19,0a.56.56,0,0,0,.15-.1.21.21,0,0,0,0-.17.21.21,0,0,0-.08-.17.4.4,0,0,0-.19-.11l-.27-.07-.3-.06a2.8,2.8,0,0,1-.31-.09.71.71,0,0,1-.26-.13.52.52,0,0,1-.19-.2.63.63,0,0,1-.07-.32.55.55,0,0,1,.1-.34.92.92,0,0,1,.26-.22,1.8,1.8,0,0,1,.35-.12l.37,0a1.58,1.58,0,0,1,.38,0,1.2,1.2,0,0,1,.33.13.69.69,0,0,1,.24.24.82.82,0,0,1,.13.35h-.6a.33.33,0,0,0-.19-.26.84.84,0,0,0-.33-.07h-.15l-.15,0a.25.25,0,0,0-.12.08.14.14,0,0,0-.05.13.2.2,0,0,0,.07.16.49.49,0,0,0,.19.1l.27.07.31.07a1.67,1.67,0,0,1,.3.08.84.84,0,0,1,.27.13.61.61,0,0,1,.19.2.73.73,0,0,1,0,.68.72.72,0,0,1-.27.25,1.24,1.24,0,0,1-.38.14,1.83,1.83,0,0,1-.4,0,1.53,1.53,0,0,1-.45-.06.85.85,0,0,1-.36-.16.72.72,0,0,1-.25-.27A1,1,0,0,1,57,44Z"/><path class="cls-2" d="M60.48,41.32h.57v1.27h0a.85.85,0,0,1,.31-.28,1,1,0,0,1,.46-.11,1,1,0,0,1,.67.21.77.77,0,0,1,.25.64v1.7h-.57V43.19a.69.69,0,0,0-.13-.43.53.53,0,0,0-.38-.13.75.75,0,0,0-.26,0,.67.67,0,0,0-.19.14.57.57,0,0,0-.13.21.75.75,0,0,0,0,.26v1.46h-.57Z"/><path class="cls-2" d="M66.26,44.2a.26.26,0,0,0,0,.14s0,0,.11,0h.14v.37l-.08,0-.1,0h-.18a.59.59,0,0,1-.29-.07.32.32,0,0,1-.15-.24.91.91,0,0,1-.42.23,1.61,1.61,0,0,1-.48.08,1.2,1.2,0,0,1-.33,0,.8.8,0,0,1-.28-.13.63.63,0,0,1-.2-.23.66.66,0,0,1-.07-.32.68.68,0,0,1,.09-.37.57.57,0,0,1,.23-.23,1.33,1.33,0,0,1,.32-.12l.35,0,.3,0,.25,0a.46.46,0,0,0,.17-.09.24.24,0,0,0,.06-.18.29.29,0,0,0,0-.17.45.45,0,0,0-.13-.11l-.18,0h-.18a.67.67,0,0,0-.39.1.37.37,0,0,0-.18.3h-.57a.79.79,0,0,1,.12-.4.84.84,0,0,1,.27-.26,1.35,1.35,0,0,1,.37-.13,1.87,1.87,0,0,1,.42,0,1.55,1.55,0,0,1,.37,0,1.5,1.5,0,0,1,.34.12.84.84,0,0,1,.23.23.58.58,0,0,1,.09.33Zm-.57-.69a.71.71,0,0,1-.32.09l-.38.06a.47.47,0,0,0-.17,0,.35.35,0,0,0-.15.07.23.23,0,0,0-.1.12.34.34,0,0,0,0,.18.25.25,0,0,0,0,.15.36.36,0,0,0,.14.1.69.69,0,0,0,.17,0h.16a.78.78,0,0,0,.21,0,.9.9,0,0,0,.21-.08.75.75,0,0,0,.16-.15.38.38,0,0,0,.06-.22Z"/><path class="cls-2" d="M67.63,42.27h.53v.48h0a.54.54,0,0,1,.1-.2,1,1,0,0,1,.18-.17.61.61,0,0,1,.22-.13.8.8,0,0,1,.26,0h.21v.52H68.9a.59.59,0,0,0-.5.22.93.93,0,0,0-.15.26,1.38,1.38,0,0,0,0,.37v1.18h-.57Z"/><path class="cls-2" d="M70.15,41.32h.57v.52h-.57Zm0,1h.57v2.48h-.57Z"/><path class="cls-2" d="M72.09,42.27h.54v.36h0a1,1,0,0,1,.34-.32.94.94,0,0,1,.47-.12,1,1,0,0,1,.67.21.8.8,0,0,1,.24.64v1.7h-.57V43.19a.63.63,0,0,0-.13-.43.5.5,0,0,0-.37-.13.67.67,0,0,0-.26,0,.56.56,0,0,0-.32.35.75.75,0,0,0,0,.26v1.46h-.57Z"/><path class="cls-2" d="M78.1,44.62a1,1,0,0,1-.33.84,1.42,1.42,0,0,1-.94.27l-.39,0a1.13,1.13,0,0,1-.36-.14.78.78,0,0,1-.27-.24.6.6,0,0,1-.13-.36h.57a.37.37,0,0,0,.08.19.42.42,0,0,0,.15.11.35.35,0,0,0,.18.05h.21a.65.65,0,0,0,.5-.16.62.62,0,0,0,.16-.47v-.38h0a.82.82,0,0,1-.32.32.89.89,0,0,1-.45.12,1.39,1.39,0,0,1-.53-.1,1.12,1.12,0,0,1-.36-.29,1.44,1.44,0,0,1-.21-.41,2.1,2.1,0,0,1-.06-.51,1.26,1.26,0,0,1,.08-.47,1.23,1.23,0,0,1,.23-.4,1.14,1.14,0,0,1,.37-.27,1.07,1.07,0,0,1,.49-.1,1,1,0,0,1,.45.1.67.67,0,0,1,.31.31h0v-.34h.57Zm-1.26-.3a.66.66,0,0,0,.32-.08.55.55,0,0,0,.21-.19,1,1,0,0,0,.13-.28,1.73,1.73,0,0,0,0-.32,1,1,0,0,0,0-.3.66.66,0,0,0-.12-.27.91.91,0,0,0-.21-.18.79.79,0,0,0-.32-.07.61.61,0,0,0-.32.08.58.58,0,0,0-.21.2.79.79,0,0,0-.12.28,1.55,1.55,0,0,0,0,.31,1,1,0,0,0,0,.3.88.88,0,0,0,.12.26.52.52,0,0,0,.21.18A.62.62,0,0,0,76.84,44.32Z"/><path class="cls-2" d="M81.65,41.32h1.57a1.53,1.53,0,0,1,.62.11,1,1,0,0,1,.37.26.84.84,0,0,1,.18.35,1.47,1.47,0,0,1,0,.34,1.55,1.55,0,0,1,0,.35.86.86,0,0,1-.18.34.88.88,0,0,1-.37.26,1.55,1.55,0,0,1-.62.1h-1v1.32h-.62Zm.62,1.62h.92a.75.75,0,0,0,.21,0,.47.47,0,0,0,.2-.1.35.35,0,0,0,.15-.17.54.54,0,0,0,.06-.27.59.59,0,0,0,0-.28.45.45,0,0,0-.13-.17.37.37,0,0,0-.2-.09.85.85,0,0,0-.23,0h-.93Z"/><path class="cls-2" d="M86.1,43.65a.86.86,0,0,0,0,.28.58.58,0,0,0,.13.23.56.56,0,0,0,.21.16.75.75,0,0,0,.31.06.68.68,0,0,0,.4-.1.57.57,0,0,0,.23-.31H88a1,1,0,0,1-.15.36,1,1,0,0,1-.27.27,1.25,1.25,0,0,1-.35.16,1.29,1.29,0,0,1-.4.06,1.53,1.53,0,0,1-.54-.1,1.09,1.09,0,0,1-.4-.27,1.27,1.27,0,0,1-.24-.41,1.78,1.78,0,0,1-.08-.53,1.39,1.39,0,0,1,.09-.5,1.12,1.12,0,0,1,.25-.42,1,1,0,0,1,.39-.28,1.21,1.21,0,0,1,.52-.11,1.26,1.26,0,0,1,.55.12,1.29,1.29,0,0,1,.4.33,1.36,1.36,0,0,1,.27,1Zm1.33-.36a1,1,0,0,0-.06-.25.74.74,0,0,0-.13-.21.48.48,0,0,0-.2-.14.58.58,0,0,0-.26-.06.87.87,0,0,0-.28,0,.77.77,0,0,0-.21.14.74.74,0,0,0-.13.21.58.58,0,0,0-.06.26Z"/><path class="cls-2" d="M89.18,42.27h.54v.48h0a.52.52,0,0,1,.09-.2,1,1,0,0,1,.18-.17.65.65,0,0,1,.23-.13.74.74,0,0,1,.25,0h.22v.52h-.25a.81.81,0,0,0-.27.05.75.75,0,0,0-.37.43,1.06,1.06,0,0,0-.06.37v1.18h-.57Z"/><path class="cls-2" d="M92.12,44a.43.43,0,0,0,.19.34.82.82,0,0,0,.4.09h.18l.19,0a.56.56,0,0,0,.15-.1.21.21,0,0,0,0-.17.21.21,0,0,0-.08-.17.4.4,0,0,0-.19-.11l-.27-.07-.3-.06a2.8,2.8,0,0,1-.31-.09.84.84,0,0,1-.27-.13.58.58,0,0,1-.18-.2.63.63,0,0,1-.07-.32.55.55,0,0,1,.1-.34.8.8,0,0,1,.26-.22,1.6,1.6,0,0,1,.35-.12l.37,0a1.58,1.58,0,0,1,.38,0,1.2,1.2,0,0,1,.33.13.69.69,0,0,1,.24.24.82.82,0,0,1,.13.35h-.6A.33.33,0,0,0,93,42.7a.84.84,0,0,0-.33-.07H92.5l-.15,0a.25.25,0,0,0-.12.08.14.14,0,0,0,0,.13.2.2,0,0,0,.07.16.49.49,0,0,0,.19.1l.27.07.31.07a1.67,1.67,0,0,1,.3.08.84.84,0,0,1,.27.13.61.61,0,0,1,.19.2.73.73,0,0,1,0,.68.68.68,0,0,1-.28.25,1.09,1.09,0,0,1-.37.14,1.83,1.83,0,0,1-.4,0,1.65,1.65,0,0,1-.46-.06,1,1,0,0,1-.36-.16.78.78,0,0,1-.24-.27,1,1,0,0,1-.09-.38Z"/><path class="cls-2" d="M96.22,44.82a1.58,1.58,0,0,1-.55-.1,1.33,1.33,0,0,1-.41-.27A1.29,1.29,0,0,1,95,44a1.72,1.72,0,0,1-.08-.52A1.78,1.78,0,0,1,95,43a1.25,1.25,0,0,1,.26-.41,1.17,1.17,0,0,1,.41-.27,1.38,1.38,0,0,1,.55-.1,1.35,1.35,0,0,1,.55.1,1.09,1.09,0,0,1,.41.27,1.1,1.1,0,0,1,.26.41,1.51,1.51,0,0,1,.09.53,1.46,1.46,0,0,1-.09.52,1.14,1.14,0,0,1-.26.42,1.22,1.22,0,0,1-.41.27A1.54,1.54,0,0,1,96.22,44.82Zm0-.44a.67.67,0,0,0,.33-.07.64.64,0,0,0,.23-.2,1,1,0,0,0,.14-.28,1.3,1.3,0,0,0,0-.64.82.82,0,0,0-.14-.28.64.64,0,0,0-.23-.2.67.67,0,0,0-.33-.08.73.73,0,0,0-.33.08.74.74,0,0,0-.23.2.8.8,0,0,0-.13.28,1.3,1.3,0,0,0,0,.64,1,1,0,0,0,.13.28.74.74,0,0,0,.23.2A.72.72,0,0,0,96.22,44.38Z"/><path class="cls-2" d="M98.75,42.27h.54v.36h0a1,1,0,0,1,.34-.32.94.94,0,0,1,.47-.12,1,1,0,0,1,.67.21.8.8,0,0,1,.24.64v1.7h-.57V43.19a.63.63,0,0,0-.13-.43.5.5,0,0,0-.37-.13.67.67,0,0,0-.26,0,.56.56,0,0,0-.32.35.75.75,0,0,0-.05.26v1.46h-.57Z"/><path class="cls-2" d="M104.54,44.2a.46.46,0,0,0,0,.14.12.12,0,0,0,.11,0h.14v.37l-.08,0-.09,0h-.19a.65.65,0,0,1-.29-.07.39.39,0,0,1-.15-.24.88.88,0,0,1-.41.23,1.72,1.72,0,0,1-.48.08,1.27,1.27,0,0,1-.34,0,.9.9,0,0,1-.28-.13.6.6,0,0,1-.19-.23.66.66,0,0,1-.08-.32.68.68,0,0,1,.09-.37.72.72,0,0,1,.23-.23,1.52,1.52,0,0,1,.32-.12l.36,0,.29,0,.25,0a.39.39,0,0,0,.17-.09A.24.24,0,0,0,104,43a.29.29,0,0,0,0-.17.35.35,0,0,0-.13-.11l-.17,0h-.18a.72.72,0,0,0-.4.1.36.36,0,0,0-.17.3h-.57a.79.79,0,0,1,.12-.4.84.84,0,0,1,.27-.26,1.28,1.28,0,0,1,.36-.13,2,2,0,0,1,.42,0,1.64,1.64,0,0,1,.38,0,1.61,1.61,0,0,1,.33.12.76.76,0,0,1,.24.23.58.58,0,0,1,.09.33Zm-.57-.69a.8.8,0,0,1-.32.09c-.13,0-.26,0-.38.06a.58.58,0,0,0-.18,0,.51.51,0,0,0-.15.07.4.4,0,0,0-.1.12.34.34,0,0,0,0,.18.2.2,0,0,0,.06.15.32.32,0,0,0,.13.1l.17,0h.17a.71.71,0,0,0,.2,0,.66.66,0,0,0,.21-.08.46.46,0,0,0,.16-.15.32.32,0,0,0,.07-.22Z"/><path class="cls-2" d="M105.92,41.32h.57v3.43h-.57Z"/><path class="cls-2" d="M107.87,41.32h.57v.52h-.57Zm0,1h.57v2.48h-.57Z"/><path class="cls-2" d="M110.24,44a.43.43,0,0,0,.19.34.82.82,0,0,0,.4.09H111l.19,0a.56.56,0,0,0,.15-.1.21.21,0,0,0,.05-.17.21.21,0,0,0-.08-.17.4.4,0,0,0-.19-.11l-.27-.07-.3-.06a2.8,2.8,0,0,1-.31-.09.84.84,0,0,1-.27-.13.58.58,0,0,1-.18-.2.63.63,0,0,1-.07-.32.55.55,0,0,1,.1-.34.8.8,0,0,1,.26-.22,1.6,1.6,0,0,1,.35-.12l.37,0a1.58,1.58,0,0,1,.38,0,1.2,1.2,0,0,1,.33.13.82.82,0,0,1,.25.24,1,1,0,0,1,.12.35h-.6a.33.33,0,0,0-.19-.26.84.84,0,0,0-.33-.07h-.15l-.15,0a.25.25,0,0,0-.12.08.14.14,0,0,0,0,.13.2.2,0,0,0,.07.16.49.49,0,0,0,.19.1l.27.07.31.07a1.67,1.67,0,0,1,.3.08.84.84,0,0,1,.27.13.61.61,0,0,1,.19.2.73.73,0,0,1,0,.68.68.68,0,0,1-.28.25,1.09,1.09,0,0,1-.37.14,1.83,1.83,0,0,1-.4,0,1.65,1.65,0,0,1-.46-.06,1,1,0,0,1-.36-.16.67.67,0,0,1-.23-.27.85.85,0,0,1-.1-.38Z"/><path class="cls-2" d="M113.6,43.65a.87.87,0,0,0,.05.28.56.56,0,0,0,.12.23.6.6,0,0,0,.22.16.71.71,0,0,0,.31.06.7.7,0,0,0,.4-.1.62.62,0,0,0,.23-.31h.54a.85.85,0,0,1-.16.36,1,1,0,0,1-.26.27,1.39,1.39,0,0,1-.35.16,1.34,1.34,0,0,1-.4.06,1.44,1.44,0,0,1-.54-.1,1,1,0,0,1-.4-.27,1,1,0,0,1-.24-.41,1.51,1.51,0,0,1-.09-.53,1.39,1.39,0,0,1,.09-.5,1.27,1.27,0,0,1,.25-.42,1.21,1.21,0,0,1,.39-.28,1.27,1.27,0,0,1,.52-.11,1.2,1.2,0,0,1,.55.12,1.18,1.18,0,0,1,.4.33,1.26,1.26,0,0,1,.24.46,1.41,1.41,0,0,1,0,.54Zm1.33-.36a.7.7,0,0,0-.05-.25,1.07,1.07,0,0,0-.13-.21.66.66,0,0,0-.2-.14.6.6,0,0,0-.27-.06.65.65,0,0,0-.62.4,1.1,1.1,0,0,0-.06.26Z"/><path class="cls-2" d="M119.12,44.75h-.54v-.34h0a.62.62,0,0,1-.33.31,1.24,1.24,0,0,1-.47.1,1.25,1.25,0,0,1-.53-.11,1.08,1.08,0,0,1-.38-.28,1.2,1.2,0,0,1-.22-.42,1.72,1.72,0,0,1-.08-.52,1.47,1.47,0,0,1,.1-.58,1.14,1.14,0,0,1,.25-.4.92.92,0,0,1,.36-.23,1.15,1.15,0,0,1,.41-.08l.25,0,.24.07.21.12a.69.69,0,0,1,.16.18h0V41.32h.57Zm-2-1.21a1.76,1.76,0,0,0,0,.31.87.87,0,0,0,.14.27.59.59,0,0,0,.22.19.63.63,0,0,0,.32.07.66.66,0,0,0,.32-.07.64.64,0,0,0,.23-.2,1,1,0,0,0,.13-.28,1.17,1.17,0,0,0,0-.32,1,1,0,0,0-.19-.65.65.65,0,0,0-.52-.23.68.68,0,0,0-.34.08.66.66,0,0,0-.23.21.84.84,0,0,0-.12.29A1.66,1.66,0,0,0,117.13,43.54Z"/><path class="cls-2" d="M122.68,44.1h.69v.65h-.69Z"/><path class="cls-2" d="M130.35,43.41,129,41.32h.73l.94,1.54.93-1.54h.7L131,43.41v1.34h-.63Z"/><path class="cls-2" d="M134.06,44.82a1.64,1.64,0,0,1-.56-.1,1.46,1.46,0,0,1-.41-.27,1.27,1.27,0,0,1-.25-.42,1.46,1.46,0,0,1-.09-.52,1.51,1.51,0,0,1,.09-.53,1.22,1.22,0,0,1,.25-.41,1.27,1.27,0,0,1,.41-.27,1.43,1.43,0,0,1,.56-.1,1.38,1.38,0,0,1,.55.1,1.17,1.17,0,0,1,.41.27,1.08,1.08,0,0,1,.25.41,1.51,1.51,0,0,1,.09.53,1.46,1.46,0,0,1-.09.52,1.12,1.12,0,0,1-.25.42,1.33,1.33,0,0,1-.41.27A1.58,1.58,0,0,1,134.06,44.82Zm0-.44a.72.72,0,0,0,.33-.07.74.74,0,0,0,.23-.2,1,1,0,0,0,.13-.28,1.3,1.3,0,0,0,0-.64.8.8,0,0,0-.13-.28.74.74,0,0,0-.23-.2.73.73,0,0,0-.33-.08.67.67,0,0,0-.33.08.64.64,0,0,0-.23.2.82.82,0,0,0-.14.28,1.3,1.3,0,0,0,0,.64,1,1,0,0,0,.14.28.64.64,0,0,0,.23.2A.67.67,0,0,0,134.06,44.38Z"/><path class="cls-2" d="M138.86,44.75h-.56V44.4h0a.72.72,0,0,1-.32.3.84.84,0,0,1-.42.12,1,1,0,0,1-.74-.25,1,1,0,0,1-.22-.73V42.27h.57v1.52a.63.63,0,0,0,.13.46.45.45,0,0,0,.36.13.67.67,0,0,0,.3-.05.48.48,0,0,0,.2-.14.51.51,0,0,0,.1-.21.84.84,0,0,0,0-.27V42.27h.57Z"/><path class="cls-2" d="M140.21,42.27h.53v.48h0a.54.54,0,0,1,.1-.2l.17-.17a.82.82,0,0,1,.49-.18h.21v.52h-.24a.87.87,0,0,0-.28.05.72.72,0,0,0-.22.17.93.93,0,0,0-.15.26,1.07,1.07,0,0,0-.05.37v1.18h-.57Z"/><path class="cls-2" d="M145.58,43.61a.67.67,0,0,0,.07.33.54.54,0,0,0,.19.23,1,1,0,0,0,.29.13,1.29,1.29,0,0,0,.35,0,1.2,1.2,0,0,0,.35,0,.67.67,0,0,0,.24-.12.43.43,0,0,0,.13-.17.58.58,0,0,0,0-.19.38.38,0,0,0-.1-.29.53.53,0,0,0-.2-.13c-.13,0-.27-.09-.44-.13l-.62-.15a1.59,1.59,0,0,1-.39-.15,1.29,1.29,0,0,1-.24-.21.85.85,0,0,1-.13-.25,1.09,1.09,0,0,1,0-.26.84.84,0,0,1,.11-.45.81.81,0,0,1,.3-.31,1.15,1.15,0,0,1,.42-.19,2,2,0,0,1,1,0,1.44,1.44,0,0,1,.43.21,1,1,0,0,1,.3.34,1,1,0,0,1,.11.48h-.62a.57.57,0,0,0-.24-.47,1,1,0,0,0-.53-.14l-.23,0-.21.07a.7.7,0,0,0-.16.14.38.38,0,0,0-.06.22.35.35,0,0,0,.12.28.82.82,0,0,0,.31.16l.15,0,.31.08.33.08.24.06a1.2,1.2,0,0,1,.3.15.88.88,0,0,1,.22.21.75.75,0,0,1,.13.25.84.84,0,0,1,0,.27,1,1,0,0,1-.12.49,1,1,0,0,1-.32.33,1.44,1.44,0,0,1-.46.19,2.24,2.24,0,0,1-.52.06,2.12,2.12,0,0,1-.57-.07,1.36,1.36,0,0,1-.47-.22,1.07,1.07,0,0,1-.32-.38,1.21,1.21,0,0,1-.13-.55Z"/><path class="cls-2" d="M149.08,41.32h.57v1.27h0a.85.85,0,0,1,.31-.28,1,1,0,0,1,.46-.11,1,1,0,0,1,.67.21.77.77,0,0,1,.25.64v1.7h-.57V43.19a.69.69,0,0,0-.13-.43.53.53,0,0,0-.38-.13.75.75,0,0,0-.26,0,.67.67,0,0,0-.19.14.57.57,0,0,0-.13.21.75.75,0,0,0,0,.26v1.46h-.57Z"/><path class="cls-2" d="M154.86,44.2a.26.26,0,0,0,0,.14s.05,0,.11,0h.14v.37l-.08,0-.1,0h-.18a.59.59,0,0,1-.29-.07.32.32,0,0,1-.15-.24,1,1,0,0,1-.42.23,1.66,1.66,0,0,1-.48.08,1.2,1.2,0,0,1-.33,0,1,1,0,0,1-.29-.13.71.71,0,0,1-.19-.23.66.66,0,0,1-.07-.32.78.78,0,0,1,.08-.37.72.72,0,0,1,.23-.23,1.75,1.75,0,0,1,.32-.12l.36,0,.3,0,.24,0a.34.34,0,0,0,.17-.09.21.21,0,0,0,.07-.18.24.24,0,0,0-.06-.17.28.28,0,0,0-.13-.11.69.69,0,0,0-.17,0h-.18a.67.67,0,0,0-.39.1.34.34,0,0,0-.18.3h-.57a.79.79,0,0,1,.12-.4.84.84,0,0,1,.27-.26,1.35,1.35,0,0,1,.37-.13,1.87,1.87,0,0,1,.42,0,1.55,1.55,0,0,1,.37,0,1.27,1.27,0,0,1,.33.12.76.76,0,0,1,.24.23.58.58,0,0,1,.09.33Zm-.57-.69a.71.71,0,0,1-.32.09l-.38.06a.47.47,0,0,0-.17,0,.35.35,0,0,0-.15.07.32.32,0,0,0-.11.12.48.48,0,0,0,0,.18.25.25,0,0,0,.05.15.41.41,0,0,0,.13.1l.17,0h.17a.78.78,0,0,0,.21,0,.7.7,0,0,0,.2-.08.61.61,0,0,0,.17-.15.38.38,0,0,0,.06-.22Z"/><path class="cls-2" d="M156.23,42.27h.53v.48h0a.54.54,0,0,1,.1-.2,1.37,1.37,0,0,1,.17-.17.76.76,0,0,1,.23-.13.8.8,0,0,1,.26,0h.21v.52h-.24a.62.62,0,0,0-.5.22.93.93,0,0,0-.15.26,1.38,1.38,0,0,0,0,.37v1.18h-.57Z"/><path class="cls-2" d="M158.75,41.32h.57v.52h-.57Zm0,1h.57v2.48h-.57Z"/><path class="cls-2" d="M161.88,44.82a1.64,1.64,0,0,1-.56-.1,1.46,1.46,0,0,1-.41-.27,1.27,1.27,0,0,1-.25-.42,1.46,1.46,0,0,1-.09-.52,1.51,1.51,0,0,1,.09-.53,1.22,1.22,0,0,1,.25-.41,1.27,1.27,0,0,1,.41-.27,1.43,1.43,0,0,1,.56-.1,1.38,1.38,0,0,1,.55.1,1.17,1.17,0,0,1,.41.27,1.08,1.08,0,0,1,.25.41,1.51,1.51,0,0,1,.09.53,1.46,1.46,0,0,1-.09.52,1.12,1.12,0,0,1-.25.42,1.33,1.33,0,0,1-.41.27A1.58,1.58,0,0,1,161.88,44.82Zm0-.44a.72.72,0,0,0,.33-.07.74.74,0,0,0,.23-.2,1,1,0,0,0,.13-.28,1.3,1.3,0,0,0,0-.64.8.8,0,0,0-.13-.28.74.74,0,0,0-.23-.2.73.73,0,0,0-.33-.08.67.67,0,0,0-.33.08.64.64,0,0,0-.23.2.66.66,0,0,0-.13.28,1,1,0,0,0,0,.64.79.79,0,0,0,.13.28.64.64,0,0,0,.23.2A.67.67,0,0,0,161.88,44.38Z"/><path class="cls-2" d="M164.15,42.27h.43v-.75h.57v.75h.51v.41h-.51v1.47a.36.36,0,0,0,0,.11.28.28,0,0,0,.08.06l.15,0h.12l.12,0v.42l-.18,0h-.19a1.19,1.19,0,0,1-.36,0,.52.52,0,0,1-.22-.12.42.42,0,0,1-.1-.2,1.12,1.12,0,0,1,0-.27V42.68h-.43Z"/><path class="cls-2" d="M170.75,41.32h.67l1.37,3.43h-.67l-.33-.91h-1.43l-.33.91h-.65Zm-.22,2.07h1.09l-.53-1.48h0Z"/><path class="cls-2" d="M173.48,42.27h.6l.51,1.85h0l.48-1.85h.58l.46,1.85h0l.53-1.85h.58l-.81,2.48h-.59l-.48-1.84h0l-.47,1.84h-.6Z"/><path class="cls-2" d="M180.52,44.2a.26.26,0,0,0,0,.14s0,0,.1,0h.14v.37l-.07,0-.1,0h-.19a.65.65,0,0,1-.29-.07.39.39,0,0,1-.15-.24.88.88,0,0,1-.41.23,1.72,1.72,0,0,1-.48.08,1.27,1.27,0,0,1-.34,0,.9.9,0,0,1-.28-.13.6.6,0,0,1-.19-.23.66.66,0,0,1-.08-.32.68.68,0,0,1,.09-.37.72.72,0,0,1,.23-.23,1.52,1.52,0,0,1,.32-.12l.36,0,.29,0,.25,0a.39.39,0,0,0,.17-.09A.24.24,0,0,0,180,43a.23.23,0,0,0,0-.17.35.35,0,0,0-.13-.11l-.17,0h-.18a.72.72,0,0,0-.4.1.36.36,0,0,0-.17.3h-.57a.79.79,0,0,1,.12-.4.84.84,0,0,1,.27-.26,1.28,1.28,0,0,1,.36-.13,2,2,0,0,1,.42,0,1.58,1.58,0,0,1,.38,0,1.61,1.61,0,0,1,.33.12.76.76,0,0,1,.24.23.58.58,0,0,1,.09.33Zm-.57-.69a.8.8,0,0,1-.32.09c-.13,0-.26,0-.38.06a.58.58,0,0,0-.18,0,.51.51,0,0,0-.15.07.4.4,0,0,0-.1.12.48.48,0,0,0,0,.18.2.2,0,0,0,.06.15.32.32,0,0,0,.13.1l.17,0h.17a.71.71,0,0,0,.2,0,.66.66,0,0,0,.21-.08.46.46,0,0,0,.16-.15.32.32,0,0,0,.07-.22Z"/><path class="cls-2" d="M181.9,41.32h.57v.52h-.57Zm0,1h.57v2.48h-.57Z"/><path class="cls-2" d="M183.58,42.27H184v-.75h.57v.75h.51v.41h-.51V44a.66.66,0,0,0,0,.15.2.2,0,0,0,0,.11l.08.06.15,0H185l.12,0v.42l-.18,0h-.19a1.19,1.19,0,0,1-.36,0,.43.43,0,0,1-.21-.12.36.36,0,0,1-.11-.2,1.12,1.12,0,0,1,0-.27V42.68h-.43Z"/><path class="cls-2" d="M186.68,44a.43.43,0,0,0,.19.34.84.84,0,0,0,.4.09h.18l.19,0a.56.56,0,0,0,.15-.1.21.21,0,0,0,.05-.17.21.21,0,0,0-.08-.17.4.4,0,0,0-.19-.11l-.27-.07-.3-.06a2.8,2.8,0,0,1-.31-.09.71.71,0,0,1-.26-.13.61.61,0,0,1-.19-.2.63.63,0,0,1-.07-.32.55.55,0,0,1,.1-.34.92.92,0,0,1,.26-.22,1.8,1.8,0,0,1,.35-.12l.37,0a1.58,1.58,0,0,1,.38,0,1.2,1.2,0,0,1,.33.13.82.82,0,0,1,.25.24,1,1,0,0,1,.12.35h-.6a.34.34,0,0,0-.18-.26.89.89,0,0,0-.34-.07h-.14l-.16,0a.25.25,0,0,0-.12.08.17.17,0,0,0,0,.13.2.2,0,0,0,.07.16.49.49,0,0,0,.19.1l.27.07.31.07a1.67,1.67,0,0,1,.3.08.84.84,0,0,1,.27.13.61.61,0,0,1,.19.2.73.73,0,0,1,0,.68.72.72,0,0,1-.27.25,1.24,1.24,0,0,1-.38.14,1.83,1.83,0,0,1-.4,0,1.63,1.63,0,0,1-.45-.06.85.85,0,0,1-.36-.16.62.62,0,0,1-.24-.27.85.85,0,0,1-.1-.38Z"/><path class="cls-2" d="M190.47,17.75h1.33V18h-.52v1.34H191V18h-.52Z"/><path class="cls-2" d="M192.33,17.75h.41l.45,1.24h0l.44-1.24h.4v1.58h-.27V18.11h0l-.45,1.22h-.24l-.46-1.22h0v1.22h-.28Z"/></g></svg>