<?xml version="1.0" encoding="UTF-8"?>
<svg id="Layer_1" xmlns="http://www.w3.org/2000/svg" width="384.9" height="93.3" version="1.1" viewBox="0 0 384.9 93.3">
  <!-- Generator: Adobe Illustrator 29.1.0, SVG Export Plug-In . SVG Version: 2.1.0 Build 142)  -->
  <path d="M-320.2-692.4" fill="#f1f2f2" stroke="#231f20" stroke-miterlimit="10"/>
  <path d="M169.3,70.7c-3.9,0-3.8-3.2-3.8-3.2,0,0,3.1-25.3,3.5-28.2,0,0,.2-1.8,4.6-1.8,4.6,0,4.3,1.9,4.3,1.9l-.4,2.9s0,.3.3.3c.3,0,.5-.2.5-.2,2.4-3,6.5-4.8,11-4.9,3.2,0,4.2,0,4.9,0,0,0,1.6,0,1.3,3-.2,2.9-1.9,3.1-1.9,3.1-.7,0-.9,0-5.5.3-4.7.2-10.2,3.3-11.5,7.5-.7,2.1-2.2,16.1-2.2,16.1,0,0-.3,3.2-5.2,3.2ZM241.9,43.6c-1.8,0-12.1-.1-16,0-2.3,0-2.7.5-2.9,2.2,0,.7-.4,2.1,1.6,3.1,2.6,1.2,8.2,3.9,13.6,6.3,3.5,1.6,4,3.4,3.4,8.3-.5,4.1-1.8,7.4-7.1,7.3-4.1-.1-14.1.2-17.9.1,0,0-2.5,0-2.3-3.3.2-3,3-2.8,3-2.8,3.3,0,11.1,0,14.2,0,3.7,0,3.8-.6,4.1-2.2.3-1.7-.9-2.3-2.8-3.2-2.9-1.5-5.9-2.7-8.1-3.7-4.4-2-7.2-2.5-7.7-6.1l-15.7,11.7h0c0,0,0,0,0,0,0,0,0,0,0,.2,0,.3.3.7.4.8,2.9,2.8,6.3,3.1,7.6,3.1s.5,0,.5,0h.5s.2.1.2.1c1.4.5,2.1,2,1.6,4-.4,1.8-2.2,2.4-3.3,2.5h0c-.7,0-6.6-.1-11.8-5.2-3.7-3.6-5.6-8.8-5.1-14.1.5-5.3,3.3-10,7.7-12.8,3.1-2,6.4-3,9.9-3,3.4,0,6.8,1.1,9.5,2.9,1.4-1.9,3.6-1.9,6.7-2,4.6,0,14.9,0,17.1,0,0,0,2.2,0,1.8,3.2-.4,2.8-2.4,2.8-2.4,2.8ZM218.2,40.3c-2.3-1.5-5.4-2.7-9-2.7-2.9,0-6.1.8-9.3,2.9-8.8,5.7-9.8,18.3-2.5,25.4,4.9,4.8,10.4,4.9,11.1,4.9s0,0,0,0c0,0,2-.1,2.4-1.7.6-2.6-1.1-2.8-1.2-2.9,0,0-.2,0-.6,0-1.4,0-5.1-.3-8.3-3.3,0,0-.7-.7-.7-1.5,0-.8.5-1.1.5-1.1l16.2-12.1c0-.8,0-1.7.1-2.7.3-2.4.7-4,1.3-5.2ZM345,70.7c-4.1-.1-14.1.2-17.9.1,0,0-2.5,0-2.3-3.3.2-3,3-2.8,3-2.8,3.3,0,11.1,0,14.2,0,3.7,0,3.8-.6,4.1-2.2.3-1.7-.9-2.3-2.8-3.2-2.9-1.5-5.9-2.7-8.1-3.7-4.4-2-7.1-2.5-7.7-6.1l-15.2,11.4h0c0,0,0,0,0,0,0,0,0,0,0,.2,0,.3.3.7.4.8,2.9,2.8,6.3,3.1,7.6,3.1s.5,0,.5,0h.5s.2.1.2.1c1.4.5,2.1,2,1.6,4-.4,1.8-2.2,2.4-3.3,2.5h0c-.7,0-6.6-.1-11.8-5.2-3.7-3.6-5.6-8.8-5.1-14.1.5-5.3,3.3-10,7.7-12.8,3.1-2,6.4-3,9.9-3h0c3.3,0,6.7,1,9.4,2.8,1.4-1.5,3.5-1.5,6.4-1.6,4.6,0,14.9,0,17.1,0,0,0,2.2,0,1.8,3.2-.4,2.8-2.4,2.8-2.4,2.8-1.8,0-12.1-.1-16,0-2.3,0-2.7.5-2.9,2.2,0,.7-.4,2.1,1.6,3.1,2.6,1.2,8.2,3.9,13.6,6.3,3.5,1.6,4,3.4,3.4,8.3-.5,4.1-1.8,7.4-7.1,7.3ZM329.1,39.8c-2.2-1.4-5.3-2.6-8.8-2.6-2.9,0-6.1.8-9.3,2.9-8.8,5.7-9.8,18.3-2.5,25.4,4.9,4.8,10.4,4.9,11.1,4.9s0,0,0,0c0,0,2-.1,2.4-1.7.6-2.6-1.1-2.8-1.2-2.9,0,0-.2,0-.6,0-1.4,0-5.1-.3-8.3-3.3,0,0-.7-.7-.7-1.5,0-.8.5-1.1.5-1.1l15.7-11.7c0-.8,0-1.7.1-2.8.3-2.7.8-4.4,1.5-5.6ZM267.5,37.5c-5.7.1-9.2,2.6-10.8,4.4-.5.5-.5.7-1,.7-.4,0-.3-.3-.3-.3l1.4-11.8s.2-1.9-3.9-1.9-5.1,1.8-5.1,1.8l-4.6,37.3s-.1,3.1,4.1,3c4.2,0,4.9-2.8,4.9-2.8,0,0,1.2-9.6,1.8-13.9.7-5,2.8-7,7.2-9,5.3-2.4,5.6.6,5.1,4.6l-2.3,18.8s-.3,2.3,2.5,2.3,3.5-2.1,3.5-2.1l2.8-22.9c.7-5.9-.4-8.4-5.3-8.2ZM281.9,67.9s1.2-10,1.9-14.5c.7-4.6,3.7-7.1,7.2-8.5,5.2-2,5.5.2,4.9,5.3l-2.2,18.3s-.3,2.3,2.6,2.2c3.1,0,3.4-2.2,3.4-2.2l2.7-22.2c.7-5.9.6-8.8-5.9-8.7-5.5,0-8.6,2.9-10.3,4.7-.4.4-.5.4-.7.4-.3,0-.3-.3-.3-.3l.3-2.9s.2-1.9-3.8-1.9-5.1,1.9-5.1,1.9l-3.5,28.4s-.3,3,4.4,3c4.2,0,4.5-2.9,4.5-2.9ZM209,42.2c1.4,0,2.8.3,4.1.7.4.1.8.4,1.1.7.2.2.3.7,0,1l-15.4,11.4c-.2.1-.4.2-.5.2s-.3,0-.5-.1c-.4-.2-.6-.8-.6-1.4,0-2.8.7-6.4,4-9.4,2.4-2.2,5.3-3.1,8-3.1ZM212.8,43.8c-1.2-.4-2.5-.6-3.7-.6-1.9,0-4.7.5-7.3,2.8-2.5,2.2-3.7,5.1-3.6,8.6,0,.2,0,.4,0,.5l15-11.1c0,0-.2-.1-.4-.2ZM191.3,22.8c.4-3.2-.6-4.8-2.8-4.8h-28.6c-5-.1-10.3,3.3-11,9.9,0,0-4.6,37.1-6.4,52.6-.3,2.4.8,3.5,4.6,3.5s5-1.6,5.2-3.5c1.1-9.1,4.7-38.6,5.8-47.7.5-4.1,2.9-5.1,5-5.1,3.1,0,20.1,0,24,0s3.6-1,4.1-4.9ZM155.4,13.8c4.2,0,5,0,5.9-1.8.2-.3.8-1.1,1.3-1.5,1-.7,2.4-.9,3-.9,3.1,0,31.3,0,35.1,0s3.4-1,4-4.9c.3-2.1-.2-4.8-2.4-4.8h-40.1c-5.4,0-10.1,3.5-11,9.8,0,0,0-.6,0,.3-.3,2.3-.5,3.8,4.3,3.8ZM383,37.5c-2.3,0-12.5,0-17.1,0-5.1,0-7.6,0-8.5,8-.9,7.4,2,7.4,7.7,10,2.3,1,5.3,2.3,8.1,3.7,1.9,1,3,1.6,2.8,3.2-.3,1.6-.7,2.2-3.1,2.2,0,0-2.2-.4-2.6,2.8-.4,3.3,1,3.2,4.5,3.2,5.3,0,6.6-3.2,7.1-7.3.6-4.9.1-6.7-3.4-8.3-5.3-2.4-11-5-13.6-6.3-1.9-.9-1.7-2.3-1.6-3.1.2-1.7.7-2.1,2.9-2.2,3.9-.1,14.2,0,16,0,0,0,2,0,2.4-2.8.4-3.2-1.8-3.2-1.8-3.2ZM364.1,64.6h-6.9c-1.4,0-2.5,1.1-2.5,2.5v1.1c0,1.4,1.1,2.5,2.5,2.5h6.7c1.4,0,2.4-.3,2.8-3,.5-3.5-1.1-3.1-2.5-3.1ZM320.2,41.9c1.4,0,2.8.3,4.1.7.4.1.8.4,1.1.7.2.2.3.7,0,1l-15.4,11.4c-.2.1-.4.2-.5.2s-.3,0-.5-.1c-.4-.2-.6-.8-.6-1.4,0-2.8.7-6.4,4-9.4,2.4-2.2,5.3-3.1,8-3.1ZM323.9,43.5c-1.2-.4-2.5-.6-3.7-.6-1.9,0-4.7.5-7.3,2.8-2.5,2.2-3.7,5.1-3.6,8.6,0,.2,0,.4,0,.5l15-11.1c0,0-.2-.1-.4-.2ZM169.6,83.9h2.8v7.3h2.1v-7.3h2.9v-1.2h-7.8v1.2ZM179.4,86.3v-1.4h-1.7v6.3h2v-3.2c0-1.2.7-1.9,2.1-1.9s.2,0,.4,0v-1.3c-.1,0-.3,0-.4,0-1.1,0-1.8.5-2.4,1.5ZM187.5,87.9c0,.9-.1,1.5-.3,1.9-.2.3-.6.5-1.2.5s-.8,0-.9-.3c-.1-.2-.2-.6-.2-1.1v-4h-2v4c0,.7,0,1.2.2,1.5s.4.5.8.7.8.2,1.4.2c1.1,0,1.9-.4,2.4-1.1v.9h1.8v-6.3h-2v3ZM195,85.7c.4,0,.7,0,1,.3s.4.5.5,1.1h1.9c-.3-1.6-1.4-2.4-3.3-2.4s-2.1.3-2.8.8-.9,1.4-.9,2.5.3,1.8.9,2.4c.6.6,1.5.9,2.7.9,2.1,0,3.2-.8,3.5-2.3h-1.9c-.1.8-.6,1.2-1.4,1.2s-1.7-.7-1.7-2.1.1-1.5.4-1.9c.3-.4.7-.5,1.3-.5ZM206.8,84.9h-1.9l-3.1,2.8v-5h-2v8.5h2v-2l1.3-1.1,1.9,3.1h2.1l-2.7-4.1,2.5-2.2ZM215.9,83.7c1.2,0,1.9.6,2.2,1.9l2-.2c-.4-1.9-1.8-2.9-4.1-2.9s-2.7.4-3.5,1.1c-.8.8-1.2,1.9-1.2,3.3s.4,2.4,1.1,3.2c.8.8,1.9,1.2,3.5,1.2,2.4,0,3.8-.9,4.2-2.8l-2-.2c-.1.6-.4,1.1-.7,1.4-.3.3-.8.5-1.5.5-1.6,0-2.5-1-2.5-3.1s.8-3.3,2.5-3.3ZM228.4,89.4c0,.9,0,1.4.2,1.7h-1.9c0-.2-.1-.6-.1-1-.6.8-1.5,1.2-2.7,1.2s-1.4-.2-1.9-.5c-.5-.3-.7-.8-.7-1.3s.4-1.2,1.1-1.6c.7-.4,1.9-.6,3.7-.6s.2,0,.4,0v-.3c0-.4-.1-.8-.3-1-.2-.2-.6-.3-1.1-.3-.9,0-1.4.3-1.5,1l-1.9-.2c.1-.6.5-1,1.2-1.3.7-.3,1.5-.5,2.4-.5s1.5.1,2,.3.8.5,1,.8.2.8.2,1.4v2.1ZM226.4,88.1c-.2,0-.4,0-.6,0-1.7,0-2.5.4-2.5,1.3s.4,1,1.3,1,.9-.2,1.3-.5.6-.8.6-1.4v-.3ZM240.7,85c-.4-.2-.9-.2-1.4-.2-1.2,0-2,.4-2.4,1.2-.2-.8-1-1.2-2.2-1.2s-1.9.4-2.3,1.1v-1h-1.8v6.3h2v-3.6c0-.6.1-1.1.3-1.3.2-.3.6-.4,1.2-.4s.5,0,.7.1c.2,0,.3.2.4.4,0,.2,0,.5,0,1.1v3.8h2v-3.7c0-1.1.5-1.7,1.5-1.7s.8.1.9.3c.2.2.2.6.2,1.2v3.9h2v-4c0-.8,0-1.3-.2-1.5-.1-.3-.4-.5-.8-.7ZM250.5,85.6c.6.6.9,1.3.9,2.4s-.3,1.7-.8,2.3c-.5.6-1.4,1-2.5,1s-1.6-.3-2.1-.8v2.8h-2v-8.4h1.8v1c.5-.8,1.3-1.1,2.3-1.1s1.7.3,2.3.8ZM249.3,87.9c0-1.5-.5-2.2-1.6-2.2s-.9.2-1.2.5-.5.7-.5,1.3v1c0,.4,0,.7.1.9s.3.4.6.6c.3.2.6.2,1,.2,1.1,0,1.7-.8,1.7-2.3ZM260.1,88.2h-5.4c0,.8.2,1.4.5,1.7.3.3.8.4,1.3.4.9,0,1.4-.4,1.7-1.2l1.8.2c-.5,1.3-1.6,2-3.5,2s-2.1-.3-2.7-.8c-.7-.5-1-1.3-1-2.4s.3-1.9,1-2.5c.7-.6,1.6-.9,2.8-.9s1.5.1,2,.4c.6.3.9.7,1.2,1.2.2.5.3,1.1.4,1.9ZM258.1,87.3c0-1.1-.5-1.7-1.6-1.7s-1.6.6-1.7,1.7h3.3ZM263.5,86.3v-1.4h-1.7v6.3h2v-3.2c0-1.2.7-1.9,2.1-1.9s.2,0,.4,0v-1.3c-.1,0-.3,0-.4,0-1.1,0-1.8.5-2.4,1.5ZM266.3,88.5h4.1v-1h-4.1v1ZM274.4,83.9h2.8v7.3h2.1v-7.3h2.9v-1.2h-7.8v1.2ZM284.2,86.3v-1.4h-1.7v6.3h2v-3.2c0-1.2.7-1.9,2.1-1.9s.2,0,.4,0v-1.3c-.1,0-.3,0-.4,0-1.1,0-1.8.5-2.4,1.5ZM294.6,89.4c0,.9,0,1.4.2,1.7h-1.9c0-.2-.1-.6-.1-1-.6.8-1.5,1.2-2.7,1.2s-1.4-.2-1.9-.5c-.5-.3-.7-.8-.7-1.3s.4-1.2,1.1-1.6c.7-.4,1.9-.6,3.7-.6s.2,0,.4,0v-.3c0-.4-.1-.8-.3-1-.2-.2-.6-.3-1.1-.3-.9,0-1.4.3-1.5,1l-1.9-.2c.1-.6.5-1,1.2-1.3.7-.3,1.5-.5,2.4-.5s1.5.1,2,.3.8.5,1,.8c.1.3.2.8.2,1.4v2.1ZM292.7,88.1c-.2,0-.4,0-.6,0-1.7,0-2.5.4-2.5,1.3s.4,1,1.3,1,.9-.2,1.3-.5c.4-.3.6-.8.6-1.4v-.3ZM299.3,89.4l-1.8-4.5h-1.9l2.7,6.3h1.7l2.7-6.3h-1.7l-1.7,4.5ZM310.6,88.2h-5.4c0,.8.2,1.4.5,1.7s.8.4,1.3.4c.9,0,1.4-.4,1.7-1.2l1.8.2c-.5,1.3-1.6,2-3.5,2s-2.1-.3-2.7-.8c-.7-.5-1-1.3-1-2.4s.3-1.9,1-2.5c.7-.6,1.6-.9,2.8-.9s1.5.1,2,.4c.6.3.9.7,1.2,1.2.2.5.3,1.1.4,1.9ZM308.6,87.3c0-1.1-.5-1.7-1.6-1.7s-1.6.6-1.7,1.7h3.3ZM312.2,91.1h2v-8.5h-2v8.5ZM318.6,83.9h2.8v7.3h2.1v-7.3h2.9v-1.2h-7.8v1.2ZM328.4,86.3v-1.4h-1.7v6.3h2v-3.2c0-1.2.7-1.9,2.1-1.9s.2,0,.4,0v-1.3c-.1,0-.3,0-.4,0-1.1,0-1.8.5-2.4,1.5ZM338.8,89.4c0,.9,0,1.4.2,1.7h-1.9c0-.2-.1-.6-.1-1-.6.8-1.5,1.2-2.7,1.2s-1.4-.2-1.9-.5c-.5-.3-.7-.8-.7-1.3s.4-1.2,1.1-1.6c.7-.4,1.9-.6,3.7-.6s.2,0,.4,0v-.3c0-.4-.1-.8-.3-1-.2-.2-.6-.3-1.1-.3-.9,0-1.4.3-1.5,1l-1.9-.2c.1-.6.5-1,1.2-1.3.7-.3,1.5-.5,2.4-.5s1.5.1,2,.3.8.5,1,.8c.1.3.2.8.2,1.4v2.1ZM336.9,88.1c-.2,0-.4,0-.6,0-1.7,0-2.5.4-2.5,1.3s.4,1,1.3,1,.9-.2,1.3-.5c.4-.3.6-.8.6-1.4v-.3ZM341,91.1h2v-6.3h-2v6.3ZM341,84h2.1v-1.4h-2.1v1.4ZM345.3,91.1h2v-8.5h-2v8.5ZM356.5,88.2h-5.4c0,.8.2,1.4.5,1.7s.8.4,1.3.4c.9,0,1.4-.4,1.7-1.2l1.8.2c-.5,1.3-1.6,2-3.5,2s-2.1-.3-2.7-.8c-.7-.5-1-1.3-1-2.4s.3-1.9,1-2.5c.7-.6,1.6-.9,2.8-.9s1.5.1,2,.4c.6.3.9.7,1.2,1.2.2.5.3,1.1.4,1.9ZM354.5,87.3c0-1.1-.5-1.7-1.6-1.7s-1.6.6-1.7,1.7h3.3ZM359.8,86.3v-1.4h-1.7v6.3h2v-3.2c0-1.2.7-1.9,2.1-1.9s.2,0,.4,0v-1.3c-.1,0-.3,0-.4,0-1.1,0-1.8.5-2.4,1.5Z" fill="#0f1052"/>
  <path d="M81.3,10.3H29.7C13.8,10.3,1,23.2,1,39v22.3c0,15.8,12.8,28.7,28.7,28.7h51.6c15.8,0,28.7-12.8,28.7-28.7v-22.3c0-15.8-12.8-28.7-28.7-28.7ZM26,33l2.8,3.8,7.4-10.1,4,3.7,14.6-13.8,17.4,13.4,4.4-2.7,3.4,5.7,6.6-3.3,7.6,8.9-8.8-5.8-7.4,6.7-22.8-20.9,3.8,17-15.7-3.1.8,5.1-7.8-6-8.2,8.4-2.9-3.1-11.6,8.8,12.3-12.7ZM76.7,76.7c-.5,1.2-1.4,2.4-3.5,2.9-1.4.3-3.3.1-4.7-1.2-1.7-1.6-1.6-3.3-1.6-3.3h-32.5c0,0,0,1.2-.7,2.2-.5.8-1.1,1.5-2.2,2-1.3.5-2.9.7-4.2,0-1.2-.6-2-1.3-2.6-2.3-.8-1.6-.3-3.2-.3-3.2,0,0-4,.6-6.5-.5-1.9-.8-2.1-3.3-2.3-5.2-.3-3-.6-6.3-.5-8.3.1-2.2,1.1-7.9,1.8-8.7,1-1.2,2.6-2.8,6.2-3.2,6.5-.7,25,0,25,0l7.9-.7s7.1-.4,9,.7c1.2.7,3.3,3.1,2.9,4.3-.5,1.2-2.9,2.2-3.9,2.6-1.4.6-1.6,1.5-.9,2.1,1.6,1.4,4.8,4.8,6.8,5.8,4.7,2.3,9.1,1.2,10.6,2.4.7.6,1.1,2.5,1.2,3.4,0,.9,0,3-1.2,3.5-2.1.7-3.9,1.1-3.9,1.1,0,0,1.1,1.7.2,3.7ZM102.9,42.3s-8.1-.3-11.8.9c-1.6.5-5,2.6-.2,6.2,2.6,1.9,8,5.8,9.4,8.8,1.6,3.5,2.8,11.7-4,19.6-7.7,8.9-21,8.7-21,8.7,0,0-29.3,0-39-.4-6.8-.3-9.1-.5-12.3-1.6-2.2-.7-6.9-3.6-8.6-5.7-1.3-1.6-4.2-5.4-4.5-9.3h4.1s.1,2.5,1.8,3.9c1.6,1.4,2.7,1.2,6.6,1.1,0,0-.3,1.7.9,3.5,1.3,1.9,3.8,3.1,6.6,2.3,2.8-.8,3.9-3.3,3.9-4.4l31.2-.2s.4,2.6,2.7,3.9c2.1,1.2,5.2.9,7.4-.9,2.6-2.2,1.4-5.4,1.4-5.4,0,0,2.9-.5,3.8-1.4,1.2-1.2.9-3,.9-3,0,0,8.1-1.2,7.6-8.3-.5-6-2.8-7.5-6.4-10.5-3.1-2.6-1.8-8.2,3.8-9,3.4-.5,15.8-.5,15.8-.5v1.9ZM219.6,41.4c-3.7-3.3-11.7-6.2-19.8-.9-8.8,5.7-9.8,18.3-2.5,25.4,5.3,5.1,11.2,4.9,11.2,4.9,0,0,2-.1,2.4-1.7.6-2.6-1.1-2.8-1.2-2.9,0,0-4.9.5-8.9-3.3,0,0-.7-.7-.7-1.5,0-.8.5-1.1.5-1.1l20.1-15c.9-.6.7-1.7.2-2.5-.4-.7-.7-.9-1.3-1.4ZM214.1,44.6l-15.4,11.4c-.3.3-.7.3-1,0-.4-.2-.6-.8-.6-1.4,0-2.8.7-6.4,4-9.4,3.8-3.4,8.5-3.6,12-2.4.4.1.8.4,1.1.7.2.2.3.7,0,1ZM332,42.5c-.4-.7-.7-.9-1.3-1.4-3.7-3.3-11.7-6.2-19.8-.9-8.8,5.7-9.8,18.3-2.5,25.4,5.3,5.1,11.2,4.9,11.2,4.9,0,0,2-.1,2.4-1.7.6-2.6-1.1-2.8-1.2-2.9,0,0-4.9.5-8.9-3.3,0,0-.7-.7-.7-1.5,0-.8.5-1.1.5-1.1l20.1-15c.9-.6.7-1.7.2-2.5ZM325.2,44.2l-15.4,11.4c-.3.3-.7.3-1,0s-.6-.8-.6-1.4c0-2.8.7-6.4,4-9.4,3.8-3.4,8.5-3.6,12-2.4.4.1.8.4,1.1.7.2.2.3.7,0,1Z" fill="#beb665"/>
  <path d="M81.3,9.3H29.7C13.3,9.3,0,22.7,0,39v22.3c0,16.4,13.3,29.7,29.7,29.7h51.6c16.4,0,29.7-13.3,29.7-29.7v-22.3c0-16.4-13.3-29.7-29.7-29.7ZM110,61.3c0,15.8-12.8,28.7-28.7,28.7H29.7c-15.8,0-28.7-12.8-28.7-28.7v-22.3c0-15.8,12.8-28.7,28.7-28.7h51.6c15.8,0,28.7,12.8,28.7,28.7v22.3ZM94.6,38.4l-7.6-8.9-.3-.3-.3.2-6.2,3.1-3.2-5.3-.3-.4-.4.3-4.1,2.5-17.1-13.2-.3-.3-.3.3-14.3,13.5-3.6-3.4-.4-.4-.3.5-7,9.6-2.4-3.3-.3-.5-.4.4-12.3,12.7.7.7,11.2-8.5,2.6,2.8.4.4.4-.4,7.8-8.1,7.5,5.7,1,.8-.2-1.2-.7-4.4,15,2.9h.7c0,.1-.2-.6-.2-.6l-3.4-15.4,21.7,19.9.3.3.3-.3,7.1-6.4,8.5,5.6,1,.7c-3.2,0-6.4.2-8,.5-3,.5-5.2,2.2-5.9,4.7-.6,2.1,0,4.2,1.7,5.6.3.2.6.5.8.7,3.1,2.5,4.9,4.1,5.3,9.3.4,5.5-4.9,7.1-6.5,7.4-.1-.9-.5-2.9-1.5-3.7-.9-.7-2.1-.8-3.8-.9-2-.1-4.4-.3-7-1.6-1.3-.7-3.4-2.6-4.9-4-.7-.6-1.2-1.2-1.7-1.6,0,0,.3-.3.6-.4h.2c1.8-.8,3.7-1.7,4.3-3.1.8-1.9-2-4.8-3.3-5.6-.4-.2-1.6-.9-6.8-.9s-2.7,0-2.8,0l-7.9.7c-.8,0-8.6-.3-15.6-.3s-7.5.1-9.5.3c-3.7.4-5.5,1.9-6.8,3.5-1,1.2-1.9,7.7-2,9.3-.1,2.3.2,6,.5,8.5v.3s0,0,0,.1h-3.8s-.8,0-.8,0v.8c.3,4.2,3.4,8.1,4.7,9.7,1.8,2.2,6.7,5.2,8.9,5.9,3.4,1.1,5.9,1.4,12.5,1.7,9.7.4,38.8.4,39.1.4h.1c1.4,0,14-.3,21.5-8.9,7-8.2,5.8-16.6,4.1-20.4-1.4-3-6.1-6.5-8.9-8.6l-.7-.5c-1.5-1.2-2.3-2.2-2.2-3.1.2-1,1.5-1.6,2.1-1.8,2.4-.8,6.9-.9,9.4-.9s2.2,0,2.2,0h.8s0-.7,0-.7v-2.6h-.8c-.3,0-3.5,0-7.1,0l-1.2-1.4ZM85.5,32.9l-7.4,6.7-22.8-20.9,3.8,17-15.7-3.1.8,5.1-7.8-6-8.2,8.4-2.9-3.1-11.6,8.8,12.3-12.7,2.8,3.8,7.4-10.1,4,3.7,14.6-13.8,17.4,13.4,4.4-2.7,3.4,5.7,6.6-3.3,7.6,8.9-8.8-5.8ZM15.1,59.8c.1-2.2,1.1-7.9,1.8-8.7,1-1.2,2.6-2.8,6.2-3.2,2.2-.2,5.7-.3,9.4-.3,7.4,0,15.6.3,15.6.3l7.9-.7s1.2,0,2.7,0c2.2,0,5.1.1,6.3.8,1.2.7,3.3,3.1,2.9,4.3-.5,1.2-2.9,2.2-3.9,2.6-1.4.6-1.6,1.5-.9,2.1,1.6,1.4,4.8,4.8,6.8,5.8,4.7,2.3,9.1,1.2,10.6,2.4.7.5,1,2.1,1.1,3.1h-.2s0,.8,0,.8c0,0,.2,1.5-.7,2.4-.5.5-2.2,1-3.4,1.2l-.9.2v.3c0,0,0,0,0,0,0,0,.2.3.3.9.2.8.4,2.8-1.3,4.2-1.1.9-2.5,1.4-4,1.4s-1.4-.1-2-.4c-.4-.2-.7-.4-1.1-.7-1.7-1.6-1.6-3.3-1.6-3.3h-.3s0-.2,0-.2h-.6s-31.2.2-31.2.2h-.7v.8c0,.7-.8,2.9-3.3,3.7-.5.1-1,.2-1.5.2s-.7,0-1-.1c-.3,0-.6-.2-.8-.3-1.2-.6-2-1.3-2.6-2.3-.8-1.6-.3-3.2-.3-3.2,0,0,0,0-.2,0h0c0-.1-.9-.1-.9-.1-.5,0-.9,0-1.3,0-.6,0-1.1,0-1.5,0-1.6,0-2.3-.1-3.3-1-.6-.5-.9-1.1-1.2-1.7-.3-.9-.4-2-.5-3-.3-3-.6-6.3-.5-8.3ZM96.5,40.5c3.5,0,6.5,0,6.5,0v1.9s-.9,0-2.2,0c-2.7,0-7.1.1-9.6.9-1.6.5-5,2.6-.2,6.2,2.6,1.9,8,5.8,9.4,8.8,1.6,3.5,2.8,11.7-4,19.6-7.2,8.4-19.5,8.7-20.9,8.7s-.1,0-.1,0c0,0-29.3,0-39-.4-6.8-.3-9.1-.5-12.3-1.6-2.2-.7-6.9-3.6-8.6-5.7-1.3-1.6-4.2-5.4-4.5-9.3h3.9c.2,1.8.7,3.9,2.7,4.8,1.1.5,2.6.7,4.4.7s1,0,1.4,0c0,.7.1,1.6.6,2.5.6,1.2,1.5,2,3,2.8.7.4,1.5.5,2.4.5s1.8-.2,2.6-.5c1.4-.6,2.1-1.5,2.7-2.3.4-.6.6-1.2.7-1.7h30.8c.2.7.6,1.9,1.8,2.9,1.4,1.3,3,1.6,4.1,1.6s1,0,1.5-.2c2.6-.6,3.6-2.2,4.2-3.5.6-1.3.5-2.5.3-3.4.7-.2,1.8-.5,2.9-.8,1.8-.6,1.9-3,1.9-4.1,1.6-.3,7.7-2,7.2-8.2-.5-6-2.8-7.5-6.4-10.5-3.1-2.6-1.8-8.2,3.8-9,1.7-.3,5.5-.4,8.9-.5l.8.5-.5-.5Z" fill="#0f1052"/>
</svg>