<?xml version="1.0" encoding="UTF-8"?>
<svg xmlns="http://www.w3.org/2000/svg" xmlns:xlink="http://www.w3.org/1999/xlink" width="0" height="0">
<defs>
  <symbol id="icon-arrow" xmlns="http://www.w3.org/2000/svg" viewBox="0 0 32 32" >
    <path
      d="M 12.96875 4.28125 L 11.53125 5.71875 L 21.8125 16 L 11.53125 26.28125 L 12.96875 27.71875 L 23.96875 16.71875 L 24.65625 16 L 23.96875 15.28125 Z"
    />
  </symbol>
  <symbol id="icon-checkbox" viewBox="0 0 20 20">
    <path
      d="M7.629,14.566c0.125,0.125,0.291,0.188,0.456,0.188c0.164,0,0.329-0.062,0.456-0.188l8.219-8.221c0.252-0.252,0.252-0.659,0-0.911c-0.252-0.252-0.659-0.252-0.911,0l-7.764,7.763L4.152,9.267c-0.252-0.251-0.66-0.251-0.911,0c-0.252,0.252-0.252,0.66,0,0.911L7.629,14.566z"
      style="stroke: white; fill: white"
    ></path>
  </symbol>
  <symbol id="icon-facebook" xmlns="http://www.w3.org/2000/svg" viewBox="0 0 32 32" >
    <path
      d="M 16 4 C 9.3844276 4 4 9.3844276 4 16 C 4 22.615572 9.3844276 28 16 28 C 22.615572 28 28 22.615572 28 16 C 28 9.3844276 22.615572 4 16 4 z M 16 6 C 21.534692 6 26 10.465308 26 16 C 26 21.027386 22.311682 25.161277 17.488281 25.878906 L 17.488281 18.916016 L 20.335938 18.916016 L 20.783203 16.023438 L 17.488281 16.023438 L 17.488281 14.443359 C 17.488281 13.242359 17.882859 12.175781 19.005859 12.175781 L 20.810547 12.175781 L 20.810547 9.6523438 C 20.493547 9.6093438 19.822688 9.515625 18.554688 9.515625 C 15.906688 9.515625 14.355469 10.913609 14.355469 14.099609 L 14.355469 16.023438 L 11.632812 16.023438 L 11.632812 18.916016 L 14.355469 18.916016 L 14.355469 25.853516 C 9.6088556 25.070647 6 20.973047 6 16 C 6 10.465308 10.465308 6 16 6 z"
    />
  </symbol>
  <symbol id="icon-linkin" xmlns="http://www.w3.org/2000/svg" viewBox="0 0 32 32" >
    <path
      d="M 7.5 5 C 6.132813 5 5 6.132813 5 7.5 L 5 24.5 C 5 25.867188 6.132813 27 7.5 27 L 24.5 27 C 25.867188 27 27 25.867188 27 24.5 L 27 7.5 C 27 6.132813 25.867188 5 24.5 5 Z M 7.5 7 L 24.5 7 C 24.785156 7 25 7.214844 25 7.5 L 25 24.5 C 25 24.785156 24.785156 25 24.5 25 L 7.5 25 C 7.214844 25 7 24.785156 7 24.5 L 7 7.5 C 7 7.214844 7.214844 7 7.5 7 Z M 10.4375 8.71875 C 9.488281 8.71875 8.71875 9.488281 8.71875 10.4375 C 8.71875 11.386719 9.488281 12.15625 10.4375 12.15625 C 11.386719 12.15625 12.15625 11.386719 12.15625 10.4375 C 12.15625 9.488281 11.386719 8.71875 10.4375 8.71875 Z M 19.46875 13.28125 C 18.035156 13.28125 17.082031 14.066406 16.6875 14.8125 L 16.625 14.8125 L 16.625 13.5 L 13.8125 13.5 L 13.8125 23 L 16.75 23 L 16.75 18.3125 C 16.75 17.074219 16.996094 15.875 18.53125 15.875 C 20.042969 15.875 20.0625 17.273438 20.0625 18.375 L 20.0625 23 L 23 23 L 23 17.78125 C 23 15.226563 22.457031 13.28125 19.46875 13.28125 Z M 9 13.5 L 9 23 L 11.96875 23 L 11.96875 13.5 Z"
    />
  </symbol>
  <symbol id="icon-map" xmlns="http://www.w3.org/2000/svg" viewBox="0 0 32 32">
    <path
      d="M 22 3 C 18.699 3 16 5.699 16 9 C 16 9.992 16.383 11.004 16.875 12.125 C 17.367 13.246 17.988 14.43425 18.625 15.53125 C 19.898 17.72625 21.1875 19.5625 21.1875 19.5625 L 22 20.75 L 22.8125 19.5625 C 22.8125 19.5625 24.101 17.72625 25.375 15.53125 C 26.012 14.43325 26.633 13.246 27.125 12.125 C 27.617 11.004 28 9.992 28 9 C 28 5.699 25.301 3 22 3 z M 11.96875 4.9375 L 4 8.34375 L 4 27.53125 L 12.03125 24.0625 L 20.03125 27.0625 L 28 23.65625 L 28 14.9375 C 27.363 16.1605 26.656 17.332 26 18.375 L 26 22.34375 L 21 24.46875 L 21 22.84375 L 19.53125 20.71875 C 19.37525 20.49175 19.191 20.2225 19 19.9375 L 19 24.5625 L 13 22.3125 L 13 7.4375 L 14.09375 7.84375 C 14.19175 7.16775 14.367 6.51625 14.625 5.90625 L 11.96875 4.9375 z M 22 5 C 24.219 5 26 6.781 26 9 C 26 9.387 25.7585 10.3005 25.3125 11.3125 C 24.8675 12.3245 24.238 13.47225 23.625 14.53125 C 22.809 15.93725 22.457 16.438953 22 17.126953 C 21.543 16.438953 21.191 15.93725 20.375 14.53125 C 19.762 13.47225 19.1335 12.3245 18.6875 11.3125 C 18.2425 10.3005 18 9.387 18 9 C 18 6.781 19.781 5 22 5 z M 11 7.5 L 11 22.34375 L 6 24.46875 L 6 9.65625 L 11 7.5 z"
    />
  </symbol>
  <symbol id="icon-mail" xmlns="http://www.w3.org/2000/svg" viewBox="0 0 32 32">
    <path
      d="M 3 8 L 3 26 L 29 26 L 29 8 Z M 7.3125 10 L 24.6875 10 L 16 15.78125 Z M 5 10.875 L 15.4375 17.84375 L 16 18.1875 L 16.5625 17.84375 L 27 10.875 L 27 24 L 5 24 Z"
    />
  </symbol>
  <symbol id="icon-flag-cn" xmlns="http://www.w3.org/2000/svg" version="1.1" viewBox="0 0 409.2 271.5">
    <path d="M0,264.3V7.2C.4,1.3,4,.6,9.1,0h390.7c6.9.9,9.8,2.3,9.5,10l-.2,254.5c.2,5.6-4.9,6.8-9.6,7.1H9.1c-5.1-.5-8.7-1.4-9.1-7.2Z" fill="#fe4b55"/>
    <path d="M74.3,63.8c3.4.7,23.3-1.1,23.9,1.4s0,2.2-.2,2.9c-1.3,3.5-14.6,9.9-17.3,13.9-.6,2.3,5.7,16.3,6.1,20s-.3,2.3-.7,3.3c-3.9,2.5-16.6-11-21.1-11.8-2.8,0-12.9,9.9-16.6,11.3s-4.6,1-5.2-2c1.8-7,5.1-13.7,6.1-20.7-.7-2.7-14.4-9.9-16.7-12.9-6.2-8.4,19.6-4.2,23.1-5.4.9-.6,5.1-17.4,6.7-20.1s4.1-2.2,5.6.5,5.5,19,6.3,19.7Z" fill="#fee05a"/>
    <path d="M158.9,52.7c.8,3-4.5,6.3-4.5,8.4s5.9,7,4.5,8.4c-2.5.5-7.1-2.9-9.1-2.3s-4.7,7.1-5.7,7.1c-2.2,0-.6-8.3-1.3-9.5s-8.7-2.5-8.7-3.7c1-2,8.1-2.9,8.7-3.7.8-1.2-.9-9.5,1.3-9.5s4.4,6.7,5.7,7.1c2,.6,6.6-2.8,9.1-2.3Z" fill="#fee05a"/>
    <path d="M149.4,90.1c2.1,1.3,8.9-2,9.5.5s-5.5,5.2-5.6,5.7c-.6,2.9,3.1,6.7,2.4,9.8-.9,1-6.3-4.2-8.3-3.9s-6.9,6.4-7.7,5.4c-.7-1.6,1.8-9.1,1.5-9.5-.4-.6-9.5-3.9-7.9-5.7,2-1,7.7-.3,8.8-1.1s1.5-7.5,2.3-9.2c2.6.4,4.2,7.4,4.9,7.8Z" fill="#fedf5a"/>
    <path d="M129.3,22.4c.3.3,1.2,8.3,1.7,8.7s7.3.3,8.7.9c.4,3.7-6.4,3.8-7.1,6.1s3.3,9.9-.5,9-4.3-5.2-5.7-5.5-7.9,5-9.1,3.9c-.5-2.7,3.5-6.8,3-9.1s-6.2-5.8-6.2-6.5c0-2,7.3.6,9.6-.8s2.9-9,5.6-6.8Z" fill="#fee05a"/>
    <path d="M130.1,107.8c-1.3,12.1,1.3,7.7,7.4,11.3s-5.7,3.5-6.5,4.7-.7,7.8-.9,9.5c-1.2,1.4-5.4-6.4-6.3-6.8s-6.7,2.8-8.8,2c-.5-3,4.1-5.8,4-8.4s-5.4-7.1-4.8-7.6c2.9-.8,7.4,2.1,9.8,1.6s4.7-8,6.1-6.4Z" fill="#fedf5a"/>
  </symbol>
  <symbol id="icon-flag-en" xmlns="http://www.w3.org/2000/svg" version="1.1" viewBox="0 0 409.1 268.3">
    <path d="M184.4,0c6.7.3,7.1,5,7.5,10.6s.4,9.3-2,10.2c2.5,6.6,2.4,14.2,0,20.8,2,6.9,2,13.8,0,20.8,1.6,6.6,1.6,13.3,0,20,2,6.9,2,13.8,0,20.8,2.4,6.6,2.5,14.2,0,20.8l1.6.9c1.1,5.6,1.5,19.7-6.4,19.8-59.5,1.6-119,2.2-178.5,1.6-4.1-.2-6.1-2.5-6.7-6.4V4.8C2.1,1.8,4.4,0,8.4,0c58.7,0,117.4,0,176.1,0Z" fill="#41479a"/>
    <path d="M408.8,165.3c0,6.9,0,13.9,0,20.8l-.8,1.6H1l-1-1.6v-20.8h408.8ZM407.8,204.4H.8l-.8,1.6v20.8l1,1.6h407l.8-1.6c0-6.9,0-13.9,0-20.8l-1-1.6ZM0,247.6v15.2c1.7,4.2,4.8,5.2,9.1,5.6h390.5c12.2-.1,9-12.1,9.1-20.8H0ZM407.8,122.2h-217l-.8,1.6c0,7.3,2.4,16.9-4.8,20.8,74.5,0,149.1,0,223.6,0,0-6.9,0-13.9,0-20.8l-1-1.6ZM190,41.6c0,6.9,0,13.9,0,20.8l1,1.6h217l.8-1.6c0-6.9,0-13.9,0-20.8h-218.8ZM407.8,80.7h-217l-.8,1.6c0,6.9,0,13.9,0,20.8h218.8c0-6.9,0-13.9,0-20.8l-1-1.6ZM400.4,0c-72,0-144,0-216,0,8.2,2.9,5.5,13.3,5.6,20.8h218.8c-.1-8.2,2.9-20.2-8.4-20.8Z" fill="#fe4b55"/>
    <path d="M185.2,144.6c74.5-2.3,149.1-2.3,223.6,0,0,6.9,0,13.9,0,20.8l-.8,1.6H1l-1-1.6v-25.6c1.9,2.2,3.5,4.8,6.8,4.8,59.5,0,119,0,178.5,0ZM0,226.8v20.8l1,1.6h407l.8-1.6c.1-6.9,0-13.9,0-20.8H0ZM0,186.1v20h408.8c0-6.6,0-13.3,0-20H0ZM407.8,19.2h-217l-.8,1.6c0,6.9,0,13.9,0,20.8l1,1.6h217l.8-1.6c0-6.9.1-13.9,0-20.8l-1-1.6ZM407.8,101.4h-217l-.8,1.6c0,6.9,0,13.9,0,20.8h218.8c0-6.9,0-13.9,0-20.8l-1-1.6ZM190,62.3c0,6.6,0,13.3,0,20h218.8c0-6.6,0-13.3,0-20h-218.8ZM103,22c-3.8-2.4-6.8.2-7.2-6-2.1.2-2.1,4.4-2.5,4.7-.8.7-8.4-1.3-5,2.5s2.1.5,2.6,2.1-.9,3.3-.7,5c1.9.5,3.6-2.5,5-2.3s2.7,2.7,4.5,2.3c-.9-4.8-1.3-5.8,3.2-8.4ZM37.5,28c-.4,6.2-3.4,3.6-7.2,6,4.2,3,4.2,3.3,3.2,8.4,1.9.5,3.7-2.6,5.1-2.3s2.3,3.2,4.5,2.3c-2.3-5.1.8-5.6,2.4-9.6-1.2-.3-4.9.4-5.5,0s-.4-4.5-2.5-4.7ZM17.5,20.7c-.5.4-6.4-.6-6.3,1.3s3.4,1.7,3.9,3.4-.9,3.3-.7,5c1.9.5,3.6-2.5,5-2.3s2.7,2.7,4.5,2.3c.2-1.7-1.2-3.4-.7-5s3.8-2.6,3.9-3.4c0-1.9-5.8-.8-6.3-1.3s-.7-4.5-.9-4.7c-1.9-2-2.1,4.4-2.5,4.7ZM112.5,32.7c-.5.4-6.4-.6-6.3,1.3s3.4,1.7,3.9,3.4-.9,3.3-.7,5c1.9.5,3.6-2.5,5-2.3s2.7,2.7,4.5,2.3c.2-1.7-1.2-3.4-.7-5s3.8-2.6,3.9-3.4c0-1.9-5.8-.8-6.3-1.3s-.7-4.5-.9-4.7c-1.9-2-2.1,4.4-2.5,4.7ZM152.1,28c-1.5.7-1.5,4.3-2.1,4.7-1,.7-4.4-.8-5.5,1.3,4,2.9,5,3.5,2.4,8.4,2.1.7,3.8-2.1,5.2-2.1s3.1,2.8,5.2,2.1c.6-.6-1.7-4.1-1.6-5.1s3.6-2,4-3.3c-1.1-2.1-4.5-.6-5.5-1.3s-.6-4-2.1-4.7ZM17.5,94.2c-.5.4-6.4-.6-6.3,1.3s3.4,1.7,3.9,3.4-.9,3.3-.7,5c1.9.5,3.6-2.5,5-2.3s2.7,2.7,4.5,2.3c.2-1.7-1.2-3.4-.7-5s3.8-2.6,3.9-3.4c0-1.9-5.8-.8-6.3-1.3s-.7-4.5-.9-4.7c-1.9-2-2.1,4.4-2.5,4.7ZM57.1,89.5c-1.5.7-1.5,4.3-2.1,4.7-1,.7-4.4-.8-5.5,1.3,4,2.9,5,3.5,2.4,8.4,2.2.6,3.8-2.1,5.3-2.3s2.7,3.1,5,2.3c.6-.6-1.7-4.1-1.6-5.1s4.8-2.2,4-4.5c-1.4-.3-4.6.5-5.5-.1s-.6-4-2.1-4.7ZM112.5,106.1c-.5.4-6.4-.6-6.3,1.3s3.4,1.7,3.9,3.4-.9,3.3-.7,5c1.9.5,3.6-2.5,5-2.3s2.7,2.7,4.5,2.3c.2-1.7-1.2-3.4-.7-5s3.8-2.6,3.9-3.4c0-1.9-5.8-.8-6.3-1.3s-.7-4.5-.9-4.7c-1.9-2-2.1,4.4-2.5,4.7ZM57.1,16c-1.5.7-1.5,4.3-2.1,4.7-1,.7-4.4-.8-5.5,1.3,4,2.9,5,3.5,2.4,8.4,2.2.6,3.8-2.1,5.3-2.3s2.7,3.1,5,2.3c.6-.6-1.7-4.1-1.6-5.1s3.6-2,4-3.3c-1.1-2.1-4.5-.6-5.5-1.3s-.6-4-2.1-4.7ZM37.5,101.4c-.4,6.2-3.4,3.6-7.2,6,4.2,3,4.2,3.3,3.2,8.4,1.8.3,2.9-2.1,4.5-2.3s2.7,3.1,5,2.3c.2-1.1-1.7-5.3-1.5-5.5.3-.5,4.6-1.7,3.9-4.1-1.2-.3-4.9.4-5.5,0s-.4-4.5-2.5-4.7ZM103,95.4c-3.8-2.4-6.8.2-7.2-6-3.7,3.6-.8,5.9-8,4.8-.3,2.2,2.6,2.8,3.1,4.6s-.9,3.3-.7,5c1.9.4,3.5-2.4,5.1-2.3s2.7,2.5,4.5,2.3c-.9-4.8-1.3-5.8,3.2-8.4ZM152.1,101.5c-1.5.7-1.5,4.3-2.1,4.7-1,.7-4.4-.8-5.5,1.3,4,2.9,5,3.5,2.4,8.4,2.1.7,3.8-2.1,5.2-2.1s3.1,2.8,5.2,2.1c-1.7-5.2-2.3-5.1,2.4-8.4-1.1-2.1-4.5-.6-5.5-1.3s-.6-4-2.1-4.7ZM111.8,57.2c-1.2.8-3.4.2-4.8.4-.3,2.2,2.6,2.8,3.1,4.6s-.9,3.3-.7,5c2.1.2,3-2.4,5.1-2.2s2.6,2.5,4.5,2.2c.2-1.7-1.1-3.3-.7-5s3.4-2.3,3.1-4.6c-6.6,1.9-5.4-4-6.4-4.8-1.9-1.6-2.1,3.7-3.2,4.4ZM178.8,95.4c-3.8-2.4-6.8.2-7.2-6-3.3,3.9-1.1,5.8-8,4.8-.8,2.2,4,3.9,4,4.5,0,1.1-2.3,4.5-1.6,5.1,2.3.8,3.5-2.4,5-2.3s3.2,2.9,5.3,2.3c-2.7-4.8-1.6-5.5,2.4-8.4ZM76.3,101.4c-1.5.7-1.5,4.3-2.1,4.7-1,.7-4.4-.8-5.5,1.3.4,1.2,4,2.9,4,3.3,0,1.1-2.3,4.5-1.6,5.1,2.3.8,3.5-2.4,5-2.3s3.2,2.9,5.3,2.3c-2.7-4.8-1.6-5.5,2.4-8.4-1.2-2.1-4.2-.6-5.4-1.3s-1.2-4-2.1-4.7ZM57.1,114.2c-2.6,4.6-1.3,5.5-7.6,4.8-.3,2.5,3.5,2.6,3.8,4.5s-1.7,3.4-1.5,5.1c2,.4,3.5-2.4,5.2-2.4s3.2,2.8,5.2,2.4c.3-1.7-1.7-3.6-1.5-5.1s4.2-2,3.8-4.5c-1.2-.3-4.9.4-5.5,0s-.4-4-2.1-4.7ZM170.5,114.2c-.8,0-.8,4.3-1.3,4.7s-4.3-.2-5.5,0c-.5,2.4,3.5,2.7,3.7,4.4s-1.8,4.7-1.3,5.2c2,.4,3.5-2.4,5.2-2.4s3.2,2.8,5.2,2.4c-.4-1.3-1.7-3.8-1.4-5.1.4-2.3,4.2-2,3.8-4.5-1.4-.3-4.6.5-5.5-.1s-.4-4.7-2.9-4.7ZM132.6,16c-.4,6.2-3.4,3.6-7.2,6,4.2,3,4.2,3.3,3.2,8.4,1.8.3,2.9-2.1,4.5-2.3s2.7,3.1,5,2.3c.6-.6-1.7-4.1-1.6-5.1s4.8-2.2,4-4.5c-1.2-.3-4.9.4-5.5,0s-.4-4.5-2.5-4.7ZM83.8,34c-4.3-2.3-6.3,0-7.6-6-1.5.7-1.5,4.3-2.1,4.7-1,.7-4.4-.8-5.5,1.3.4,1.2,4,2.9,4,3.3,0,1.1-2.3,4.5-1.6,5.1,2.1.7,3.8-2.1,5.2-2.1s3.1,2.8,5.2,2.1c-2.7-4.8-1.6-5.5,2.4-8.4ZM16.8,45.2c-1.2.8-3.4.2-4.8.4-.3,2.2,2.6,2.8,3.1,4.6s-.9,3.3-.7,5c2.1.2,3-2.4,5.1-2.2s2.6,2.5,4.5,2.2c.2-1.7-1.1-3.3-.7-5s3.4-2.3,3.1-4.6c-6.6,1.9-5.4-4-6.4-4.8-1.9-1.6-2.1,3.7-3.2,4.4ZM170.5,40.7c-.8,0-.8,4.3-1.3,4.7s-4.3-.2-5.5,0c-.6,2.4,3.5,3.1,3.9,4.5s-1.8,3.5-1.5,5.1c2,.4,3.5-2.4,5.2-2.4s3.2,2.8,5.2,2.4c.2-.2-1.9-3.4-1.5-5s4.2-2,3.9-4.5c-1.4-.3-4.6.5-5.5-.1s-.4-4.7-2.9-4.7ZM76.3,52.7c-2.9,4.4-1,5.6-7.6,4.8-.6,2.4,3.5,3.1,3.9,4.5s-1.8,3.5-1.5,5.1c2,.4,3.5-2.4,5.2-2.4s3.2,2.8,5.2,2.4c-.4-1.3-1.7-3.9-1.4-5.1.4-1.9,4.2-2,3.8-4.5-1.4-.3-4.6.5-5.5-.1s-.6-4-2.1-4.7ZM152.1,52.7c-2.5,4.6-1.3,5.5-7.6,4.8-.3,2.5,3.5,2.6,3.8,4.5s-1.7,3.4-1.5,5.1c2,.4,3.5-2.4,5.2-2.4s3.2,2.8,5.2,2.4c.3-1.7-1.7-3.6-1.5-5.1s4.2-2,3.8-4.5c-1.4-.3-4.6.5-5.5-.1s-.6-4-2.1-4.7ZM178.8,22c-4.3-2.3-6.3,0-7.6-6-1.5.7-1.5,4.3-2.1,4.7-1,.7-4.4-.8-5.5,1.3.4,1.2,4,2.9,4,3.3,0,1.1-2.3,4.5-1.6,5.1,2.3.8,3.5-2.4,5-2.3s3.2,2.9,5.3,2.3c-2.7-4.8-1.6-5.5,2.4-8.4ZM57.1,40.8c-2.5,4.6-1.3,5.5-7.6,4.8-.3,2.5,3.5,2.6,3.8,4.5s-1.7,3.4-1.5,5.1c2,.4,3.5-2.4,5.2-2.4s3.2,2.8,5.2,2.4c.3-1.7-1.7-3.6-1.5-5.1s4.2-2,3.8-4.5c-1.4-.3-4.6.5-5.5-.1s-.6-4-2.1-4.7ZM132.6,89.5c-.4,6.2-3.4,3.6-7.2,6,4.2,3,4.2,3.3,3.2,8.4,1.9.3,2.9-2.1,4.5-2.3s3.1,2.7,5.1,2.3c.6-.6-1.7-4-1.6-5.1s4.9-2.3,4-4.5c-1.2-.3-4.9.4-5.5,0s-.4-4.5-2.5-4.7ZM36,57.2c-1.3.9-4,.2-5.6.4-.4,2.5,3.3,2.1,3.9,4.5s-1.1,3.4-.7,5c2,.3,2.5-2.3,4.4-2.4s3.2,2.5,5.2,2.4c.6-1.6-1.5-4.4-1.4-5.2s4.5-2,3.8-4.4c-8.3,1.7-4.9-3.3-6.4-4.8s-2.2,3.8-3.2,4.4ZM131,45.2c-1.3.9-4,.2-5.6.4-.4,2.5,3.3,2.1,3.9,4.5s-1.1,3.4-.7,5c2,.3,2.5-2.3,4.4-2.4s3.2,2.5,5.2,2.4c.6-1.6-1.5-4.4-1.4-5.2s4.5-2,3.8-4.4c-8.3,1.7-4.9-3.3-6.4-4.8s-2.2,3.8-3.2,4.4ZM16.8,118.6c-1.2.8-3.4.2-4.8.4-.7,2.2,3,2.8,3.2,3.8.4,1.8-1,3.9-.8,5.8,2.1.2,3-2.4,5.1-2.2s2.6,2.5,4.5,2.2c.2-1.9-1.3-4-.8-5.8s3.9-1.5,3.2-3.8c-6.6,1.9-5.4-4-6.4-4.8-1.9-1.6-2.1,3.7-3.2,4.4ZM93.3,118.9c-.6.5-4.3-.2-5.5,0-.7,2.3,3.6,3.2,3.8,4.4s-2,3.6-1.4,5.2c2,.1,3.1-2.4,5.2-2.4s2.3,2.7,4.4,2.4c-.1-3.8-1.9-4.3,1.2-7.2s3.2-.7,1.6-2.4c-7,2-5.7-3.9-6.8-4.8-2.1-1.7-2.1,4.3-2.5,4.7ZM131,118.6c-1.3.9-4,.2-5.6.4-.4,2.5,3.3,2.1,3.9,4.5s-1.1,3.4-.7,5c2,.3,2.5-2.3,4.4-2.4s3.2,2.5,5.2,2.4c.6-1.6-1.5-4.4-1.4-5.2s4.5-2,3.8-4.4c-8.3,1.7-4.9-3.3-6.4-4.8s-2.2,3.8-3.2,4.4ZM93.3,45.5c-.6.5-4.3-.2-5.5,0-.7,2.3,3.6,3.2,3.8,4.4s-2,3.6-1.4,5.2c2,.1,3.1-2.4,5.2-2.4s2.3,2.7,4.4,2.4c-.1-3.8-1.9-4.3,1.2-7.2s3.2-.7,1.6-2.4c-7,2-5.7-3.9-6.8-4.8-2.1-1.7-2.1,4.3-2.5,4.7ZM76.3,76.7c-3,4.7-.4,6.6-7.6,5.6-.5,2.4,3.5,2.3,3.7,4.4s-1.9,3.5-1.3,5.2c.9.9,4.3-3,5.2-3,1.4,0,3.7,4.4,5.2,1.8-3.5-5.5-.4-4.6,2.4-8.4-1.4-.3-4.5.5-5.5-.1s-1.1-4.7-2.1-5.5ZM151.7,76.7c-1.1,5.4-1.3,6.3-7.2,5.6-.4,2.5,3.4,2.2,3.8,4.5s-2.4,5.1-.2,5.1,3.2-2.9,4-2.9,4.3,3.9,5.2,3c.3-1.7-1.7-3.5-1.4-5.1.5-2.3,4.2-2,3.8-4.5-1.2-.3-4.9.4-5.5,0s-.3-5.2-2.5-5.5ZM111.8,81.9c-1.3.9-4,.2-5.6.4,4.2,3.7,4.5,3.8,3.2,9.6,4.1-3,5.5-3,9.6,0-1.3-5.7-1-5.9,3.2-9.6-7.5,2-6-3.9-7.2-4.8-1.9-1.6-2.1,3.7-3.2,4.4ZM94.6,65.5c-.5,0-1.4,7.3-6.8,4.8-.5,2.4,3.6,2.8,3.7,4.4s-1.9,3.5-1.4,5.2c.9,1,3.8-3.1,5.2-3s4,3.5,4.4,3c-1.4-6.2-.9-5.5,3.2-9.6-1.4-.3-4.6.5-5.5-.1s-.3-4.6-2.9-4.7ZM16.8,69.9c-1.3.9-4,.2-5.6.4,4.2,3.7,4.5,3.8,3.2,9.6,4.1-3,5.5-3,9.6,0-1.3-5.7-1-5.9,3.2-9.6-7.5,2-6-3.9-7.2-4.8-1.9-1.6-2.1,3.7-3.2,4.4ZM56.7,64.7c-1.1,5.4-1.3,6.3-7.2,5.6,0,1.7,4,3.1,4.1,3.7.2,1.1-2.6,5.9-.5,5.9s3.2-2.9,4-2.9,4.3,3.9,5.2,3c.2-1.6-1.5-3.8-1.3-5.2.3-2.2,4.2-1.9,3.7-4.4-1.2-.3-4.9.4-5.5,0s-.3-5.2-2.5-5.5ZM35.8,82.2c-.9.6-4.1-.2-5.5.1,4.1,4.1,4.6,3.4,3.2,9.6.4.5,3.9-3,4.4-3,1.4-.1,4.3,4,5.2,3,.5-1.7-1.5-4.1-1.4-5.2.2-1.6,4.2-2,3.7-4.4-4.2.5-6.3-.3-6.4-4.8-2.8-.6-2.6,4.2-3.3,4.7ZM171.3,64.7c-3,4.7-.4,6.6-7.6,5.6-.5,2.4,3.5,2.3,3.7,4.4s-1.9,3.5-1.3,5.2c.9,1,3.6-3,5.2-2.9s3.6,4.3,5.2,1.7c-3.5-5.5-.4-4.6,2.4-8.4-1.4-.3-4.5.5-5.5-.1s-1.1-4.7-2.1-5.5ZM130.8,70.2c-.9.6-4.1-.2-5.5.1,4,4.1,4.6,3.4,3.2,9.6.3.4,3.5-2.9,4.4-2.9,1.5,0,4.3,3.9,5.2,2.9.5-1.7-1.4-4-1.3-5.2.2-2.1,4.3-2,3.7-4.4-4.2.5-6.3-.3-6.4-4.8-2.8-.6-2.6,4.2-3.3,4.7Z" fill="#f4f4f4"/>
  </symbol>
  <svg id="icon-flag-vi" xmlns="http://www.w3.org/2000/svg" version="1.1" viewBox="0 0 335.3 239.5">
    <rect width="335.3" height="239.5" fill="#e82b2b"/>
    <polygon points="150.5 95.8 168 43.4 184.9 95.8 241 95.8 196.3 129.2 213.3 182.6 167.9 149.8 122 182.6 139.1 129.2 94.3 95.8 150.5 95.8" fill="#fee60e"/>
  </svg>
</defs>
</svg>
